<svg height="2391" xmlns:ev="http://www.w3.org/2001/xml-events" width="2255" xmlns="http://www.w3.org/2000/svg" viewBox="0 0 2255 2391" xmlns:xlink="http://www.w3.org/1999/xlink"><defs/><g transform="translate(5.5,5.5)" id="page3"><rect x="0" fill="#ffffff" height="2381" width="2245" y="0"/><g transform="translate(38.00,38.00)" id="shape1"><text xml:space="preserve" style="fill:#191919;font-family:Microsoft YaHei;font-size:10.00pt"><tspan x="4.4" y="19.0">def addOne(a) {</tspan><tspan x="4.4" y="37.0">a = a + 1;</tspan><tspan x="4.4" y="55.0">}</tspan><tspan x="4.4" y="73.0">a = addOne(10);</tspan><tspan x="4.4" y="91.0">a;</tspan></text></g><g transform="translate(398.00,328.50)" id="shape2"><path stroke="#323232" fill="#ffffff" stroke-width="1" d="M100.0,53.0L100.0,7.0C100.0,3.1,96.9,.0,93.0,.0L7.0,.0C3.1,.0,.0,3.1,.0,7.0L.0,53.0C.0,56.9,3.1,60.0,7.0,60.0L93.0,60.0C96.9,60.0,100.0,56.9,100.0,53.0z" fill-rule="nonzero"/><text xml:space="preserve" style="fill:#191919;font-family:Microsoft YaHei;font-size:10.00pt"><tspan x="20.5" y="36.0">DefStmnt</tspan></text></g><g transform="translate(189.00,569.50)" id="shape3"><path stroke="#323232" fill="#ffffff" stroke-width="1" d="M146.0,53.0L146.0,7.0C146.0,3.1,142.9,.0,139.0,.0L7.0,.0C3.1,.0,.0,3.1,.0,7.0L.0,53.0C.0,56.9,3.1,60.0,7.0,60.0L139.0,60.0C142.9,60.0,146.0,56.9,146.0,53.0z" fill-rule="nonzero"/><text xml:space="preserve" style="fill:#191919;font-family:Microsoft YaHei;font-size:10.00pt"><tspan x="14.2" y="36.0">IdToken("addone")</tspan></text></g><g transform="translate(448.00,388.50)" id="shape4"><path stroke="#191919" fill="none" stroke-width="1" d="M.0,.0L.0,54.0"/><path stroke="#191919" fill="#191919" stroke-width="1" d="M3.0,54.0L.0,60.0L-3.0,54.0L3.0,54.0" stroke-linecap="round"/></g><g transform="translate(398.00,448.50)" id="shape5"><path stroke="#323232" fill="#ffffff" stroke-width="1" d="M100.0,53.0L100.0,7.0C100.0,3.1,96.9,.0,93.0,.0L7.0,.0C3.1,.0,.0,3.1,.0,7.0L.0,53.0C.0,56.9,3.1,60.0,7.0,60.0L93.0,60.0C96.9,60.0,100.0,56.9,100.0,53.0z" fill-rule="nonzero"/><text xml:space="preserve" style="fill:#191919;font-family:Microsoft YaHei;font-size:10.00pt"><tspan x="7.5" y="36.0">ParameterList</tspan></text></g><g transform="translate(767.00,448.50)" id="shape6"><path stroke="#323232" fill="#ffffff" stroke-width="1" d="M100.0,53.0L100.0,7.0C100.0,3.1,96.9,.0,93.0,.0L7.0,.0C3.1,.0,.0,3.1,.0,7.0L.0,53.0C.0,56.9,3.1,60.0,7.0,60.0L93.0,60.0C96.9,60.0,100.0,56.9,100.0,53.0z" fill-rule="nonzero"/><text xml:space="preserve" style="fill:#191919;font-family:Microsoft YaHei;font-size:10.00pt"><tspan x="14.6" y="36.0">BlockStmnt</tspan></text></g><g transform="translate(212.00,448.50)" id="shape7"><path stroke="#323232" fill="#ffffff" stroke-width="1" d="M100.0,53.0L100.0,7.0C100.0,3.1,96.9,.0,93.0,.0L7.0,.0C3.1,.0,.0,3.1,.0,7.0L.0,53.0C.0,56.9,3.1,60.0,7.0,60.0L93.0,60.0C96.9,60.0,100.0,56.9,100.0,53.0z" fill-rule="nonzero"/><text xml:space="preserve" style="fill:#191919;font-family:Microsoft YaHei;font-size:10.00pt"><tspan x="25.1" y="36.0">ASTLeaf</tspan></text></g><g transform="translate(262.00,508.50)" id="shape8"><path stroke="#191919" fill="none" stroke-width="1" d="M.0,.0L.0,55.0"/><path stroke="#191919" fill="#191919" stroke-width="1" d="M3.0,55.0L.0,61.0L-3.0,55.0L3.0,55.0" stroke-linecap="round"/></g><g transform="translate(448.00,388.50)" id="shape9"><path stroke="#191919" fill="none" stroke-width="1" d="M.0,.0L.0,32.0L-186.0,32.0L-186.0,54.0"/><path stroke="#191919" fill="#191919" stroke-width="1" d="M-183.0,54.0L-186.0,60.0L-189.0,54.0L-183.0,54.0" stroke-linecap="round"/></g><g transform="translate(448.00,388.50)" id="shape10"><path stroke="#191919" fill="none" stroke-width="1" d="M.0,.0L.0,32.0L369.0,32.0L369.0,54.0"/><path stroke="#191919" fill="#191919" stroke-width="1" d="M372.0,54.0L369.0,60.0L366.0,54.0L372.0,54.0" stroke-linecap="round"/></g><g transform="translate(398.00,569.50)" id="shape11"><path stroke="#323232" fill="#ffffff" stroke-width="1" d="M100.0,53.0L100.0,7.0C100.0,3.1,96.9,.0,93.0,.0L7.0,.0C3.1,.0,.0,3.1,.0,7.0L.0,53.0C.0,56.9,3.1,60.0,7.0,60.0L93.0,60.0C96.9,60.0,100.0,56.9,100.0,53.0z" fill-rule="nonzero"/><text xml:space="preserve" style="fill:#191919;font-family:Microsoft YaHei;font-size:10.00pt"><tspan x="25.1" y="36.0">ASTLeaf</tspan></text></g><g transform="translate(448.00,508.50)" id="shape12"><path stroke="#191919" fill="none" stroke-width="1" d="M.0,.0L.0,55.0"/><path stroke="#191919" fill="#191919" stroke-width="1" d="M3.0,55.0L.0,61.0L-3.0,55.0L3.0,55.0" stroke-linecap="round"/></g><g transform="translate(375.00,682.50)" id="shape13"><path stroke="#323232" fill="#ffffff" stroke-width="1" d="M146.0,53.0L146.0,7.0C146.0,3.1,142.9,.0,139.0,.0L7.0,.0C3.1,.0,.0,3.1,.0,7.0L.0,53.0C.0,56.9,3.1,60.0,7.0,60.0L139.0,60.0C142.9,60.0,146.0,56.9,146.0,53.0z" fill-rule="nonzero"/><text xml:space="preserve" style="fill:#191919;font-family:Microsoft YaHei;font-size:10.00pt"><tspan x="34.3" y="36.0">IdToken("a")</tspan></text></g><g transform="translate(448.00,629.50)" id="shape14"><path stroke="#191919" fill="none" stroke-width="1" d="M.0,.0L.0,47.0"/><path stroke="#191919" fill="#191919" stroke-width="1" d="M3.0,47.0L.0,53.0L-3.0,47.0L3.0,47.0" stroke-linecap="round"/></g><g transform="translate(817.00,508.50)" id="shape15"><path stroke="#191919" fill="none" stroke-width="1" d="M.0,.0L.0,54.0"/><path stroke="#191919" fill="#191919" stroke-width="1" d="M3.0,54.0L.0,60.0L-3.0,54.0L3.0,54.0" stroke-linecap="round"/></g><g transform="translate(767.00,568.50)" id="shape16"><path stroke="#323232" fill="#ffffff" stroke-width="1" d="M100.0,53.0L100.0,7.0C100.0,3.1,96.9,.0,93.0,.0L7.0,.0C3.1,.0,.0,3.1,.0,7.0L.0,53.0C.0,56.9,3.1,60.0,7.0,60.0L93.0,60.0C96.9,60.0,100.0,56.9,100.0,53.0z" fill-rule="nonzero"/><text xml:space="preserve" style="fill:#191919;font-family:Microsoft YaHei;font-size:10.00pt"><tspan x="17.2" y="36.0">BinaryExpr</tspan></text></g><g transform="translate(817.00,628.50)" id="shape17"><path stroke="#191919" fill="none" stroke-width="1" d="M.0,.0L.0,32.0L-174.0,32.0L-174.0,54.0"/><path stroke="#191919" fill="#191919" stroke-width="1" d="M-171.0,54.0L-174.0,60.0L-177.0,54.0L-171.0,54.0" stroke-linecap="round"/></g><g transform="translate(570.00,688.50)" id="shape18"><path stroke="#323232" fill="#ffffff" stroke-width="1" d="M146.0,53.0L146.0,7.0C146.0,3.1,142.9,.0,139.0,.0L7.0,.0C3.1,.0,.0,3.1,.0,7.0L.0,53.0C.0,56.9,3.1,60.0,7.0,60.0L139.0,60.0C142.9,60.0,146.0,56.9,146.0,53.0z" fill-rule="nonzero"/><text xml:space="preserve" style="fill:#191919;font-family:Microsoft YaHei;font-size:10.00pt"><tspan x="54.4" y="36.0">Name</tspan></text></g><g transform="translate(744.00,688.50)" id="shape19"><path stroke="#323232" fill="#ffffff" stroke-width="1" d="M146.0,53.0L146.0,7.0C146.0,3.1,142.9,.0,139.0,.0L7.0,.0C3.1,.0,.0,3.1,.0,7.0L.0,53.0C.0,56.9,3.1,60.0,7.0,60.0L139.0,60.0C142.9,60.0,146.0,56.9,146.0,53.0z" fill-rule="nonzero"/><text xml:space="preserve" style="fill:#191919;font-family:Microsoft YaHei;font-size:10.00pt"><tspan x="48.1" y="36.0">ASTLeaf</tspan></text></g><g transform="translate(817.00,628.50)" id="shape20"><path stroke="#191919" fill="none" stroke-width="1" d="M.0,.0L.0,54.0"/><path stroke="#191919" fill="#191919" stroke-width="1" d="M3.0,54.0L.0,60.0L-3.0,54.0L3.0,54.0" stroke-linecap="round"/></g><g transform="translate(570.00,789.50)" id="shape21"><path stroke="#323232" fill="#ffffff" stroke-width="1" d="M146.0,53.0L146.0,7.0C146.0,3.1,142.9,.0,139.0,.0L7.0,.0C3.1,.0,.0,3.1,.0,7.0L.0,53.0C.0,56.9,3.1,60.0,7.0,60.0L139.0,60.0C142.9,60.0,146.0,56.9,146.0,53.0z" fill-rule="nonzero"/><text xml:space="preserve" style="fill:#191919;font-family:Microsoft YaHei;font-size:10.00pt"><tspan x="34.3" y="36.0">IdToken("a")</tspan></text></g><g transform="translate(643.00,748.50)" id="shape22"><path stroke="#191919" fill="none" stroke-width="1" d="M.0,.0L.0,35.0"/><path stroke="#191919" fill="#191919" stroke-width="1" d="M3.0,35.0L.0,41.0L-3.0,35.0L3.0,35.0" stroke-linecap="round"/></g><g transform="translate(744.00,789.50)" id="shape23"><path stroke="#323232" fill="#ffffff" stroke-width="1" d="M146.0,53.0L146.0,7.0C146.0,3.1,142.9,.0,139.0,.0L7.0,.0C3.1,.0,.0,3.1,.0,7.0L.0,53.0C.0,56.9,3.1,60.0,7.0,60.0L139.0,60.0C142.9,60.0,146.0,56.9,146.0,53.0z" fill-rule="nonzero"/><text xml:space="preserve" style="fill:#191919;font-family:Microsoft YaHei;font-size:10.00pt"><tspan x="33.1" y="36.0">IdToken("=")</tspan></text></g><g transform="translate(1026.00,688.50)" id="shape24"><path stroke="#323232" fill="#ffffff" stroke-width="1" d="M100.0,53.0L100.0,7.0C100.0,3.1,96.9,.0,93.0,.0L7.0,.0C3.1,.0,.0,3.1,.0,7.0L.0,53.0C.0,56.9,3.1,60.0,7.0,60.0L93.0,60.0C96.9,60.0,100.0,56.9,100.0,53.0z" fill-rule="nonzero"/><text xml:space="preserve" style="fill:#191919;font-family:Microsoft YaHei;font-size:10.00pt"><tspan x="17.2" y="36.0">BinaryExpr</tspan></text></g><g transform="translate(817.00,628.50)" id="shape25"><path stroke="#191919" fill="none" stroke-width="1" d="M.0,.0L.0,32.0L259.0,32.0L259.0,54.0"/><path stroke="#191919" fill="#191919" stroke-width="1" d="M262.0,54.0L259.0,60.0L256.0,54.0L262.0,54.0" stroke-linecap="round"/></g><g transform="translate(830.00,920.00)" id="shape26"><path stroke="#323232" fill="#ffffff" stroke-width="1" d="M146.0,53.0L146.0,7.0C146.0,3.1,142.9,.0,139.0,.0L7.0,.0C3.1,.0,.0,3.1,.0,7.0L.0,53.0C.0,56.9,3.1,60.0,7.0,60.0L139.0,60.0C142.9,60.0,146.0,56.9,146.0,53.0z" fill-rule="nonzero"/><text xml:space="preserve" style="fill:#191919;font-family:Microsoft YaHei;font-size:10.00pt"><tspan x="54.4" y="36.0">Name</tspan></text></g><g transform="translate(1004.00,920.00)" id="shape27"><path stroke="#323232" fill="#ffffff" stroke-width="1" d="M146.0,53.0L146.0,7.0C146.0,3.1,142.9,.0,139.0,.0L7.0,.0C3.1,.0,.0,3.1,.0,7.0L.0,53.0C.0,56.9,3.1,60.0,7.0,60.0L139.0,60.0C142.9,60.0,146.0,56.9,146.0,53.0z" fill-rule="nonzero"/><text xml:space="preserve" style="fill:#191919;font-family:Microsoft YaHei;font-size:10.00pt"><tspan x="48.1" y="36.0">ASTLeaf</tspan></text></g><g transform="translate(830.00,1021.00)" id="shape28"><path stroke="#323232" fill="#ffffff" stroke-width="1" d="M146.0,53.0L146.0,7.0C146.0,3.1,142.9,.0,139.0,.0L7.0,.0C3.1,.0,.0,3.1,.0,7.0L.0,53.0C.0,56.9,3.1,60.0,7.0,60.0L139.0,60.0C142.9,60.0,146.0,56.9,146.0,53.0z" fill-rule="nonzero"/><text xml:space="preserve" style="fill:#191919;font-family:Microsoft YaHei;font-size:10.00pt"><tspan x="34.3" y="36.0">IdToken("a")</tspan></text></g><g transform="translate(903.00,980.00)" id="shape29"><path stroke="#191919" fill="none" stroke-width="1" d="M.0,.0L.0,35.0"/><path stroke="#191919" fill="#191919" stroke-width="1" d="M3.0,35.0L.0,41.0L-3.0,35.0L3.0,35.0" stroke-linecap="round"/></g><g transform="translate(1004.00,1021.00)" id="shape30"><path stroke="#323232" fill="#ffffff" stroke-width="1" d="M146.0,53.0L146.0,7.0C146.0,3.1,142.9,.0,139.0,.0L7.0,.0C3.1,.0,.0,3.1,.0,7.0L.0,53.0C.0,56.9,3.1,60.0,7.0,60.0L139.0,60.0C142.9,60.0,146.0,56.9,146.0,53.0z" fill-rule="nonzero"/><text xml:space="preserve" style="fill:#191919;font-family:Microsoft YaHei;font-size:10.00pt"><tspan x="33.1" y="36.0">IdToken("+")</tspan></text></g><g transform="translate(1197.00,920.00)" id="shape31"><path stroke="#323232" fill="#ffffff" stroke-width="1" d="M146.0,53.0L146.0,7.0C146.0,3.1,142.9,.0,139.0,.0L7.0,.0C3.1,.0,.0,3.1,.0,7.0L.0,53.0C.0,56.9,3.1,60.0,7.0,60.0L139.0,60.0C142.9,60.0,146.0,56.9,146.0,53.0z" fill-rule="nonzero"/><text xml:space="preserve" style="fill:#191919;font-family:Microsoft YaHei;font-size:10.00pt"><tspan x="28.4" y="36.0">NumberLiteral</tspan></text></g><g transform="translate(1197.00,1021.00)" id="shape32"><path stroke="#323232" fill="#ffffff" stroke-width="1" d="M146.0,53.0L146.0,7.0C146.0,3.1,142.9,.0,139.0,.0L7.0,.0C3.1,.0,.0,3.1,.0,7.0L.0,53.0C.0,56.9,3.1,60.0,7.0,60.0L139.0,60.0C142.9,60.0,146.0,56.9,146.0,53.0z" fill-rule="nonzero"/><text xml:space="preserve" style="fill:#191919;font-family:Microsoft YaHei;font-size:10.00pt"><tspan x="20.1" y="36.0">NumberToken(1)</tspan></text></g><g transform="translate(1077.00,980.00)" id="shape33"><path stroke="#191919" fill="none" stroke-width="1" d="M.0,.0L.0,35.0"/><path stroke="#191919" fill="#191919" stroke-width="1" d="M3.0,35.0L.0,41.0L-3.0,35.0L3.0,35.0" stroke-linecap="round"/></g><g transform="translate(1270.00,980.00)" id="shape34"><path stroke="#191919" fill="none" stroke-width="1" d="M.0,.0L.0,35.0"/><path stroke="#191919" fill="#191919" stroke-width="1" d="M3.0,35.0L.0,41.0L-3.0,35.0L3.0,35.0" stroke-linecap="round"/></g><g transform="translate(1076.00,748.50)" id="shape35"><path stroke="#191919" fill="none" stroke-width="1" d="M.0,.0L.0,166.0"/><path stroke="#191919" fill="#191919" stroke-width="1" d="M3.0,166.0L.0,172.0L-3.0,166.0L3.0,166.0" stroke-linecap="round"/></g><g transform="translate(1076.00,748.50)" id="shape36"><path stroke="#191919" fill="none" stroke-width="1" d="M.0,.0L.0,144.0L-173.0,144.0L-173.0,166.0"/><path stroke="#191919" fill="#191919" stroke-width="1" d="M-170.0,166.0L-173.0,172.0L-176.0,166.0L-170.0,166.0" stroke-linecap="round"/></g><g transform="translate(1076.00,748.50)" id="shape37"><path stroke="#191919" fill="none" stroke-width="1" d="M.0,.0L.0,144.0L193.0,144.0L193.0,166.0"/><path stroke="#191919" fill="#191919" stroke-width="1" d="M196.0,166.0L193.0,172.0L190.0,166.0L196.0,166.0" stroke-linecap="round"/></g><g transform="translate(817.00,748.50)" id="shape38"><path stroke="#191919" fill="none" stroke-width="1" d="M.0,.0L.0,35.0"/><path stroke="#191919" fill="#191919" stroke-width="1" d="M3.0,35.0L.0,41.0L-3.0,35.0L3.0,35.0" stroke-linecap="round"/></g><g transform="translate(408.00,1161.00)" id="shape39"><path stroke="#323232" fill="#ffffff" stroke-width="1" d="M100.0,53.0L100.0,7.0C100.0,3.1,96.9,.0,93.0,.0L7.0,.0C3.1,.0,.0,3.1,.0,7.0L.0,53.0C.0,56.9,3.1,60.0,7.0,60.0L93.0,60.0C96.9,60.0,100.0,56.9,100.0,53.0z" fill-rule="nonzero"/><text xml:space="preserve" style="fill:#191919;font-family:Microsoft YaHei;font-size:10.00pt"><tspan x="17.2" y="36.0">BinaryExpr</tspan></text></g><g transform="translate(212.00,1392.50)" id="shape40"><path stroke="#323232" fill="#ffffff" stroke-width="1" d="M146.0,53.0L146.0,7.0C146.0,3.1,142.9,.0,139.0,.0L7.0,.0C3.1,.0,.0,3.1,.0,7.0L.0,53.0C.0,56.9,3.1,60.0,7.0,60.0L139.0,60.0C142.9,60.0,146.0,56.9,146.0,53.0z" fill-rule="nonzero"/><text xml:space="preserve" style="fill:#191919;font-family:Microsoft YaHei;font-size:10.00pt"><tspan x="54.4" y="36.0">Name</tspan></text></g><g transform="translate(386.00,1392.50)" id="shape41"><path stroke="#323232" fill="#ffffff" stroke-width="1" d="M146.0,53.0L146.0,7.0C146.0,3.1,142.9,.0,139.0,.0L7.0,.0C3.1,.0,.0,3.1,.0,7.0L.0,53.0C.0,56.9,3.1,60.0,7.0,60.0L139.0,60.0C142.9,60.0,146.0,56.9,146.0,53.0z" fill-rule="nonzero"/><text xml:space="preserve" style="fill:#191919;font-family:Microsoft YaHei;font-size:10.00pt"><tspan x="48.1" y="36.0">ASTLeaf</tspan></text></g><g transform="translate(212.00,1493.50)" id="shape42"><path stroke="#323232" fill="#ffffff" stroke-width="1" d="M146.0,53.0L146.0,7.0C146.0,3.1,142.9,.0,139.0,.0L7.0,.0C3.1,.0,.0,3.1,.0,7.0L.0,53.0C.0,56.9,3.1,60.0,7.0,60.0L139.0,60.0C142.9,60.0,146.0,56.9,146.0,53.0z" fill-rule="nonzero"/><text xml:space="preserve" style="fill:#191919;font-family:Microsoft YaHei;font-size:10.00pt"><tspan x="34.3" y="36.0">IdToken("a")</tspan></text></g><g transform="translate(285.00,1452.50)" id="shape43"><path stroke="#191919" fill="none" stroke-width="1" d="M.0,.0L.0,35.0"/><path stroke="#191919" fill="#191919" stroke-width="1" d="M3.0,35.0L.0,41.0L-3.0,35.0L3.0,35.0" stroke-linecap="round"/></g><g transform="translate(386.00,1493.50)" id="shape44"><path stroke="#323232" fill="#ffffff" stroke-width="1" d="M146.0,53.0L146.0,7.0C146.0,3.1,142.9,.0,139.0,.0L7.0,.0C3.1,.0,.0,3.1,.0,7.0L.0,53.0C.0,56.9,3.1,60.0,7.0,60.0L139.0,60.0C142.9,60.0,146.0,56.9,146.0,53.0z" fill-rule="nonzero"/><text xml:space="preserve" style="fill:#191919;font-family:Microsoft YaHei;font-size:10.00pt"><tspan x="33.1" y="36.0">IdToken("=")</tspan></text></g><g transform="translate(674.00,1392.50)" id="shape45"><path stroke="#323232" fill="#ffffff" stroke-width="1" d="M146.0,53.0L146.0,7.0C146.0,3.1,142.9,.0,139.0,.0L7.0,.0C3.1,.0,.0,3.1,.0,7.0L.0,53.0C.0,56.9,3.1,60.0,7.0,60.0L139.0,60.0C142.9,60.0,146.0,56.9,146.0,53.0z" fill-rule="nonzero"/><text xml:space="preserve" style="fill:#191919;font-family:Microsoft YaHei;font-size:10.00pt"><tspan x="35.8" y="36.0">PrimaryExpr</tspan></text></g><g transform="translate(459.00,1452.50)" id="shape46"><path stroke="#191919" fill="none" stroke-width="1" d="M.0,.0L.0,35.0"/><path stroke="#191919" fill="#191919" stroke-width="1" d="M3.0,35.0L.0,41.0L-3.0,35.0L3.0,35.0" stroke-linecap="round"/></g><g transform="translate(807.00,1493.50)" id="shape47"><path stroke="#323232" fill="#ffffff" stroke-width="1" d="M146.0,53.0L146.0,7.0C146.0,3.1,142.9,.0,139.0,.0L7.0,.0C3.1,.0,.0,3.1,.0,7.0L.0,53.0C.0,56.9,3.1,60.0,7.0,60.0L139.0,60.0C142.9,60.0,146.0,56.9,146.0,53.0z" fill-rule="nonzero"/><text xml:space="preserve" style="fill:#191919;font-family:Microsoft YaHei;font-size:10.00pt"><tspan x="38.6" y="36.0">Arguments</tspan></text></g><g transform="translate(596.50,1493.50)" id="shape48"><path stroke="#323232" fill="#ffffff" stroke-width="1" d="M146.0,53.0L146.0,7.0C146.0,3.1,142.9,.0,139.0,.0L7.0,.0C3.1,.0,.0,3.1,.0,7.0L.0,53.0C.0,56.9,3.1,60.0,7.0,60.0L139.0,60.0C142.9,60.0,146.0,56.9,146.0,53.0z" fill-rule="nonzero"/><text xml:space="preserve" style="fill:#191919;font-family:Microsoft YaHei;font-size:10.00pt"><tspan x="54.4" y="36.0">Name</tspan></text></g><g transform="translate(596.50,1594.50)" id="shape49"><path stroke="#323232" fill="#ffffff" stroke-width="1" d="M146.0,53.0L146.0,7.0C146.0,3.1,142.9,.0,139.0,.0L7.0,.0C3.1,.0,.0,3.1,.0,7.0L.0,53.0C.0,56.9,3.1,60.0,7.0,60.0L139.0,60.0C142.9,60.0,146.0,56.9,146.0,53.0z" fill-rule="nonzero"/><text xml:space="preserve" style="fill:#191919;font-family:Microsoft YaHei;font-size:10.00pt"><tspan x="13.0" y="36.0">IdToken("addOne")</tspan></text></g><g transform="translate(669.50,1553.50)" id="shape50"><path stroke="#191919" fill="none" stroke-width="1" d="M.0,.0L.0,35.0"/><path stroke="#191919" fill="#191919" stroke-width="1" d="M3.0,35.0L.0,41.0L-3.0,35.0L3.0,35.0" stroke-linecap="round"/></g><g transform="translate(747.00,1452.50)" id="shape51"><path stroke="#191919" fill="none" stroke-width="1" d="M.0,.0L.0,28.0L-77.5,28.0L-77.5,35.0"/><path stroke="#191919" fill="#191919" stroke-width="1" d="M-74.5,35.0L-77.5,41.0L-80.5,35.0L-74.5,35.0" stroke-linecap="round"/></g><g transform="translate(747.00,1452.50)" id="shape52"><path stroke="#191919" fill="none" stroke-width="1" d="M.0,.0L.0,28.0L133.0,28.0L133.0,35.0"/><path stroke="#191919" fill="#191919" stroke-width="1" d="M136.0,35.0L133.0,41.0L130.0,35.0L136.0,35.0" stroke-linecap="round"/></g><g transform="translate(807.00,1594.50)" id="shape53"><path stroke="#323232" fill="#ffffff" stroke-width="1" d="M146.0,53.0L146.0,7.0C146.0,3.1,142.9,.0,139.0,.0L7.0,.0C3.1,.0,.0,3.1,.0,7.0L.0,53.0C.0,56.9,3.1,60.0,7.0,60.0L139.0,60.0C142.9,60.0,146.0,56.9,146.0,53.0z" fill-rule="nonzero"/><text xml:space="preserve" style="fill:#191919;font-family:Microsoft YaHei;font-size:10.00pt"><tspan x="46.0" y="36.0">ArrayList</tspan></text></g><g transform="translate(880.00,1553.50)" id="shape54"><path stroke="#191919" fill="none" stroke-width="1" d="M.0,.0L.0,35.0"/><path stroke="#191919" fill="#191919" stroke-width="1" d="M3.0,35.0L.0,41.0L-3.0,35.0L3.0,35.0" stroke-linecap="round"/></g><g transform="translate(807.00,1702.00)" id="shape55"><path stroke="#323232" fill="#ffffff" stroke-width="1" d="M146.0,53.0L146.0,7.0C146.0,3.1,142.9,.0,139.0,.0L7.0,.0C3.1,.0,.0,3.1,.0,7.0L.0,53.0C.0,56.9,3.1,60.0,7.0,60.0L139.0,60.0C142.9,60.0,146.0,56.9,146.0,53.0z" fill-rule="nonzero"/><text xml:space="preserve" style="fill:#191919;font-family:Microsoft YaHei;font-size:10.00pt"><tspan x="28.4" y="36.0">NumberLiteral</tspan></text></g><g transform="translate(807.00,1803.00)" id="shape56"><path stroke="#323232" fill="#ffffff" stroke-width="1" d="M146.0,53.0L146.0,7.0C146.0,3.1,142.9,.0,139.0,.0L7.0,.0C3.1,.0,.0,3.1,.0,7.0L.0,53.0C.0,56.9,3.1,60.0,7.0,60.0L139.0,60.0C142.9,60.0,146.0,56.9,146.0,53.0z" fill-rule="nonzero"/><text xml:space="preserve" style="fill:#191919;font-family:Microsoft YaHei;font-size:10.00pt"><tspan x="16.3" y="36.0">NumberToken(10)</tspan></text></g><g transform="translate(880.00,1654.50)" id="shape57"><path stroke="#191919" fill="none" stroke-width="1" d="M.0,.0L.0,41.5"/><path stroke="#191919" fill="#191919" stroke-width="1" d="M3.0,41.5L.0,47.5L-3.0,41.5L3.0,41.5" stroke-linecap="round"/></g><g transform="translate(880.00,1762.00)" id="shape58"><path stroke="#191919" fill="none" stroke-width="1" d="M.0,.0L.0,35.0"/><path stroke="#191919" fill="#191919" stroke-width="1" d="M3.0,35.0L.0,41.0L-3.0,35.0L3.0,35.0" stroke-linecap="round"/></g><g transform="translate(458.00,1221.00)" id="shape59"><path stroke="#191919" fill="none" stroke-width="1" d="M.0,.0L.0,143.0L-173.0,143.0L-173.0,165.5"/><path stroke="#191919" fill="#191919" stroke-width="1" d="M-170.0,165.5L-173.0,171.5L-176.0,165.5L-170.0,165.5" stroke-linecap="round"/></g><g transform="translate(458.00,1221.00)" id="shape60"><path stroke="#191919" fill="none" stroke-width="1" d="M.0,.0L.0,85.8L1.0,85.8L1.0,165.5"/><path stroke="#191919" fill="#191919" stroke-width="1" d="M4.0,165.5L1.0,171.5L-2.0,165.5L4.0,165.5" stroke-linecap="round"/></g><g transform="translate(458.00,1221.00)" id="shape61"><path stroke="#191919" fill="none" stroke-width="1" d="M.0,.0L.0,143.0L289.0,143.0L289.0,165.5"/><path stroke="#191919" fill="#191919" stroke-width="1" d="M292.0,165.5L289.0,171.5L286.0,165.5L292.0,165.5" stroke-linecap="round"/></g><g transform="translate(308.00,1992.75)" id="shape62"><path stroke="#323232" fill="#ffffff" stroke-width="1" d="M146.0,53.0L146.0,7.0C146.0,3.1,142.9,.0,139.0,.0L7.0,.0C3.1,.0,.0,3.1,.0,7.0L.0,53.0C.0,56.9,3.1,60.0,7.0,60.0L139.0,60.0C142.9,60.0,146.0,56.9,146.0,53.0z" fill-rule="nonzero"/><text xml:space="preserve" style="fill:#191919;font-family:Microsoft YaHei;font-size:10.00pt"><tspan x="54.4" y="36.0">Name</tspan></text></g><g transform="translate(308.00,2093.75)" id="shape63"><path stroke="#323232" fill="#ffffff" stroke-width="1" d="M146.0,53.0L146.0,7.0C146.0,3.1,142.9,.0,139.0,.0L7.0,.0C3.1,.0,.0,3.1,.0,7.0L.0,53.0C.0,56.9,3.1,60.0,7.0,60.0L139.0,60.0C142.9,60.0,146.0,56.9,146.0,53.0z" fill-rule="nonzero"/><text xml:space="preserve" style="fill:#191919;font-family:Microsoft YaHei;font-size:10.00pt"><tspan x="34.3" y="36.0">IdToken("a")</tspan></text></g><g transform="translate(381.00,2052.75)" id="shape64"><path stroke="#191919" fill="none" stroke-width="1" d="M.0,.0L.0,35.0"/><path stroke="#191919" fill="#191919" stroke-width="1" d="M3.0,35.0L.0,41.0L-3.0,35.0L3.0,35.0" stroke-linecap="round"/></g><g transform="matrix(0.00,1.00,-1.00,0.00,419.3,187.0)" id="shape65"><path stroke="#191919" fill="#ffffff" stroke-width="1" d="M70.0,121.3L112.0,79.3M.0,.0L70.0,.0L70.0,242.7L.0,242.7L.0,.0z" fill-rule="nonzero"/><path stroke="#191919" fill="#191919" stroke-width="1" d="M114.8,76.5C116.4,78.1,116.4,80.6,114.8,82.2C113.3,83.7,110.7,83.7,109.2,82.2C107.6,80.6,107.6,78.1,109.2,76.5C110.7,75.0,113.3,75.0,114.8,76.5" stroke-linecap="round"/><text xml:space="preserve" transform="matrix(0.00,-1.00,1.00,0.00,-86.3,156.3)" style="fill:#454545;font-family:Microsoft YaHei;font-size:10.00pt"><tspan x="-78.0" y="109.3">def addOne(a) {</tspan><tspan x="-78.0" y="127.3">a = a + 1;</tspan><tspan x="-78.0" y="145.3">}</tspan></text></g><g transform="matrix(0.00,1.00,-1.00,0.00,454.3,1070.0)" id="shape66"><path stroke="#191919" fill="#ffffff" stroke-width="1" d="M34.0,121.3L76.0,79.3M.0,.0L34.0,.0L34.0,242.7L.0,242.7L.0,.0z" fill-rule="nonzero"/><path stroke="#191919" fill="#191919" stroke-width="1" d="M78.8,76.5C80.4,78.1,80.4,80.6,78.8,82.2C77.3,83.7,74.7,83.7,73.2,82.2C71.6,80.6,71.6,78.1,73.2,76.5C74.7,75.0,77.3,75.0,78.8,76.5" stroke-linecap="round"/><text xml:space="preserve" transform="matrix(0.00,-1.00,1.00,0.00,-104.3,138.3)" style="fill:#454545;font-family:Microsoft YaHei;font-size:10.00pt"><tspan x="-96.0" y="127.3">a = addOne(10);</tspan></text></g><g transform="matrix(0.00,1.00,-1.00,0.00,394.3,1895.2)" id="shape67"><path stroke="#191919" fill="#ffffff" stroke-width="1" d="M34.0,121.3L76.0,79.3M.0,.0L34.0,.0L34.0,242.7L.0,242.7L.0,.0z" fill-rule="nonzero"/><path stroke="#191919" fill="#191919" stroke-width="1" d="M78.8,76.5C80.4,78.1,80.4,80.6,78.8,82.2C77.3,83.7,74.7,83.7,73.2,82.2C71.6,80.6,71.6,78.1,73.2,76.5C74.7,75.0,77.3,75.0,78.8,76.5" stroke-linecap="round"/><text xml:space="preserve" transform="matrix(0.00,-1.00,1.00,0.00,-104.3,138.3)" style="fill:#454545;font-family:Microsoft YaHei;font-size:10.00pt"><tspan x="-96.0" y="127.3">a;</tspan></text></g></g></svg>