<svg height="3185" xmlns:ev="http://www.w3.org/2001/xml-events" width="4500" xmlns="http://www.w3.org/2000/svg" viewBox="0 0 4500 3185" xmlns:xlink="http://www.w3.org/1999/xlink"><defs/><g transform="translate(5.5,5.5)" id="page1"><rect x="0" fill="#ffffff" height="3175" width="4490" y="0"/><g transform="translate(2754.00,157.00)" id="shape1"><path stroke="#323232" fill="#ffffff" stroke-width="1" d="M100.0,63.0L100.0,7.0C100.0,3.1,96.9,.0,93.0,.0L7.0,.0C3.1,.0,.0,3.1,.0,7.0L.0,63.0C.0,66.9,3.1,70.0,7.0,70.0L93.0,70.0C96.9,70.0,100.0,66.9,100.0,63.0z" fill-rule="nonzero"/><text xml:space="preserve" style="fill:#191919;font-family:Microsoft YaHei;font-size:10.00pt"><tspan x="22.9" y="23.0">program </tspan><tspan x="30.8" y="41.0">Parser</tspan><tspan x="17.4" y="59.0">elements[]</tspan></text></g><g transform="translate(2516.04,416.00)" id="shape2"><path stroke="#323232" fill="#ffffff" stroke-width="1" d="M100.0,53.0L100.0,7.0C100.0,3.1,96.9,.0,93.0,.0L7.0,.0C3.1,.0,.0,3.1,.0,7.0L.0,53.0C.0,56.9,3.1,60.0,7.0,60.0L93.0,60.0C96.9,60.0,100.0,56.9,100.0,53.0z" fill-rule="nonzero"/><text xml:space="preserve" style="fill:#191919;font-family:Microsoft YaHei;font-size:10.00pt"><tspan x="28.7" y="27.0">OrTree</tspan><tspan x="23.3" y="45.0">parsers[]</tspan></text></g><g transform="translate(2713.00,529.00)" id="shape3"><path stroke="#323232" fill="#ffffff" stroke-width="1" d="M182.0,53.0L182.0,7.0C182.0,3.1,178.9,.0,175.0,.0L7.0,.0C3.1,.0,.0,3.1,.0,7.0L.0,53.0C.0,56.9,3.1,60.0,7.0,60.0L175.0,60.0C178.9,60.0,182.0,56.9,182.0,53.0z" fill-rule="nonzero"/><text xml:space="preserve" style="fill:#191919;font-family:Microsoft YaHei;font-size:10.00pt"><tspan x="19.9" y="36.0">Parser(NullStmnt.class)</tspan></text></g><g transform="translate(2516.04,529.00)" id="shape4"><path stroke="#323232" fill="#ffffff" stroke-width="1" d="M100.0,63.0L100.0,7.0C100.0,3.1,96.9,.0,93.0,.0L7.0,.0C3.1,.0,.0,3.1,.0,7.0L.0,63.0C.0,66.9,3.1,70.0,7.0,70.0L93.0,70.0C96.9,70.0,100.0,66.9,100.0,63.0z" fill-rule="nonzero"/><text xml:space="preserve" style="fill:#191919;font-family:Microsoft YaHei;font-size:10.00pt"><tspan x="18.7" y="23.0">statement </tspan><tspan x="30.8" y="41.0">Parser</tspan><tspan x="17.4" y="59.0">elements[]</tspan></text></g><g transform="translate(3258.02,411.00)" id="shape5"><path stroke="#323232" fill="#ffffff" stroke-width="1" d="M100.0,53.0L100.0,7.0C100.0,3.1,96.9,.0,93.0,.0L7.0,.0C3.1,.0,.0,3.1,.0,7.0L.0,53.0C.0,56.9,3.1,60.0,7.0,60.0L93.0,60.0C96.9,60.0,100.0,56.9,100.0,53.0z" fill-rule="nonzero"/><text xml:space="preserve" style="fill:#191919;font-family:Microsoft YaHei;font-size:10.00pt"><tspan x="36.8" y="27.0">Skip</tspan><tspan x="29.2" y="45.0">tokens</tspan></text></g><g transform="translate(2804.00,227.00)" id="shape6"><path stroke="#191919" fill="none" stroke-width="1" d="M.0,.0L.0,161.0L-238.0,161.0L-238.0,183.0"/><path stroke="#191919" fill="#191919" stroke-width="1" d="M-235.0,183.0L-238.0,189.0L-241.0,183.0L-235.0,183.0" stroke-linecap="round"/></g><g transform="translate(2804.00,227.00)" id="shape7"><path stroke="#191919" fill="none" stroke-width="1" d="M.0,.0L.0,160.0L504.0,160.0L504.0,178.0"/><path stroke="#191919" fill="#191919" stroke-width="1" d="M507.0,178.0L504.0,184.0L501.0,178.0L507.0,178.0" stroke-linecap="round"/></g><g transform="translate(2566.04,476.00)" id="shape8"><path stroke="#191919" fill="none" stroke-width="1" d="M.0,.0L.0,47.0"/><path stroke="#191919" fill="#191919" stroke-width="1" d="M3.0,47.0L.0,53.0L-3.0,47.0L3.0,47.0" stroke-linecap="round"/></g><g transform="translate(2566.04,476.00)" id="shape9"><path stroke="#191919" fill="none" stroke-width="1" d="M.0,.0L.0,28.0L238.0,28.0L238.0,47.0"/><path stroke="#191919" fill="#191919" stroke-width="1" d="M241.0,47.0L238.0,53.0L235.0,47.0L241.0,47.0" stroke-linecap="round"/></g><g transform="translate(2516.04,661.36)" id="shape10"><path stroke="#323232" fill="#ffffff" stroke-width="1" d="M100.0,53.0L100.0,7.0C100.0,3.1,96.9,.0,93.0,.0L7.0,.0C3.1,.0,.0,3.1,.0,7.0L.0,53.0C.0,56.9,3.1,60.0,7.0,60.0L93.0,60.0C96.9,60.0,100.0,56.9,100.0,53.0z" fill-rule="nonzero"/><text xml:space="preserve" style="fill:#191919;font-family:Microsoft YaHei;font-size:10.00pt"><tspan x="28.7" y="27.0">OrTree</tspan><tspan x="23.3" y="45.0">parsers[]</tspan></text></g><g transform="translate(2566.04,599.00)" id="shape11"><path stroke="#191919" fill="none" stroke-width="1" d="M.0,.0L.0,56.0"/><path stroke="#191919" fill="#191919" stroke-width="1" d="M3.0,56.0L.0,62.0L-3.0,56.0L3.0,56.0" stroke-linecap="round"/></g><g transform="translate(1557.23,775.00)" id="shape12"><path stroke="#323232" fill="#ffffff" stroke-width="1" d="M164.5,63.0L164.5,7.0C164.5,3.1,161.4,.0,157.5,.0L7.0,.0C3.1,.0,.0,3.1,.0,7.0L.0,63.0C.0,66.9,3.1,70.0,7.0,70.0L157.5,70.0C161.4,70.0,164.5,66.9,164.5,63.0z" fill-rule="nonzero"/><text xml:space="preserve" style="fill:#191919;font-family:Microsoft YaHei;font-size:10.00pt"><tspan x="19.7" y="32.0">Parser(IfStmnt.class)</tspan><tspan x="49.6" y="50.0">elements[]</tspan></text></g><g transform="translate(2828.52,757.00)" id="shape13"><path stroke="#323232" fill="#ffffff" stroke-width="1" d="M173.5,63.0L173.5,7.0C173.5,3.1,170.4,.0,166.5,.0L7.0,.0C3.1,.0,.0,3.1,.0,7.0L.0,63.0C.0,66.9,3.1,70.0,7.0,70.0L166.5,70.0C170.4,70.0,173.5,66.9,173.5,63.0z" fill-rule="nonzero"/><text xml:space="preserve" style="fill:#191919;font-family:Microsoft YaHei;font-size:10.00pt"><tspan x="10.7" y="32.0">Parser(WhileStmnt.class)</tspan><tspan x="54.1" y="50.0">elements[]</tspan></text></g><g transform="translate(3383.00,757.00)" id="shape14"><path stroke="#323232" fill="#ffffff" stroke-width="1" d="M217.0,63.0L217.0,7.0C217.0,3.1,213.9,.0,210.0,.0L7.0,.0C3.1,.0,.0,3.1,.0,7.0L.0,63.0C.0,66.9,3.1,70.0,7.0,70.0L210.0,70.0C213.9,70.0,217.0,66.9,217.0,63.0z" fill-rule="nonzero"/><text xml:space="preserve" style="fill:#191919;font-family:Microsoft YaHei;font-size:10.00pt"><tspan x="88.1" y="23.0">simple</tspan><tspan x="31.6" y="41.0">Parser(PrimaryExpr.class)</tspan><tspan x="75.9" y="59.0">elements[]</tspan></text></g><g transform="translate(824.00,942.50)" id="shape15"><path stroke="#323232" fill="#ffffff" stroke-width="1" d="M164.5,63.0L164.5,7.0C164.5,3.1,161.4,.0,157.5,.0L7.0,.0C3.1,.0,.0,3.1,.0,7.0L.0,63.0C.0,66.9,3.1,70.0,7.0,70.0L157.5,70.0C161.4,70.0,164.5,66.9,164.5,63.0z" fill-rule="nonzero"/><text xml:space="preserve" style="fill:#191919;font-family:Microsoft YaHei;font-size:10.00pt"><tspan x="69.1" y="32.0">Skip</tspan><tspan x="61.5" y="50.0">tokens</tspan></text></g><g transform="translate(1039.00,942.50)" id="shape16"><path stroke="#323232" fill="#ffffff" stroke-width="1" d="M164.5,63.0L164.5,7.0C164.5,3.1,161.4,.0,157.5,.0L7.0,.0C3.1,.0,.0,3.1,.0,7.0L.0,63.0C.0,66.9,3.1,70.0,7.0,70.0L157.5,70.0C161.4,70.0,164.5,66.9,164.5,63.0z" fill-rule="nonzero"/><text xml:space="preserve" style="fill:#191919;font-family:Microsoft YaHei;font-size:10.00pt"><tspan x="68.7" y="32.0">Tree</tspan><tspan x="62.9" y="50.0">parser</tspan></text></g><g transform="translate(1070.01,1074.50)" id="shape17"><path stroke="#323232" fill="#ffffff" stroke-width="1" d="M100.0,63.0L100.0,7.0C100.0,3.1,96.9,.0,93.0,.0L7.0,.0C3.1,.0,.0,3.1,.0,7.0L.0,63.0C.0,66.9,3.1,70.0,7.0,70.0L93.0,70.0C96.9,70.0,100.0,66.9,100.0,63.0z" fill-rule="nonzero"/><text xml:space="preserve" style="fill:#191919;font-family:Microsoft YaHei;font-size:10.00pt"><tspan x="36.4" y="23.0">expr</tspan><tspan x="30.8" y="41.0">Parser</tspan><tspan x="17.4" y="59.0">elements[]</tspan></text></g><g transform="translate(2566.04,721.36)" id="shape18"><path stroke="#191919" fill="none" stroke-width="1" d="M.0,.0L.0,28.0L-84.0,28.0C-84.0,24.7,-86.7,22.0,-90.0,22.0C-93.4,22.0,-96.0,24.7,-96.0,28.0L-519.8,28.0C-519.8,24.7,-522.5,22.0,-525.8,22.0C-529.1,22.0,-531.8,24.7,-531.8,28.0L-927.0,28.0L-927.0,48.0"/><path stroke="#191919" fill="#191919" stroke-width="1" d="M-924.0,48.0L-927.0,54.0L-930.0,48.0L-924.0,48.0" stroke-linecap="round"/></g><g transform="translate(1639.49,845.00)" id="shape19"><path stroke="#191919" fill="none" stroke-width="1" d="M.0,.0L.0,69.0L-733.0,69.0L-733.0,91.0"/><path stroke="#191919" fill="#191919" stroke-width="1" d="M-730.0,91.0L-733.0,97.0L-736.0,91.0L-730.0,91.0" stroke-linecap="round"/></g><g transform="translate(1639.49,845.00)" id="shape20"><path stroke="#191919" fill="none" stroke-width="1" d="M.0,.0L.0,69.0L-518.0,69.0L-518.0,91.0"/><path stroke="#191919" fill="#191919" stroke-width="1" d="M-515.0,91.0L-518.0,97.0L-521.0,91.0L-515.0,91.0" stroke-linecap="round"/></g><g transform="translate(2566.04,721.36)" id="shape21"><path stroke="#191919" fill="none" stroke-width="1" d="M.0,.0L.0,28.0L348.0,28.0L348.0,30.0"/><path stroke="#191919" fill="#191919" stroke-width="1" d="M351.0,30.0L348.0,36.0L345.0,30.0L351.0,30.0" stroke-linecap="round"/></g><g transform="translate(2566.04,721.36)" id="shape22"><path stroke="#191919" fill="none" stroke-width="1" d="M.0,.0L.0,28.0L408.0,28.0L408.0,-120.0L925.0,-120.0L925.0,30.0"/><path stroke="#191919" fill="#191919" stroke-width="1" d="M928.0,30.0L925.0,36.0L922.0,30.0L928.0,30.0" stroke-linecap="round"/></g><g transform="translate(1557.75,942.50)" id="shape23"><path stroke="#323232" fill="#ffffff" stroke-width="1" d="M164.5,63.0L164.5,7.0C164.5,3.1,161.4,.0,157.5,.0L7.0,.0C3.1,.0,.0,3.1,.0,7.0L.0,63.0C.0,66.9,3.1,70.0,7.0,70.0L157.5,70.0C161.4,70.0,164.5,66.9,164.5,63.0z" fill-rule="nonzero"/><text xml:space="preserve" style="fill:#191919;font-family:Microsoft YaHei;font-size:10.00pt"><tspan x="68.7" y="32.0">Tree</tspan><tspan x="62.9" y="50.0">parser</tspan></text></g><g transform="translate(1558.23,1100.75)" id="shape24"><path stroke="#323232" fill="#ffffff" stroke-width="1" d="M164.5,81.0L164.5,7.0C164.5,3.1,161.4,.0,157.5,.0L7.0,.0C3.1,.0,.0,3.1,.0,7.0L.0,81.0C.0,84.9,3.1,88.0,7.0,88.0L157.5,88.0C161.4,88.0,164.5,84.9,164.5,81.0z" fill-rule="nonzero"/><text xml:space="preserve" style="fill:#191919;font-family:Microsoft YaHei;font-size:10.00pt"><tspan x="65.5" y="32.0">block</tspan><tspan x="7.2" y="50.0">Parser(BlockStmnt.class)</tspan><tspan x="49.6" y="68.0">elements[]</tspan></text></g><g transform="translate(2181.03,942.75)" id="shape25"><path stroke="#323232" fill="#ffffff" stroke-width="1" d="M164.5,63.0L164.5,7.0C164.5,3.1,161.4,.0,157.5,.0L7.0,.0C3.1,.0,.0,3.1,.0,7.0L.0,63.0C.0,66.9,3.1,70.0,7.0,70.0L157.5,70.0C161.4,70.0,164.5,66.9,164.5,63.0z" fill-rule="nonzero"/><text xml:space="preserve" style="fill:#191919;font-family:Microsoft YaHei;font-size:10.00pt"><tspan x="60.5" y="32.0">Repeat</tspan><tspan x="62.9" y="50.0">parser</tspan></text></g><g transform="translate(2212.04,1176.75)" id="shape26"><path stroke="#323232" fill="#ffffff" stroke-width="1" d="M100.0,63.0L100.0,7.0C100.0,3.1,96.9,.0,93.0,.0L7.0,.0C3.1,.0,.0,3.1,.0,7.0L.0,63.0C.0,66.9,3.1,70.0,7.0,70.0L93.0,70.0C96.9,70.0,100.0,66.9,100.0,63.0z" fill-rule="nonzero"/><text xml:space="preserve" style="fill:#191919;font-family:Microsoft YaHei;font-size:10.00pt"><tspan x="30.8" y="32.0">Parser</tspan><tspan x="17.4" y="50.0">elements[]</tspan></text></g><g transform="translate(855.01,1074.50)" id="shape27"><path stroke="#323232" fill="#ffffff" stroke-width="1" d="M100.0,63.0L100.0,7.0C100.0,3.1,96.9,.0,93.0,.0L7.0,.0C3.1,.0,.0,3.1,.0,7.0L.0,63.0C.0,66.9,3.1,70.0,7.0,70.0L93.0,70.0C96.9,70.0,100.0,66.9,100.0,63.0z" fill-rule="nonzero"/><text xml:space="preserve" style="fill:#191919;font-family:Microsoft YaHei;font-size:10.00pt"><tspan x="33.0" y="41.0">“if”</tspan></text></g><g transform="translate(1037.27,1228.00)" id="shape28"><path stroke="#323232" fill="#ffffff" stroke-width="1" d="M164.5,63.0L164.5,7.0C164.5,3.1,161.4,.0,157.5,.0L7.0,.0C3.1,.0,.0,3.1,.0,7.0L.0,63.0C.0,66.9,3.1,70.0,7.0,70.0L157.5,70.0C161.4,70.0,164.5,66.9,164.5,63.0z" fill-rule="nonzero"/><text xml:space="preserve" style="fill:#191919;font-family:Microsoft YaHei;font-size:10.00pt"><tspan x="68.8" y="32.0">Expr</tspan><tspan x="30.9" y="50.0">parser operators</tspan></text></g><g transform="translate(906.26,1012.50)" id="shape29"><path stroke="#191919" fill="none" stroke-width="1" d="M.0,.0L.0,56.0"/><path stroke="#191919" fill="#191919" stroke-width="1" d="M3.0,56.0L.0,62.0L-3.0,56.0L3.0,56.0" stroke-linecap="round"/></g><g transform="translate(1639.49,845.00)" id="shape30"><path stroke="#191919" fill="none" stroke-width="1" d="M.0,.0L.0,91.0"/><path stroke="#191919" fill="#191919" stroke-width="1" d="M3.0,91.0L.0,97.0L-3.0,91.0L3.0,91.0" stroke-linecap="round"/></g><g transform="translate(1639.49,845.00)" id="shape31"><path stroke="#191919" fill="none" stroke-width="1" d="M.0,.0L.0,69.0L394.8,69.0C394.8,65.7,397.5,63.0,400.8,63.0C404.1,63.0,406.8,65.7,406.8,69.0L624.0,69.0L624.0,91.0"/><path stroke="#191919" fill="#191919" stroke-width="1" d="M627.0,91.0L624.0,97.0L621.0,91.0L627.0,91.0" stroke-linecap="round"/></g><g transform="translate(1640.01,1012.50)" id="shape32"><path stroke="#191919" fill="none" stroke-width="1" d="M.0,.0L.0,82.0"/><path stroke="#191919" fill="#191919" stroke-width="1" d="M3.0,82.0L.0,88.0L-3.0,82.0L3.0,82.0" stroke-linecap="round"/></g><g transform="translate(2263.29,1012.75)" id="shape33"><path stroke="#191919" fill="none" stroke-width="1" d="M.0,.0L.0,158.0"/><path stroke="#191919" fill="#191919" stroke-width="1" d="M3.0,158.0L.0,164.0L-3.0,158.0L3.0,158.0" stroke-linecap="round"/></g><g transform="translate(1120.01,1144.50)" id="shape34"><path stroke="#191919" fill="none" stroke-width="1" d="M.0,.0L.0,78.0"/><path stroke="#191919" fill="#191919" stroke-width="1" d="M3.0,78.0L.0,84.0L-3.0,78.0L3.0,78.0" stroke-linecap="round"/></g><g transform="translate(1068.53,1355.00)" id="shape35"><path stroke="#323232" fill="#ffffff" stroke-width="1" d="M100.0,63.0L100.0,7.0C100.0,3.1,96.9,.0,93.0,.0L7.0,.0C3.1,.0,.0,3.1,.0,7.0L.0,63.0C.0,66.9,3.1,70.0,7.0,70.0L93.0,70.0C96.9,70.0,100.0,66.9,100.0,63.0z" fill-rule="nonzero"/><text xml:space="preserve" style="fill:#191919;font-family:Microsoft YaHei;font-size:10.00pt"><tspan x="31.9" y="23.0">factor</tspan><tspan x="30.8" y="41.0">Parser</tspan><tspan x="17.4" y="59.0">elements[]</tspan></text></g><g transform="translate(761.02,1747.50)" id="shape36"><path stroke="#323232" fill="#ffffff" stroke-width="1" d="M164.5,63.0L164.5,7.0C164.5,3.1,161.4,.0,157.5,.0L7.0,.0C3.1,.0,.0,3.1,.0,7.0L.0,63.0C.0,66.9,3.1,70.0,7.0,70.0L157.5,70.0C161.4,70.0,164.5,66.9,164.5,63.0z" fill-rule="nonzero"/><text xml:space="preserve" style="fill:#191919;font-family:Microsoft YaHei;font-size:10.00pt"><tspan x="69.1" y="32.0">Skip</tspan><tspan x="61.5" y="50.0">tokens</tspan></text></g><g transform="translate(793.03,1879.50)" id="shape37"><path stroke="#323232" fill="#ffffff" stroke-width="1" d="M100.0,63.0L100.0,7.0C100.0,3.1,96.9,.0,93.0,.0L7.0,.0C3.1,.0,.0,3.1,.0,7.0L.0,63.0C.0,66.9,3.1,70.0,7.0,70.0L93.0,70.0C96.9,70.0,100.0,66.9,100.0,63.0z" fill-rule="nonzero"/><text xml:space="preserve" style="fill:#191919;font-family:Microsoft YaHei;font-size:10.00pt"><tspan x="34.2" y="41.0">“-”</tspan></text></g><g transform="translate(843.28,1817.50)" id="shape38"><path stroke="#191919" fill="none" stroke-width="1" d="M.0,.0L.0,56.0"/><path stroke="#191919" fill="#191919" stroke-width="1" d="M3.0,56.0L.0,62.0L-3.0,56.0L3.0,56.0" stroke-linecap="round"/></g><g transform="translate(1068.53,1479.00)" id="shape39"><path stroke="#323232" fill="#ffffff" stroke-width="1" d="M100.0,53.0L100.0,7.0C100.0,3.1,96.9,.0,93.0,.0L7.0,.0C3.1,.0,.0,3.1,.0,7.0L.0,53.0C.0,56.9,3.1,60.0,7.0,60.0L93.0,60.0C96.9,60.0,100.0,56.9,100.0,53.0z" fill-rule="nonzero"/><text xml:space="preserve" style="fill:#191919;font-family:Microsoft YaHei;font-size:10.00pt"><tspan x="28.7" y="27.0">OrTree</tspan><tspan x="23.3" y="45.0">parsers[]</tspan></text></g><g transform="translate(865.02,1627.50)" id="shape40"><path stroke="#323232" fill="#ffffff" stroke-width="1" d="M194.0,63.0L194.0,7.0C194.0,3.1,190.9,.0,187.0,.0L7.0,.0C3.1,.0,.0,3.1,.0,7.0L.0,63.0C.0,66.9,3.1,70.0,7.0,70.0L187.0,70.0C190.9,70.0,194.0,66.9,194.0,63.0z" fill-rule="nonzero"/><text xml:space="preserve" style="fill:#191919;font-family:Microsoft YaHei;font-size:10.00pt"><tspan x="15.9" y="32.0">Parser(NegativeExpr.class)</tspan><tspan x="64.4" y="50.0">elements[]</tspan></text></g><g transform="translate(1119.53,1298.00)" id="shape41"><path stroke="#191919" fill="none" stroke-width="1" d="M.0,.0L.0,51.0"/><path stroke="#191919" fill="#191919" stroke-width="1" d="M3.0,51.0L.0,57.0L-3.0,51.0L3.0,51.0" stroke-linecap="round"/></g><g transform="translate(1118.53,1425.00)" id="shape42"><path stroke="#191919" fill="none" stroke-width="1" d="M.0,.0L.0,48.0"/><path stroke="#191919" fill="#191919" stroke-width="1" d="M3.0,48.0L.0,54.0L-3.0,48.0L3.0,48.0" stroke-linecap="round"/></g><g transform="translate(1118.53,1539.00)" id="shape43"><path stroke="#191919" fill="none" stroke-width="1" d="M.0,.0L.0,60.0L-156.0,60.0L-156.0,82.0"/><path stroke="#191919" fill="#191919" stroke-width="1" d="M-153.0,82.0L-156.0,88.0L-159.0,82.0L-153.0,82.0" stroke-linecap="round"/></g><g transform="translate(962.02,1697.50)" id="shape44"><path stroke="#191919" fill="none" stroke-width="1" d="M.0,.0L.0,28.0L-119.0,28.0L-119.0,44.0"/><path stroke="#191919" fill="#191919" stroke-width="1" d="M-116.0,44.0L-119.0,50.0L-122.0,44.0L-116.0,44.0" stroke-linecap="round"/></g><g transform="translate(968.28,1870.50)" id="shape45"><path stroke="#323232" fill="#ffffff" stroke-width="1" d="M181.2,81.0L181.2,7.0C181.2,3.1,178.1,.0,174.2,.0L7.0,.0C3.1,.0,.0,3.1,.0,7.0L.0,81.0C.0,84.9,3.1,88.0,7.0,88.0L174.2,88.0C178.1,88.0,181.2,84.9,181.2,81.0z" fill-rule="nonzero"/><text xml:space="preserve" style="fill:#191919;font-family:Microsoft YaHei;font-size:10.00pt"><tspan x="66.7" y="32.0">primary</tspan><tspan x="13.7" y="50.0">Parser(PrimaryExpr.class)</tspan><tspan x="58.0" y="68.0">elements[]</tspan></text></g><g transform="translate(976.02,1747.50)" id="shape46"><path stroke="#323232" fill="#ffffff" stroke-width="1" d="M164.5,63.0L164.5,7.0C164.5,3.1,161.4,.0,157.5,.0L7.0,.0C3.1,.0,.0,3.1,.0,7.0L.0,63.0C.0,66.9,3.1,70.0,7.0,70.0L157.5,70.0C161.4,70.0,164.5,66.9,164.5,63.0z" fill-rule="nonzero"/><text xml:space="preserve" style="fill:#191919;font-family:Microsoft YaHei;font-size:10.00pt"><tspan x="68.7" y="32.0">Tree</tspan><tspan x="62.9" y="50.0">parser</tspan></text></g><g transform="translate(1058.28,1817.50)" id="shape47"><path stroke="#191919" fill="none" stroke-width="1" d="M.0,.0L.0,47.0"/><path stroke="#191919" fill="#191919" stroke-width="1" d="M3.0,47.0L.0,53.0L-3.0,47.0L3.0,47.0" stroke-linecap="round"/></g><g transform="translate(962.02,1697.50)" id="shape48"><path stroke="#191919" fill="none" stroke-width="1" d="M.0,.0L.0,28.0L96.0,28.0L96.0,44.0"/><path stroke="#191919" fill="#191919" stroke-width="1" d="M99.0,44.0L96.0,50.0L93.0,44.0L99.0,44.0" stroke-linecap="round"/></g><g transform="translate(1216.02,1627.50)" id="shape49"><path stroke="#323232" fill="#ffffff" stroke-width="1" d="M100.0,63.0L100.0,7.0C100.0,3.1,96.9,.0,93.0,.0L7.0,.0C3.1,.0,.0,3.1,.0,7.0L.0,63.0C.0,66.9,3.1,70.0,7.0,70.0L93.0,70.0C96.9,70.0,100.0,66.9,100.0,63.0z" fill-rule="nonzero"/><text xml:space="preserve" style="fill:#191919;font-family:Microsoft YaHei;font-size:10.00pt"><tspan x="26.1" y="23.0">primary</tspan><tspan x="30.8" y="41.0">Parser</tspan><tspan x="17.4" y="59.0">elements[]</tspan></text></g><g transform="translate(1118.53,1539.00)" id="shape50"><path stroke="#191919" fill="none" stroke-width="1" d="M.0,.0L.0,60.0L148.0,60.0L148.0,82.0"/><path stroke="#191919" fill="#191919" stroke-width="1" d="M151.0,82.0L148.0,88.0L145.0,82.0L151.0,82.0" stroke-linecap="round"/></g><g transform="translate(3200.50,519.00)" id="shape51"><path stroke="#323232" fill="#ffffff" stroke-width="1" d="M100.0,63.0L100.0,7.0C100.0,3.1,96.9,.0,93.0,.0L7.0,.0C3.1,.0,.0,3.1,.0,7.0L.0,63.0C.0,66.9,3.1,70.0,7.0,70.0L93.0,70.0C96.9,70.0,100.0,66.9,100.0,63.0z" fill-rule="nonzero"/><text xml:space="preserve" style="fill:#191919;font-family:Microsoft YaHei;font-size:10.00pt"><tspan x="35.4" y="41.0">“;”</tspan></text></g><g transform="translate(3351.50,519.00)" id="shape52"><path stroke="#323232" fill="#ffffff" stroke-width="1" d="M100.0,63.0L100.0,7.0C100.0,3.1,96.9,.0,93.0,.0L7.0,.0C3.1,.0,.0,3.1,.0,7.0L.0,63.0C.0,66.9,3.1,70.0,7.0,70.0L93.0,70.0C96.9,70.0,100.0,66.9,100.0,63.0z" fill-rule="nonzero"/><text xml:space="preserve" style="fill:#191919;font-family:Microsoft YaHei;font-size:10.00pt"><tspan x="24.8" y="41.0">“EOL”</tspan></text></g><g transform="translate(3308.02,471.00)" id="shape53"><path stroke="#191919" fill="none" stroke-width="1" d="M.0,.0L.0,28.0L-58.0,28.0L-58.0,42.0"/><path stroke="#191919" fill="#191919" stroke-width="1" d="M-55.0,42.0L-58.0,48.0L-61.0,42.0L-55.0,42.0" stroke-linecap="round"/></g><g transform="translate(3308.02,471.00)" id="shape54"><path stroke="#191919" fill="none" stroke-width="1" d="M.0,.0L.0,28.0L93.0,28.0L93.0,42.0"/><path stroke="#191919" fill="#191919" stroke-width="1" d="M96.0,42.0L93.0,48.0L90.0,42.0L96.0,42.0" stroke-linecap="round"/></g><g transform="translate(2147.52,1293.25)" id="shape55"><path stroke="#323232" fill="#ffffff" stroke-width="1" d="M164.5,63.0L164.5,7.0C164.5,3.1,161.4,.0,157.5,.0L7.0,.0C3.1,.0,.0,3.1,.0,7.0L.0,63.0C.0,66.9,3.1,70.0,7.0,70.0L157.5,70.0C161.4,70.0,164.5,66.9,164.5,63.0z" fill-rule="nonzero"/><text xml:space="preserve" style="fill:#191919;font-family:Microsoft YaHei;font-size:10.00pt"><tspan x="69.1" y="32.0">Skip</tspan><tspan x="61.5" y="50.0">tokens</tspan></text></g><g transform="translate(2179.53,1425.25)" id="shape56"><path stroke="#323232" fill="#ffffff" stroke-width="1" d="M100.0,63.0L100.0,7.0C100.0,3.1,96.9,.0,93.0,.0L7.0,.0C3.1,.0,.0,3.1,.0,7.0L.0,63.0C.0,66.9,3.1,70.0,7.0,70.0L93.0,70.0C96.9,70.0,100.0,66.9,100.0,63.0z" fill-rule="nonzero"/><text xml:space="preserve" style="fill:#191919;font-family:Microsoft YaHei;font-size:10.00pt"><tspan x="24.9" y="41.0">“else”</tspan></text></g><g transform="translate(2229.78,1363.25)" id="shape57"><path stroke="#191919" fill="none" stroke-width="1" d="M.0,.0L.0,56.0"/><path stroke="#191919" fill="#191919" stroke-width="1" d="M3.0,56.0L.0,62.0L-3.0,56.0L3.0,56.0" stroke-linecap="round"/></g><g transform="translate(2262.04,1246.75)" id="shape58"><path stroke="#191919" fill="none" stroke-width="1" d="M.0,.0L.0,28.0L-33.0,28.0L-33.0,41.0"/><path stroke="#191919" fill="#191919" stroke-width="1" d="M-30.0,41.0L-33.0,47.0L-36.0,41.0L-30.0,41.0" stroke-linecap="round"/></g><g transform="translate(2390.81,1425.25)" id="shape59"><path stroke="#323232" fill="#ffffff" stroke-width="1" d="M100.0,63.0L100.0,7.0C100.0,3.1,96.9,.0,93.0,.0L7.0,.0C3.1,.0,.0,3.1,.0,7.0L.0,63.0C.0,66.9,3.1,70.0,7.0,70.0L93.0,70.0C96.9,70.0,100.0,66.9,100.0,63.0z" fill-rule="nonzero"/><text xml:space="preserve" style="fill:#191919;font-family:Microsoft YaHei;font-size:10.00pt"><tspan x="33.2" y="23.0">block</tspan><tspan x="30.8" y="41.0">Parser</tspan><tspan x="17.4" y="59.0">elements[]</tspan></text></g><g transform="translate(2358.55,1293.25)" id="shape60"><path stroke="#323232" fill="#ffffff" stroke-width="1" d="M164.5,63.0L164.5,7.0C164.5,3.1,161.4,.0,157.5,.0L7.0,.0C3.1,.0,.0,3.1,.0,7.0L.0,63.0C.0,66.9,3.1,70.0,7.0,70.0L157.5,70.0C161.4,70.0,164.5,66.9,164.5,63.0z" fill-rule="nonzero"/><text xml:space="preserve" style="fill:#191919;font-family:Microsoft YaHei;font-size:10.00pt"><tspan x="68.7" y="32.0">Tree</tspan><tspan x="62.9" y="50.0">parser</tspan></text></g><g transform="translate(2262.04,1246.75)" id="shape61"><path stroke="#191919" fill="none" stroke-width="1" d="M.0,.0L.0,28.0L178.0,28.0L178.0,41.0"/><path stroke="#191919" fill="#191919" stroke-width="1" d="M181.0,41.0L178.0,47.0L175.0,41.0L181.0,41.0" stroke-linecap="round"/></g><g transform="translate(2440.81,1363.25)" id="shape62"><path stroke="#191919" fill="none" stroke-width="1" d="M.0,.0L.0,56.0"/><path stroke="#191919" fill="#191919" stroke-width="1" d="M3.0,56.0L.0,62.0L-3.0,56.0L3.0,56.0" stroke-linecap="round"/></g><g transform="translate(1008.28,2011.50)" id="shape63"><path stroke="#323232" fill="#ffffff" stroke-width="1" d="M100.0,53.0L100.0,7.0C100.0,3.1,96.9,.0,93.0,.0L7.0,.0C3.1,.0,.0,3.1,.0,7.0L.0,53.0C.0,56.9,3.1,60.0,7.0,60.0L93.0,60.0C96.9,60.0,100.0,56.9,100.0,53.0z" fill-rule="nonzero"/><text xml:space="preserve" style="fill:#191919;font-family:Microsoft YaHei;font-size:10.00pt"><tspan x="28.7" y="27.0">OrTree</tspan><tspan x="23.3" y="45.0">parsers[]</tspan></text></g><g transform="translate(1058.90,1958.50)" id="shape64"><path stroke="#191919" fill="none" stroke-width="1" d="M.0,.0L.0,47.0"/><path stroke="#191919" fill="#191919" stroke-width="1" d="M3.0,47.0L.0,53.0L-3.0,47.0L3.0,47.0" stroke-linecap="round"/></g><g transform="translate(502.00,2134.00)" id="shape65"><path stroke="#323232" fill="#ffffff" stroke-width="1" d="M100.0,63.0L100.0,7.0C100.0,3.1,96.9,.0,93.0,.0L7.0,.0C3.1,.0,.0,3.1,.0,7.0L.0,63.0C.0,66.9,3.1,70.0,7.0,70.0L93.0,70.0C96.9,70.0,100.0,66.9,100.0,63.0z" fill-rule="nonzero"/><text xml:space="preserve" style="fill:#191919;font-family:Microsoft YaHei;font-size:10.00pt"><tspan x="30.8" y="32.0">Parser</tspan><tspan x="17.4" y="50.0">elements[]</tspan></text></g><g transform="translate(949.40,2135.00)" id="shape66"><path stroke="#323232" fill="#ffffff" stroke-width="1" d="M100.0,63.0L100.0,7.0C100.0,3.1,96.9,.0,93.0,.0L7.0,.0C3.1,.0,.0,3.1,.0,7.0L.0,63.0C.0,66.9,3.1,70.0,7.0,70.0L93.0,70.0C96.9,70.0,100.0,66.9,100.0,63.0z" fill-rule="nonzero"/><text xml:space="preserve" style="fill:#191919;font-family:Microsoft YaHei;font-size:10.00pt"><tspan x="30.8" y="32.0">Parser</tspan><tspan x="17.4" y="50.0">elements[]</tspan></text></g><g transform="translate(1163.00,2134.00)" id="shape67"><path stroke="#323232" fill="#ffffff" stroke-width="1" d="M100.0,63.0L100.0,7.0C100.0,3.1,96.9,.0,93.0,.0L7.0,.0C3.1,.0,.0,3.1,.0,7.0L.0,63.0C.0,66.9,3.1,70.0,7.0,70.0L93.0,70.0C96.9,70.0,100.0,66.9,100.0,63.0z" fill-rule="nonzero"/><text xml:space="preserve" style="fill:#191919;font-family:Microsoft YaHei;font-size:10.00pt"><tspan x="30.8" y="32.0">Parser</tspan><tspan x="17.4" y="50.0">elements[]</tspan></text></g><g transform="translate(1376.60,2134.00)" id="shape68"><path stroke="#323232" fill="#ffffff" stroke-width="1" d="M100.0,63.0L100.0,7.0C100.0,3.1,96.9,.0,93.0,.0L7.0,.0C3.1,.0,.0,3.1,.0,7.0L.0,63.0C.0,66.9,3.1,70.0,7.0,70.0L93.0,70.0C96.9,70.0,100.0,66.9,100.0,63.0z" fill-rule="nonzero"/><text xml:space="preserve" style="fill:#191919;font-family:Microsoft YaHei;font-size:10.00pt"><tspan x="30.8" y="32.0">Parser</tspan><tspan x="17.4" y="50.0">elements[]</tspan></text></g><g transform="translate(1058.28,2071.50)" id="shape69"><path stroke="#191919" fill="none" stroke-width="1" d="M.0,.0L.0,35.0L-506.0,35.0L-506.0,57.0"/><path stroke="#191919" fill="#191919" stroke-width="1" d="M-503.0,57.0L-506.0,63.0L-509.0,57.0L-503.0,57.0" stroke-linecap="round"/></g><g transform="translate(1058.28,2071.50)" id="shape70"><path stroke="#191919" fill="none" stroke-width="1" d="M.0,.0L.0,36.0L-59.0,36.0L-59.0,58.0"/><path stroke="#191919" fill="#191919" stroke-width="1" d="M-56.0,58.0L-59.0,64.0L-62.0,58.0L-56.0,58.0" stroke-linecap="round"/></g><g transform="translate(1058.28,2071.50)" id="shape71"><path stroke="#191919" fill="none" stroke-width="1" d="M.0,.0L.0,35.0L155.0,35.0L155.0,57.0"/><path stroke="#191919" fill="#191919" stroke-width="1" d="M158.0,57.0L155.0,63.0L152.0,57.0L158.0,57.0" stroke-linecap="round"/></g><g transform="translate(1058.28,2071.50)" id="shape72"><path stroke="#191919" fill="none" stroke-width="1" d="M.0,.0L.0,35.0L263.1,35.0C263.1,31.7,265.8,28.9,269.1,28.9C272.5,28.9,275.2,31.7,275.2,35.0L368.0,35.0L368.0,57.0"/><path stroke="#191919" fill="#191919" stroke-width="1" d="M371.0,57.0L368.0,63.0L365.0,57.0L371.0,57.0" stroke-linecap="round"/></g><g transform="translate(277.49,2330.00)" id="shape73"><path stroke="#323232" fill="#ffffff" stroke-width="1" d="M164.5,63.0L164.5,7.0C164.5,3.1,161.4,.0,157.5,.0L7.0,.0C3.1,.0,.0,3.1,.0,7.0L.0,63.0C.0,66.9,3.1,70.0,7.0,70.0L157.5,70.0C161.4,70.0,164.5,66.9,164.5,63.0z" fill-rule="nonzero"/><text xml:space="preserve" style="fill:#191919;font-family:Microsoft YaHei;font-size:10.00pt"><tspan x="69.1" y="32.0">Skip</tspan><tspan x="61.5" y="50.0">tokens</tspan></text></g><g transform="translate(309.50,2462.00)" id="shape74"><path stroke="#323232" fill="#ffffff" stroke-width="1" d="M100.0,63.0L100.0,7.0C100.0,3.1,96.9,.0,93.0,.0L7.0,.0C3.1,.0,.0,3.1,.0,7.0L.0,63.0C.0,66.9,3.1,70.0,7.0,70.0L93.0,70.0C96.9,70.0,100.0,66.9,100.0,63.0z" fill-rule="nonzero"/><text xml:space="preserve" style="fill:#191919;font-family:Microsoft YaHei;font-size:10.00pt"><tspan x="30.5" y="41.0">“（”</tspan></text></g><g transform="translate(359.75,2400.00)" id="shape75"><path stroke="#191919" fill="none" stroke-width="1" d="M.0,.0L.0,56.0"/><path stroke="#191919" fill="#191919" stroke-width="1" d="M3.0,56.0L.0,62.0L-3.0,56.0L3.0,56.0" stroke-linecap="round"/></g><g transform="translate(552.00,2204.00)" id="shape76"><path stroke="#191919" fill="none" stroke-width="1" d="M.0,.0L.0,98.0L-193.0,98.0L-193.0,120.0"/><path stroke="#191919" fill="#191919" stroke-width="1" d="M-190.0,120.0L-193.0,126.0L-196.0,120.0L-190.0,120.0" stroke-linecap="round"/></g><g transform="translate(471.11,2330.00)" id="shape77"><path stroke="#323232" fill="#ffffff" stroke-width="1" d="M164.5,63.0L164.5,7.0C164.5,3.1,161.4,.0,157.5,.0L7.0,.0C3.1,.0,.0,3.1,.0,7.0L.0,63.0C.0,66.9,3.1,70.0,7.0,70.0L157.5,70.0C161.4,70.0,164.5,66.9,164.5,63.0z" fill-rule="nonzero"/><text xml:space="preserve" style="fill:#191919;font-family:Microsoft YaHei;font-size:10.00pt"><tspan x="68.7" y="32.0">Tree</tspan><tspan x="62.9" y="50.0">parser</tspan></text></g><g transform="translate(657.99,2330.00)" id="shape78"><path stroke="#323232" fill="#ffffff" stroke-width="1" d="M164.5,63.0L164.5,7.0C164.5,3.1,161.4,.0,157.5,.0L7.0,.0C3.1,.0,.0,3.1,.0,7.0L.0,63.0C.0,66.9,3.1,70.0,7.0,70.0L157.5,70.0C161.4,70.0,164.5,66.9,164.5,63.0z" fill-rule="nonzero"/><text xml:space="preserve" style="fill:#191919;font-family:Microsoft YaHei;font-size:10.00pt"><tspan x="69.1" y="32.0">Skip</tspan><tspan x="61.5" y="50.0">tokens</tspan></text></g><g transform="translate(690.00,2462.00)" id="shape79"><path stroke="#323232" fill="#ffffff" stroke-width="1" d="M100.0,63.0L100.0,7.0C100.0,3.1,96.9,.0,93.0,.0L7.0,.0C3.1,.0,.0,3.1,.0,7.0L.0,63.0C.0,66.9,3.1,70.0,7.0,70.0L93.0,70.0C96.9,70.0,100.0,66.9,100.0,63.0z" fill-rule="nonzero"/><text xml:space="preserve" style="fill:#191919;font-family:Microsoft YaHei;font-size:10.00pt"><tspan x="30.5" y="41.0">“）”</tspan></text></g><g transform="translate(740.25,2400.00)" id="shape80"><path stroke="#191919" fill="none" stroke-width="1" d="M.0,.0L.0,56.0"/><path stroke="#191919" fill="#191919" stroke-width="1" d="M3.0,56.0L.0,62.0L-3.0,56.0L3.0,56.0" stroke-linecap="round"/></g><g transform="translate(552.00,2204.00)" id="shape81"><path stroke="#191919" fill="none" stroke-width="1" d="M.0,.0L.0,120.0"/><path stroke="#191919" fill="#191919" stroke-width="1" d="M3.0,120.0L.0,126.0L-3.0,120.0L3.0,120.0" stroke-linecap="round"/></g><g transform="translate(552.00,2204.00)" id="shape82"><path stroke="#191919" fill="none" stroke-width="1" d="M.0,.0L.0,98.0L187.0,98.0L187.0,120.0"/><path stroke="#191919" fill="#191919" stroke-width="1" d="M190.0,120.0L187.0,126.0L184.0,120.0L190.0,120.0" stroke-linecap="round"/></g><g transform="translate(553.37,2400.00)" id="shape83"><path stroke="#191919" fill="none" stroke-width="1" d="M.0,.0L.0,38.0L-187.6,38.0C-187.6,34.7,-190.3,32.0,-193.6,32.0C-196.9,32.0,-199.6,34.7,-199.6,38.0L-289.3,38.0L-289.3,-1290.5L510.6,-1290.5"/><path stroke="#191919" fill="#191919" stroke-width="1" d="M510.6,-1293.5L516.6,-1290.5L510.6,-1287.5L510.6,-1293.5" stroke-linecap="round"/></g><g transform="translate(895.00,2330.00)" id="shape84"><path stroke="#323232" fill="#ffffff" stroke-width="1" d="M208.0,63.0L208.0,7.0C208.0,3.1,204.9,.0,201.0,.0L7.0,.0C3.1,.0,.0,3.1,.0,7.0L.0,63.0C.0,66.9,3.1,70.0,7.0,70.0L201.0,70.0C204.9,70.0,208.0,66.9,208.0,63.0z" fill-rule="nonzero"/><text xml:space="preserve" style="fill:#191919;font-family:Microsoft YaHei;font-size:10.00pt"><tspan x="4.5" y="41.0">NumToken(NumberLiteral.class)</tspan></text></g><g transform="translate(999.40,2205.00)" id="shape85"><path stroke="#191919" fill="none" stroke-width="1" d="M.0,.0L.0,119.0"/><path stroke="#191919" fill="#191919" stroke-width="1" d="M3.0,119.0L.0,125.0L-3.0,119.0L3.0,119.0" stroke-linecap="round"/></g><g transform="translate(1127.00,2330.00)" id="shape86"><path stroke="#323232" fill="#ffffff" stroke-width="1" d="M172.0,63.0L172.0,7.0C172.0,3.1,168.9,.0,165.0,.0L7.0,.0C3.1,.0,.0,3.1,.0,7.0L.0,63.0C.0,66.9,3.1,70.0,7.0,70.0L165.0,70.0C168.9,70.0,172.0,66.9,172.0,63.0z" fill-rule="nonzero"/><text xml:space="preserve" style="fill:#191919;font-family:Microsoft YaHei;font-size:10.00pt"><tspan x="22.4" y="32.0">IdToken(Name.class, </tspan><tspan x="57.3" y="50.0">reserved)</tspan></text></g><g transform="translate(1213.00,2204.00)" id="shape87"><path stroke="#191919" fill="none" stroke-width="1" d="M.0,.0L.0,120.0"/><path stroke="#191919" fill="#191919" stroke-width="1" d="M3.0,120.0L.0,126.0L-3.0,120.0L3.0,120.0" stroke-linecap="round"/></g><g transform="translate(1331.60,2330.00)" id="shape88"><path stroke="#323232" fill="#ffffff" stroke-width="1" d="M190.0,63.0L190.0,7.0C190.0,3.1,186.9,.0,183.0,.0L7.0,.0C3.1,.0,.0,3.1,.0,7.0L.0,63.0C.0,66.9,3.1,70.0,7.0,70.0L183.0,70.0C186.9,70.0,190.0,66.9,190.0,63.0z" fill-rule="nonzero"/><text xml:space="preserve" style="fill:#191919;font-family:Microsoft YaHei;font-size:10.00pt"><tspan x="9.3" y="41.0">StrToken(StringLiteral.class)</tspan></text></g><g transform="translate(1426.60,2204.00)" id="shape89"><path stroke="#191919" fill="none" stroke-width="1" d="M.0,.0L.0,120.0"/><path stroke="#191919" fill="#191919" stroke-width="1" d="M3.0,120.0L.0,126.0L-3.0,120.0L3.0,120.0" stroke-linecap="round"/></g><g transform="translate(1246.00,1355.00)" id="shape90"><path stroke="#323232" fill="#ffffff" stroke-width="1" d="M100.0,63.0L100.0,7.0C100.0,3.1,96.9,.0,93.0,.0L7.0,.0C3.1,.0,.0,3.1,.0,7.0L.0,63.0C.0,66.9,3.1,70.0,7.0,70.0L93.0,70.0C96.9,70.0,100.0,66.9,100.0,63.0z" fill-rule="nonzero"/><text xml:space="preserve" style="fill:#191919;font-family:Microsoft YaHei;font-size:10.00pt"><tspan x="5.8" y="32.0">+ - * / = == > </tspan><tspan x="37.5" y="50.0">&lt; %</tspan></text></g><g transform="translate(1119.53,1298.00)" id="shape91"><path stroke="#191919" fill="none" stroke-width="1" d="M.0,.0L.0,28.0L87.8,28.0C87.8,24.7,90.5,21.9,93.9,21.9C97.2,21.9,100.0,24.7,100.0,28.0L177.0,28.0L177.0,51.0"/><path stroke="#191919" fill="#191919" stroke-width="1" d="M180.0,51.0L177.0,57.0L174.0,51.0L180.0,51.0" stroke-linecap="round"/></g><g transform="translate(1266.02,1697.50)" id="shape92"><path stroke="#191919" fill="none" stroke-width="1" d="M.0,.0L.0,217.0L-111.0,217.0"/><path stroke="#191919" fill="#191919" stroke-width="1" d="M-111.0,220.0L-117.0,217.0L-111.0,214.0L-111.0,220.0" stroke-linecap="round"/></g><g transform="translate(2490.81,1460.25)" id="shape93"><path stroke="#191919" fill="none" stroke-width="1" d="M.0,.0L41.2,.0L41.2,-416.3L-8.8,-416.3C-8.8,-419.6,-11.5,-422.3,-14.8,-422.3C-18.1,-422.3,-20.8,-419.6,-20.8,-416.3L-221.5,-416.3C-221.5,-419.6,-224.2,-422.3,-227.5,-422.3C-230.8,-422.3,-233.5,-419.6,-233.5,-416.3L-389.2,-416.3L-389.2,-315.5L-444.5,-315.5C-444.5,-318.8,-447.2,-321.5,-450.5,-321.5C-453.9,-321.5,-456.5,-318.8,-456.5,-315.5L-506.8,-315.5C-506.8,-318.8,-509.5,-321.5,-512.8,-321.5C-516.1,-321.5,-518.8,-318.8,-518.8,-315.5L-752.8,-315.5C-752.8,-318.8,-755.5,-321.5,-758.8,-321.5C-762.1,-321.5,-764.8,-318.8,-764.8,-315.5"/><path stroke="#191919" fill="#191919" stroke-width="1" d="M-762.1,-312.5L-768.1,-315.5L-762.1,-318.5L-762.1,-312.5" stroke-linecap="round"/></g><g transform="translate(1370.97,1301.00)" id="shape94"><path stroke="#323232" fill="#ffffff" stroke-width="1" d="M164.5,63.0L164.5,7.0C164.5,3.1,161.4,.0,157.5,.0L7.0,.0C3.1,.0,.0,3.1,.0,7.0L.0,63.0C.0,66.9,3.1,70.0,7.0,70.0L157.5,70.0C161.4,70.0,164.5,66.9,164.5,63.0z" fill-rule="nonzero"/><text xml:space="preserve" style="fill:#191919;font-family:Microsoft YaHei;font-size:10.00pt"><tspan x="69.1" y="32.0">Skip</tspan><tspan x="61.5" y="50.0">tokens</tspan></text></g><g transform="translate(1402.98,1433.00)" id="shape95"><path stroke="#323232" fill="#ffffff" stroke-width="1" d="M100.0,63.0L100.0,7.0C100.0,3.1,96.9,.0,93.0,.0L7.0,.0C3.1,.0,.0,3.1,.0,7.0L.0,63.0C.0,66.9,3.1,70.0,7.0,70.0L93.0,70.0C96.9,70.0,100.0,66.9,100.0,63.0z" fill-rule="nonzero"/><text xml:space="preserve" style="fill:#191919;font-family:Microsoft YaHei;font-size:10.00pt"><tspan x="34.8" y="41.0">“{”</tspan></text></g><g transform="translate(1453.23,1371.00)" id="shape96"><path stroke="#191919" fill="none" stroke-width="1" d="M.0,.0L.0,56.0"/><path stroke="#191919" fill="#191919" stroke-width="1" d="M3.0,56.0L.0,62.0L-3.0,56.0L3.0,56.0" stroke-linecap="round"/></g><g transform="translate(1743.49,1301.00)" id="shape97"><path stroke="#323232" fill="#ffffff" stroke-width="1" d="M164.5,63.0L164.5,7.0C164.5,3.1,161.4,.0,157.5,.0L7.0,.0C3.1,.0,.0,3.1,.0,7.0L.0,63.0C.0,66.9,3.1,70.0,7.0,70.0L157.5,70.0C161.4,70.0,164.5,66.9,164.5,63.0z" fill-rule="nonzero"/><text xml:space="preserve" style="fill:#191919;font-family:Microsoft YaHei;font-size:10.00pt"><tspan x="69.1" y="32.0">Skip</tspan><tspan x="61.5" y="50.0">tokens</tspan></text></g><g transform="translate(1775.75,1433.00)" id="shape98"><path stroke="#323232" fill="#ffffff" stroke-width="1" d="M100.0,63.0L100.0,7.0C100.0,3.1,96.9,.0,93.0,.0L7.0,.0C3.1,.0,.0,3.1,.0,7.0L.0,63.0C.0,66.9,3.1,70.0,7.0,70.0L93.0,70.0C96.9,70.0,100.0,66.9,100.0,63.0z" fill-rule="nonzero"/><text xml:space="preserve" style="fill:#191919;font-family:Microsoft YaHei;font-size:10.00pt"><tspan x="34.8" y="41.0">“}”</tspan></text></g><g transform="translate(1825.75,1371.00)" id="shape99"><path stroke="#191919" fill="none" stroke-width="1" d="M.0,.0L.0,56.0"/><path stroke="#191919" fill="#191919" stroke-width="1" d="M3.0,56.0L.0,62.0L-3.0,56.0L3.0,56.0" stroke-linecap="round"/></g><g transform="translate(1557.23,1301.00)" id="shape100"><path stroke="#323232" fill="#ffffff" stroke-width="1" d="M164.5,63.0L164.5,7.0C164.5,3.1,161.4,.0,157.5,.0L7.0,.0C3.1,.0,.0,3.1,.0,7.0L.0,63.0C.0,66.9,3.1,70.0,7.0,70.0L157.5,70.0C161.4,70.0,164.5,66.9,164.5,63.0z" fill-rule="nonzero"/><text xml:space="preserve" style="fill:#191919;font-family:Microsoft YaHei;font-size:10.00pt"><tspan x="60.5" y="32.0">Repeat</tspan><tspan x="62.9" y="50.0">parser</tspan></text></g><g transform="translate(1589.49,1433.00)" id="shape101"><path stroke="#323232" fill="#ffffff" stroke-width="1" d="M100.0,63.0L100.0,7.0C100.0,3.1,96.9,.0,93.0,.0L7.0,.0C3.1,.0,.0,3.1,.0,7.0L.0,63.0C.0,66.9,3.1,70.0,7.0,70.0L93.0,70.0C96.9,70.0,100.0,66.9,100.0,63.0z" fill-rule="nonzero"/><text xml:space="preserve" style="fill:#191919;font-family:Microsoft YaHei;font-size:10.00pt"><tspan x="30.8" y="32.0">Parser</tspan><tspan x="17.4" y="50.0">elements[]</tspan></text></g><g transform="translate(1639.49,1371.00)" id="shape102"><path stroke="#191919" fill="none" stroke-width="1" d="M.0,.0L.0,56.0"/><path stroke="#191919" fill="#191919" stroke-width="1" d="M3.0,56.0L.0,62.0L-3.0,56.0L3.0,56.0" stroke-linecap="round"/></g><g transform="translate(1467.74,1547.00)" id="shape103"><path stroke="#323232" fill="#ffffff" stroke-width="1" d="M164.5,63.0L164.5,7.0C164.5,3.1,161.4,.0,157.5,.0L7.0,.0C3.1,.0,.0,3.1,.0,7.0L.0,63.0C.0,66.9,3.1,70.0,7.0,70.0L157.5,70.0C161.4,70.0,164.5,66.9,164.5,63.0z" fill-rule="nonzero"/><text xml:space="preserve" style="fill:#191919;font-family:Microsoft YaHei;font-size:10.00pt"><tspan x="69.1" y="32.0">Skip</tspan><tspan x="61.5" y="50.0">tokens</tspan></text></g><g transform="translate(1441.24,1679.00)" id="shape104"><path stroke="#323232" fill="#ffffff" stroke-width="1" d="M100.0,63.0L100.0,7.0C100.0,3.1,96.9,.0,93.0,.0L7.0,.0C3.1,.0,.0,3.1,.0,7.0L.0,63.0C.0,66.9,3.1,70.0,7.0,70.0L93.0,70.0C96.9,70.0,100.0,66.9,100.0,63.0z" fill-rule="nonzero"/><text xml:space="preserve" style="fill:#191919;font-family:Microsoft YaHei;font-size:10.00pt"><tspan x="35.4" y="41.0">“;”</tspan></text></g><g transform="translate(1550.00,1617.00)" id="shape105"><path stroke="#191919" fill="none" stroke-width="1" d="M.0,.0L.0,34.0L-58.0,34.0L-58.0,56.0"/><path stroke="#191919" fill="#191919" stroke-width="1" d="M-55.0,56.0L-58.0,62.0L-61.0,56.0L-55.0,56.0" stroke-linecap="round"/></g><g transform="translate(1558.76,1679.00)" id="shape106"><path stroke="#323232" fill="#ffffff" stroke-width="1" d="M100.0,63.0L100.0,7.0C100.0,3.1,96.9,.0,93.0,.0L7.0,.0C3.1,.0,.0,3.1,.0,7.0L.0,63.0C.0,66.9,3.1,70.0,7.0,70.0L93.0,70.0C96.9,70.0,100.0,66.9,100.0,63.0z" fill-rule="nonzero"/><text xml:space="preserve" style="fill:#191919;font-family:Microsoft YaHei;font-size:10.00pt"><tspan x="24.8" y="41.0">“EOL”</tspan></text></g><g transform="translate(1550.00,1617.00)" id="shape107"><path stroke="#191919" fill="none" stroke-width="1" d="M.0,.0L.0,34.0L59.0,34.0L59.0,56.0"/><path stroke="#191919" fill="#191919" stroke-width="1" d="M62.0,56.0L59.0,62.0L56.0,56.0L62.0,56.0" stroke-linecap="round"/></g><g transform="translate(1639.49,1503.00)" id="shape108"><path stroke="#191919" fill="none" stroke-width="1" d="M.0,.0L.0,28.0L-89.0,28.0L-89.0,38.0"/><path stroke="#191919" fill="#191919" stroke-width="1" d="M-86.0,38.0L-89.0,44.0L-92.0,38.0L-86.0,38.0" stroke-linecap="round"/></g><g transform="translate(1674.74,1547.00)" id="shape109"><path stroke="#323232" fill="#ffffff" stroke-width="1" d="M164.5,63.0L164.5,7.0C164.5,3.1,161.4,.0,157.5,.0L7.0,.0C3.1,.0,.0,3.1,.0,7.0L.0,63.0C.0,66.9,3.1,70.0,7.0,70.0L157.5,70.0C161.4,70.0,164.5,66.9,164.5,63.0z" fill-rule="nonzero"/><text xml:space="preserve" style="fill:#191919;font-family:Microsoft YaHei;font-size:10.00pt"><tspan x="60.5" y="32.0">Repeat</tspan><tspan x="62.9" y="50.0">parser</tspan></text></g><g transform="translate(1639.49,1503.00)" id="shape110"><path stroke="#191919" fill="none" stroke-width="1" d="M.0,.0L.0,28.0L117.0,28.0L117.0,38.0"/><path stroke="#191919" fill="#191919" stroke-width="1" d="M120.0,38.0L117.0,44.0L114.0,38.0L120.0,38.0" stroke-linecap="round"/></g><g transform="translate(1839.26,1582.00)" id="shape111"><path stroke="#191919" fill="none" stroke-width="1" d="M.0,.0L132.7,.0C132.7,-3.3,135.4,-6.0,138.7,-6.0C142.1,-6.0,144.7,-3.3,144.7,.0L201.0,.0L201.0,-1018.0L630.7,-1018.0C630.7,-1021.3,633.4,-1024.0,636.7,-1024.0C640.1,-1024.0,642.7,-1021.3,642.7,-1018.0L670.8,-1018.0"/><path stroke="#191919" fill="#191919" stroke-width="1" d="M670.8,-1021.0L676.8,-1018.0L670.8,-1015.0L670.8,-1021.0" stroke-linecap="round"/></g><g transform="translate(2594.48,919.00)" id="shape112"><path stroke="#323232" fill="#ffffff" stroke-width="1" d="M164.5,63.0L164.5,7.0C164.5,3.1,161.4,.0,157.5,.0L7.0,.0C3.1,.0,.0,3.1,.0,7.0L.0,63.0C.0,66.9,3.1,70.0,7.0,70.0L157.5,70.0C161.4,70.0,164.5,66.9,164.5,63.0z" fill-rule="nonzero"/><text xml:space="preserve" style="fill:#191919;font-family:Microsoft YaHei;font-size:10.00pt"><tspan x="69.1" y="32.0">Skip</tspan><tspan x="61.5" y="50.0">tokens</tspan></text></g><g transform="translate(2625.49,1051.00)" id="shape113"><path stroke="#323232" fill="#ffffff" stroke-width="1" d="M100.0,63.0L100.0,7.0C100.0,3.1,96.9,.0,93.0,.0L7.0,.0C3.1,.0,.0,3.1,.0,7.0L.0,63.0C.0,66.9,3.1,70.0,7.0,70.0L93.0,70.0C96.9,70.0,100.0,66.9,100.0,63.0z" fill-rule="nonzero"/><text xml:space="preserve" style="fill:#191919;font-family:Microsoft YaHei;font-size:10.00pt"><tspan x="20.7" y="41.0">“while”</tspan></text></g><g transform="translate(2676.74,989.00)" id="shape114"><path stroke="#191919" fill="none" stroke-width="1" d="M.0,.0L.0,56.0"/><path stroke="#191919" fill="#191919" stroke-width="1" d="M3.0,56.0L.0,62.0L-3.0,56.0L3.0,56.0" stroke-linecap="round"/></g><g transform="translate(1640.49,1188.75)" id="shape115"><path stroke="#191919" fill="none" stroke-width="1" d="M.0,.0L.0,85.0L-187.0,85.0L-187.0,107.0"/><path stroke="#191919" fill="#191919" stroke-width="1" d="M-184.0,107.0L-187.0,113.0L-190.0,107.0L-184.0,107.0" stroke-linecap="round"/></g><g transform="translate(1640.49,1188.75)" id="shape116"><path stroke="#191919" fill="none" stroke-width="1" d="M.0,.0L.0,107.0"/><path stroke="#191919" fill="#191919" stroke-width="1" d="M3.0,107.0L.0,113.0L-3.0,107.0L3.0,107.0" stroke-linecap="round"/></g><g transform="translate(1640.49,1188.75)" id="shape117"><path stroke="#191919" fill="none" stroke-width="1" d="M.0,.0L.0,85.0L85.5,85.0C85.5,81.7,88.2,79.0,91.5,79.0C94.8,79.0,97.5,81.7,97.5,85.0L185.0,85.0L185.0,107.0"/><path stroke="#191919" fill="#191919" stroke-width="1" d="M188.0,107.0L185.0,113.0L182.0,107.0L188.0,107.0" stroke-linecap="round"/></g><g transform="translate(2833.02,919.00)" id="shape118"><path stroke="#323232" fill="#ffffff" stroke-width="1" d="M164.5,63.0L164.5,7.0C164.5,3.1,161.4,.0,157.5,.0L7.0,.0C3.1,.0,.0,3.1,.0,7.0L.0,63.0C.0,66.9,3.1,70.0,7.0,70.0L157.5,70.0C161.4,70.0,164.5,66.9,164.5,63.0z" fill-rule="nonzero"/><text xml:space="preserve" style="fill:#191919;font-family:Microsoft YaHei;font-size:10.00pt"><tspan x="68.7" y="32.0">Tree</tspan><tspan x="62.9" y="50.0">parser</tspan></text></g><g transform="translate(3071.56,919.00)" id="shape119"><path stroke="#323232" fill="#ffffff" stroke-width="1" d="M164.5,63.0L164.5,7.0C164.5,3.1,161.4,.0,157.5,.0L7.0,.0C3.1,.0,.0,3.1,.0,7.0L.0,63.0C.0,66.9,3.1,70.0,7.0,70.0L157.5,70.0C161.4,70.0,164.5,66.9,164.5,63.0z" fill-rule="nonzero"/><text xml:space="preserve" style="fill:#191919;font-family:Microsoft YaHei;font-size:10.00pt"><tspan x="68.7" y="32.0">Tree</tspan><tspan x="62.9" y="50.0">parser</tspan></text></g><g transform="translate(2915.28,827.00)" id="shape120"><path stroke="#191919" fill="none" stroke-width="1" d="M.0,.0L.0,64.0L-239.0,64.0L-239.0,86.0"/><path stroke="#191919" fill="#191919" stroke-width="1" d="M-236.0,86.0L-239.0,92.0L-242.0,86.0L-236.0,86.0" stroke-linecap="round"/></g><g transform="translate(2915.28,827.00)" id="shape121"><path stroke="#191919" fill="none" stroke-width="1" d="M.0,.0L.0,86.0"/><path stroke="#191919" fill="#191919" stroke-width="1" d="M3.0,86.0L.0,92.0L-3.0,86.0L3.0,86.0" stroke-linecap="round"/></g><g transform="translate(2915.28,827.00)" id="shape122"><path stroke="#191919" fill="none" stroke-width="1" d="M.0,.0L.0,64.0L238.0,64.0L238.0,86.0"/><path stroke="#191919" fill="#191919" stroke-width="1" d="M241.0,86.0L238.0,92.0L235.0,86.0L241.0,86.0" stroke-linecap="round"/></g><g transform="translate(2915.28,989.00)" id="shape123"><path stroke="#191919" fill="none" stroke-width="1" d="M.0,.0L.0,41.0L-232.5,41.0C-232.5,37.7,-235.2,35.0,-238.5,35.0C-241.9,35.0,-244.5,37.7,-244.5,41.0L-433.3,41.0C-433.3,37.7,-436.0,35.0,-439.3,35.0C-442.6,35.0,-445.3,37.7,-445.3,41.0L-646.0,41.0C-646.0,37.7,-648.7,35.0,-652.0,35.0C-655.3,35.0,-658.0,37.7,-658.0,41.0L-869.0,41.0C-869.0,37.7,-871.7,35.0,-875.0,35.0C-878.3,35.0,-881.0,37.7,-881.0,41.0L-931.3,41.0C-931.3,37.7,-934.0,35.0,-937.3,35.0C-940.6,35.0,-943.3,37.7,-943.3,41.0L-1269.3,41.0C-1269.3,37.7,-1272.0,35.0,-1275.3,35.0C-1278.6,35.0,-1281.3,37.7,-1281.3,41.0L-1717.0,41.0L-1717.0,120.5L-1739.3,120.5"/><path stroke="#191919" fill="#191919" stroke-width="1" d="M-1739.3,123.5L-1745.3,120.5L-1739.3,117.5L-1739.3,123.5" stroke-linecap="round"/></g><g transform="translate(3153.82,989.00)" id="shape124"><path stroke="#191919" fill="none" stroke-width="1" d="M.0,.0L.0,155.0L-615.8,155.0C-615.8,151.7,-618.5,149.0,-621.8,149.0C-625.1,149.0,-627.8,151.7,-627.8,155.0L-671.8,155.0C-671.8,151.7,-674.5,149.0,-677.8,149.0C-681.1,149.0,-683.8,151.7,-683.8,155.0L-884.5,155.0C-884.5,151.7,-887.2,149.0,-890.5,149.0C-893.8,149.0,-896.5,151.7,-896.5,155.0L-1046.2,155.0C-1046.2,151.7,-1048.9,149.0,-1052.2,149.0C-1055.5,149.0,-1058.2,151.7,-1058.2,155.0L-1107.6,155.0C-1107.6,151.7,-1110.2,149.0,-1113.6,149.0C-1116.9,149.0,-1119.6,151.7,-1119.6,155.0L-1169.8,155.0C-1169.8,151.7,-1172.5,149.0,-1175.8,149.0C-1179.1,149.0,-1181.8,151.7,-1181.8,155.0L-1425.0,155.0"/><path stroke="#191919" fill="#191919" stroke-width="1" d="M-1425.0,158.0L-1431.0,155.0L-1425.0,152.0L-1425.0,158.0" stroke-linecap="round"/></g><g transform="translate(3320.35,919.00)" id="shape125"><path stroke="#323232" fill="#ffffff" stroke-width="1" d="M164.5,63.0L164.5,7.0C164.5,3.1,161.4,.0,157.5,.0L7.0,.0C3.1,.0,.0,3.1,.0,7.0L.0,63.0C.0,66.9,3.1,70.0,7.0,70.0L157.5,70.0C161.4,70.0,164.5,66.9,164.5,63.0z" fill-rule="nonzero"/><text xml:space="preserve" style="fill:#191919;font-family:Microsoft YaHei;font-size:10.00pt"><tspan x="68.7" y="32.0">Tree</tspan><tspan x="62.9" y="50.0">parser</tspan></text></g><g transform="translate(3491.50,827.00)" id="shape126"><path stroke="#191919" fill="none" stroke-width="1" d="M.0,.0L.0,64.0L-89.0,64.0L-89.0,86.0"/><path stroke="#191919" fill="#191919" stroke-width="1" d="M-86.0,86.0L-89.0,92.0L-92.0,86.0L-86.0,86.0" stroke-linecap="round"/></g><g transform="translate(3402.61,989.00)" id="shape127"><path stroke="#191919" fill="none" stroke-width="1" d="M.0,.0L.0,57.0L-242.8,57.0C-242.8,53.7,-245.5,51.0,-248.8,51.0C-252.1,51.0,-254.8,53.7,-254.8,57.0L-719.9,57.0C-719.9,53.7,-722.6,51.0,-725.9,51.0C-729.2,51.0,-731.9,53.7,-731.9,57.0L-864.6,57.0C-864.6,53.7,-867.3,51.0,-870.6,51.0C-873.9,51.0,-876.6,53.7,-876.6,57.0L-920.6,57.0C-920.6,53.7,-923.3,51.0,-926.6,51.0C-929.9,51.0,-932.6,53.7,-932.6,57.0L-1133.3,57.0C-1133.3,53.7,-1136.0,51.0,-1139.3,51.0C-1142.6,51.0,-1145.3,53.7,-1145.3,57.0L-1295.0,57.0C-1295.0,53.7,-1297.6,51.0,-1301.0,51.0C-1304.3,51.0,-1307.0,53.7,-1307.0,57.0L-1356.3,57.0C-1356.3,53.7,-1359.0,51.0,-1362.3,51.0C-1365.7,51.0,-1368.3,53.7,-1368.3,57.0L-1418.6,57.0C-1418.6,53.7,-1421.3,51.0,-1424.6,51.0C-1427.9,51.0,-1430.6,53.7,-1430.6,57.0L-1756.6,57.0C-1756.6,53.7,-1759.3,51.0,-1762.6,51.0C-1765.9,51.0,-1768.6,53.7,-1768.6,57.0L-2204.0,57.0L-2204.0,120.0L-2226.0,120.0"/><path stroke="#191919" fill="#191919" stroke-width="1" d="M-2226.0,123.0L-2232.0,120.0L-2226.0,117.0L-2226.0,123.0" stroke-linecap="round"/></g><g transform="translate(3085.78,1425.25)" id="shape128"><path stroke="#323232" fill="#ffffff" stroke-width="1" d="M178.4,79.0L178.4,7.0C178.4,3.1,175.3,.0,171.4,.0L7.0,.0C3.1,.0,.0,3.1,.0,7.0L.0,79.0C.0,82.9,3.1,86.0,7.0,86.0L171.4,86.0C175.3,86.0,178.4,82.9,178.4,79.0z" fill-rule="nonzero"/><text xml:space="preserve" style="fill:#191919;font-family:Microsoft YaHei;font-size:10.00pt"><tspan x="79.9" style="font-family:Microsoft YaHei UI;font-size:9.00pt" y="30.0">def</tspan><tspan x="36.1" y="48.0">Parser(DefStmnt)</tspan><tspan x="56.6" y="66.0">elements[]</tspan></text></g><g transform="translate(2771.74,1574.00)" id="shape129"><path stroke="#323232" fill="#ffffff" stroke-width="1" d="M164.5,63.0L164.5,7.0C164.5,3.1,161.4,.0,157.5,.0L7.0,.0C3.1,.0,.0,3.1,.0,7.0L.0,63.0C.0,66.9,3.1,70.0,7.0,70.0L157.5,70.0C161.4,70.0,164.5,66.9,164.5,63.0z" fill-rule="nonzero"/><text xml:space="preserve" style="fill:#191919;font-family:Microsoft YaHei;font-size:10.00pt"><tspan x="69.1" y="32.0">Skip</tspan><tspan x="61.5" y="50.0">tokens</tspan></text></g><g transform="translate(2803.75,1706.00)" id="shape130"><path stroke="#323232" fill="#ffffff" stroke-width="1" d="M100.0,63.0L100.0,7.0C100.0,3.1,96.9,.0,93.0,.0L7.0,.0C3.1,.0,.0,3.1,.0,7.0L.0,63.0C.0,66.9,3.1,70.0,7.0,70.0L93.0,70.0C96.9,70.0,100.0,66.9,100.0,63.0z" fill-rule="nonzero"/><text xml:space="preserve" style="fill:#191919;font-family:Microsoft YaHei;font-size:10.00pt"><tspan x="26.9" y="41.0">“def”</tspan></text></g><g transform="translate(2854.00,1644.00)" id="shape131"><path stroke="#191919" fill="none" stroke-width="1" d="M.0,.0L.0,31.0L-0.3,31.0L-0.3,56.0"/><path stroke="#191919" fill="#191919" stroke-width="1" d="M2.8,56.0L-0.3,62.0L-3.3,56.0L2.8,56.0" stroke-linecap="round"/></g><g transform="translate(3213.00,1574.00)" id="shape132"><path stroke="#323232" fill="#ffffff" stroke-width="1" d="M164.5,63.0L164.5,7.0C164.5,3.1,161.4,.0,157.5,.0L7.0,.0C3.1,.0,.0,3.1,.0,7.0L.0,63.0C.0,66.9,3.1,70.0,7.0,70.0L157.5,70.0C161.4,70.0,164.5,66.9,164.5,63.0z" fill-rule="nonzero"/><text xml:space="preserve" style="fill:#191919;font-family:Microsoft YaHei;font-size:10.00pt"><tspan x="68.7" y="32.0">Tree</tspan><tspan x="62.9" y="50.0">parser</tspan></text></g><g transform="translate(3026.78,1574.00)" id="shape133"><path stroke="#323232" fill="#ffffff" stroke-width="1" d="M100.0,63.0L100.0,7.0C100.0,3.1,96.9,.0,93.0,.0L7.0,.0C3.1,.0,.0,3.1,.0,7.0L.0,63.0C.0,66.9,3.1,70.0,7.0,70.0L93.0,70.0C96.9,70.0,100.0,66.9,100.0,63.0z" fill-rule="nonzero"/><text xml:space="preserve" style="fill:#191919;font-family:Microsoft YaHei;font-size:10.00pt"><tspan x="30.8" y="32.0">Parser</tspan><tspan x="17.4" y="50.0">elements[]</tspan></text></g><g transform="translate(2990.00,1706.00)" id="shape134"><path stroke="#323232" fill="#ffffff" stroke-width="1" d="M172.0,63.0L172.0,7.0C172.0,3.1,168.9,.0,165.0,.0L7.0,.0C3.1,.0,.0,3.1,.0,7.0L.0,63.0C.0,66.9,3.1,70.0,7.0,70.0L165.0,70.0C168.9,70.0,172.0,66.9,172.0,63.0z" fill-rule="nonzero"/><text xml:space="preserve" style="fill:#191919;font-family:Microsoft YaHei;font-size:10.00pt"><tspan x="15.0" y="41.0">IdToken(null, reserved)</tspan></text></g><g transform="translate(3076.78,1644.00)" id="shape135"><path stroke="#191919" fill="none" stroke-width="1" d="M.0,.0L.0,56.0"/><path stroke="#191919" fill="#191919" stroke-width="1" d="M3.0,56.0L.0,62.0L-3.0,56.0L3.0,56.0" stroke-linecap="round"/></g><g transform="translate(3229.13,1706.00)" id="shape136"><path stroke="#323232" fill="#ffffff" stroke-width="1" d="M132.3,63.0L132.3,7.0C132.3,3.1,129.1,.0,125.3,.0L7.0,.0C3.1,.0,.0,3.1,.0,7.0L.0,63.0C.0,66.9,3.1,70.0,7.0,70.0L125.3,70.0C129.1,70.0,132.3,66.9,132.3,63.0z" fill-rule="nonzero"/><text xml:space="preserve" style="fill:#191919;font-family:Microsoft YaHei;font-size:10.00pt"><tspan x="35.8" y="23.0">paramList</tspan><tspan x="46.9" y="41.0">Parser</tspan><tspan x="33.5" y="59.0">elements[]</tspan></text></g><g transform="translate(3451.74,1574.00)" id="shape137"><path stroke="#323232" fill="#ffffff" stroke-width="1" d="M164.5,63.0L164.5,7.0C164.5,3.1,161.4,.0,157.5,.0L7.0,.0C3.1,.0,.0,3.1,.0,7.0L.0,63.0C.0,66.9,3.1,70.0,7.0,70.0L157.5,70.0C161.4,70.0,164.5,66.9,164.5,63.0z" fill-rule="nonzero"/><text xml:space="preserve" style="fill:#191919;font-family:Microsoft YaHei;font-size:10.00pt"><tspan x="68.7" y="32.0">Tree</tspan><tspan x="62.9" y="50.0">parser</tspan></text></g><g transform="translate(3462.00,1706.00)" id="shape138"><path stroke="#323232" fill="#ffffff" stroke-width="1" d="M144.0,63.0L144.0,7.0C144.0,3.1,140.9,.0,137.0,.0L7.0,.0C3.1,.0,.0,3.1,.0,7.0L.0,63.0C.0,66.9,3.1,70.0,7.0,70.0L137.0,70.0C140.9,70.0,144.0,66.9,144.0,63.0z" fill-rule="nonzero"/><text xml:space="preserve" style="fill:#191919;font-family:Microsoft YaHei;font-size:10.00pt"><tspan x="55.2" y="23.0">block</tspan><tspan x="52.8" y="41.0">Parser</tspan><tspan x="39.4" y="59.0">elements[]</tspan></text></g><g transform="translate(3295.26,1644.00)" id="shape139"><path stroke="#191919" fill="none" stroke-width="1" d="M.0,.0L.0,56.0"/><path stroke="#191919" fill="#191919" stroke-width="1" d="M3.0,56.0L.0,62.0L-3.0,56.0L3.0,56.0" stroke-linecap="round"/></g><g transform="translate(3534.00,1644.00)" id="shape140"><path stroke="#191919" fill="none" stroke-width="1" d="M.0,.0L.0,56.0"/><path stroke="#191919" fill="#191919" stroke-width="1" d="M3.0,56.0L.0,62.0L-3.0,56.0L3.0,56.0" stroke-linecap="round"/></g><g transform="translate(3175.00,1511.25)" id="shape141"><path stroke="#191919" fill="none" stroke-width="1" d="M.0,.0L.0,35.0L-99.0,35.0L-99.0,57.0"/><path stroke="#191919" fill="#191919" stroke-width="1" d="M-96.0,57.0L-99.0,63.0L-102.0,57.0L-96.0,57.0" stroke-linecap="round"/></g><g transform="translate(3175.00,1511.00)" id="shape142"><path stroke="#191919" fill="none" stroke-width="1" d="M.0,.0L.0,35.0L120.0,35.0L120.0,57.0"/><path stroke="#191919" fill="#191919" stroke-width="1" d="M123.0,57.0L120.0,63.0L117.0,57.0L123.0,57.0" stroke-linecap="round"/></g><g transform="translate(3175.00,1511.00)" id="shape143"><path stroke="#191919" fill="none" stroke-width="1" d="M.0,.0L.0,35.0L358.0,35.0L358.0,57.0"/><path stroke="#191919" fill="#191919" stroke-width="1" d="M361.0,57.0L358.0,63.0L355.0,57.0L361.0,57.0" stroke-linecap="round"/></g><g transform="translate(3175.00,1511.00)" id="shape144"><path stroke="#191919" fill="none" stroke-width="1" d="M.0,.0L.0,35.0L-322.0,35.0L-322.0,57.0"/><path stroke="#191919" fill="#191919" stroke-width="1" d="M-319.0,57.0L-322.0,63.0L-325.0,57.0L-319.0,57.0" stroke-linecap="round"/></g><g transform="translate(3016.56,1877.00)" id="shape145"><path stroke="#323232" fill="#ffffff" stroke-width="1" d="M164.5,63.0L164.5,7.0C164.5,3.1,161.4,.0,157.5,.0L7.0,.0C3.1,.0,.0,3.1,.0,7.0L.0,63.0C.0,66.9,3.1,70.0,7.0,70.0L157.5,70.0C161.4,70.0,164.5,66.9,164.5,63.0z" fill-rule="nonzero"/><text xml:space="preserve" style="fill:#191919;font-family:Microsoft YaHei;font-size:10.00pt"><tspan x="69.1" y="32.0">Skip</tspan><tspan x="61.5" y="50.0">tokens</tspan></text></g><g transform="translate(3048.83,2009.00)" id="shape146"><path stroke="#323232" fill="#ffffff" stroke-width="1" d="M100.0,63.0L100.0,7.0C100.0,3.1,96.9,.0,93.0,.0L7.0,.0C3.1,.0,.0,3.1,.0,7.0L.0,63.0C.0,66.9,3.1,70.0,7.0,70.0L93.0,70.0C96.9,70.0,100.0,66.9,100.0,63.0z" fill-rule="nonzero"/><text xml:space="preserve" style="fill:#191919;font-family:Microsoft YaHei;font-size:10.00pt"><tspan x="34.8" y="41.0">“(”</tspan></text></g><g transform="translate(3098.82,1947.00)" id="shape147"><path stroke="#191919" fill="none" stroke-width="1" d="M.0,.0L.0,56.0"/><path stroke="#191919" fill="#191919" stroke-width="1" d="M3.0,56.0L.0,62.0L-3.0,56.0L3.0,56.0" stroke-linecap="round"/></g><g transform="translate(3409.43,1877.00)" id="shape148"><path stroke="#323232" fill="#ffffff" stroke-width="1" d="M164.5,63.0L164.5,7.0C164.5,3.1,161.4,.0,157.5,.0L7.0,.0C3.1,.0,.0,3.1,.0,7.0L.0,63.0C.0,66.9,3.1,70.0,7.0,70.0L157.5,70.0C161.4,70.0,164.5,66.9,164.5,63.0z" fill-rule="nonzero"/><text xml:space="preserve" style="fill:#191919;font-family:Microsoft YaHei;font-size:10.00pt"><tspan x="69.1" y="32.0">Skip</tspan><tspan x="61.5" y="50.0">tokens</tspan></text></g><g transform="translate(3441.44,2009.00)" id="shape149"><path stroke="#323232" fill="#ffffff" stroke-width="1" d="M100.0,63.0L100.0,7.0C100.0,3.1,96.9,.0,93.0,.0L7.0,.0C3.1,.0,.0,3.1,.0,7.0L.0,63.0C.0,66.9,3.1,70.0,7.0,70.0L93.0,70.0C96.9,70.0,100.0,66.9,100.0,63.0z" fill-rule="nonzero"/><text xml:space="preserve" style="fill:#191919;font-family:Microsoft YaHei;font-size:10.00pt"><tspan x="34.8" y="41.0">“)”</tspan></text></g><g transform="translate(3491.69,1947.00)" id="shape150"><path stroke="#191919" fill="none" stroke-width="1" d="M.0,.0L.0,31.0L-0.3,31.0L-0.3,56.0"/><path stroke="#191919" fill="#191919" stroke-width="1" d="M2.8,56.0L-0.3,62.0L-3.3,56.0L2.8,56.0" stroke-linecap="round"/></g><g transform="translate(3245.26,1877.00)" id="shape151"><path stroke="#323232" fill="#ffffff" stroke-width="1" d="M100.0,63.0L100.0,7.0C100.0,3.1,96.9,.0,93.0,.0L7.0,.0C3.1,.0,.0,3.1,.0,7.0L.0,63.0C.0,66.9,3.1,70.0,7.0,70.0L93.0,70.0C96.9,70.0,100.0,66.9,100.0,63.0z" fill-rule="nonzero"/><text xml:space="preserve" style="fill:#191919;font-family:Microsoft YaHei;font-size:10.00pt"><tspan x="28.7" y="32.0">OrTree</tspan><tspan x="23.3" y="50.0">parsers[]</tspan></text></g><g transform="translate(3072.37,2141.00)" id="shape152"><path stroke="#323232" fill="#ffffff" stroke-width="1" d="M165.7,79.0L165.7,7.0C165.7,3.1,162.6,.0,158.7,.0L7.0,.0C3.1,.0,.0,3.1,.0,7.0L.0,79.0C.0,82.9,3.1,86.0,7.0,86.0L158.7,86.0C162.6,86.0,165.7,82.9,165.7,79.0z" fill-rule="nonzero"/><text xml:space="preserve" style="fill:#191919;font-family:Microsoft YaHei;font-size:10.00pt"><tspan x="61.7" style="font-family:Microsoft YaHei UI;font-size:9.00pt" y="30.0">params</tspan><tspan x="16.9" y="48.0">Parser(ParameterList)</tspan><tspan x="50.2" y="66.0">elements[]</tspan></text></g><g transform="translate(3295.26,1776.00)" id="shape153"><path stroke="#191919" fill="none" stroke-width="1" d="M.0,.0L.0,95.0"/><path stroke="#191919" fill="#191919" stroke-width="1" d="M3.0,95.0L.0,101.0L-3.0,95.0L3.0,95.0" stroke-linecap="round"/></g><g transform="translate(3295.26,1776.00)" id="shape154"><path stroke="#191919" fill="none" stroke-width="1" d="M.0,.0L.0,73.0L-197.0,73.0L-197.0,95.0"/><path stroke="#191919" fill="#191919" stroke-width="1" d="M-194.0,95.0L-197.0,101.0L-200.0,95.0L-194.0,95.0" stroke-linecap="round"/></g><g transform="translate(3295.26,1776.00)" id="shape155"><path stroke="#191919" fill="none" stroke-width="1" d="M.0,.0L.0,73.0L196.0,73.0L196.0,95.0"/><path stroke="#191919" fill="#191919" stroke-width="1" d="M199.0,95.0L196.0,101.0L193.0,95.0L199.0,95.0" stroke-linecap="round"/></g><g transform="translate(2933.11,2299.00)" id="shape156"><path stroke="#323232" fill="#ffffff" stroke-width="1" d="M164.5,63.0L164.5,7.0C164.5,3.1,161.4,.0,157.5,.0L7.0,.0C3.1,.0,.0,3.1,.0,7.0L.0,63.0C.0,66.9,3.1,70.0,7.0,70.0L157.5,70.0C161.4,70.0,164.5,66.9,164.5,63.0z" fill-rule="nonzero"/><text xml:space="preserve" style="fill:#191919;font-family:Microsoft YaHei;font-size:10.00pt"><tspan x="68.7" y="32.0">Tree</tspan><tspan x="62.9" y="50.0">parser</tspan></text></g><g transform="translate(3171.85,2299.00)" id="shape157"><path stroke="#323232" fill="#ffffff" stroke-width="1" d="M164.5,63.0L164.5,7.0C164.5,3.1,161.4,.0,157.5,.0L7.0,.0C3.1,.0,.0,3.1,.0,7.0L.0,63.0C.0,66.9,3.1,70.0,7.0,70.0L157.5,70.0C161.4,70.0,164.5,66.9,164.5,63.0z" fill-rule="nonzero"/><text xml:space="preserve" style="fill:#191919;font-family:Microsoft YaHei;font-size:10.00pt"><tspan x="60.5" y="32.0">Repeat</tspan><tspan x="62.9" y="50.0">parser</tspan></text></g><g transform="translate(3182.11,2431.00)" id="shape158"><path stroke="#323232" fill="#ffffff" stroke-width="1" d="M144.0,63.0L144.0,7.0C144.0,3.1,140.9,.0,137.0,.0L7.0,.0C3.1,.0,.0,3.1,.0,7.0L.0,63.0C.0,66.9,3.1,70.0,7.0,70.0L137.0,70.0C140.9,70.0,144.0,66.9,144.0,63.0z" fill-rule="nonzero"/><text xml:space="preserve" style="fill:#191919;font-family:Microsoft YaHei;font-size:10.00pt"><tspan x="52.8" y="32.0">Parser</tspan><tspan x="39.4" y="50.0">elements[]</tspan></text></g><g transform="translate(3074.48,2582.00)" id="shape159"><path stroke="#323232" fill="#ffffff" stroke-width="1" d="M164.5,63.0L164.5,7.0C164.5,3.1,161.4,.0,157.5,.0L7.0,.0C3.1,.0,.0,3.1,.0,7.0L.0,63.0C.0,66.9,3.1,70.0,7.0,70.0L157.5,70.0C161.4,70.0,164.5,66.9,164.5,63.0z" fill-rule="nonzero"/><text xml:space="preserve" style="fill:#191919;font-family:Microsoft YaHei;font-size:10.00pt"><tspan x="69.1" y="32.0">Skip</tspan><tspan x="61.5" y="50.0">tokens</tspan></text></g><g transform="translate(3106.75,2714.00)" id="shape160"><path stroke="#323232" fill="#ffffff" stroke-width="1" d="M100.0,63.0L100.0,7.0C100.0,3.1,96.9,.0,93.0,.0L7.0,.0C3.1,.0,.0,3.1,.0,7.0L.0,63.0C.0,66.9,3.1,70.0,7.0,70.0L93.0,70.0C96.9,70.0,100.0,66.9,100.0,63.0z" fill-rule="nonzero"/><text xml:space="preserve" style="fill:#191919;font-family:Microsoft YaHei;font-size:10.00pt"><tspan x="35.4" y="41.0">“,”</tspan></text></g><g transform="translate(3156.74,2652.00)" id="shape161"><path stroke="#191919" fill="none" stroke-width="1" d="M.0,.0L.0,56.0"/><path stroke="#191919" fill="#191919" stroke-width="1" d="M3.0,56.0L.0,62.0L-3.0,56.0L3.0,56.0" stroke-linecap="round"/></g><g transform="translate(3289.74,2582.00)" id="shape162"><path stroke="#323232" fill="#ffffff" stroke-width="1" d="M164.5,63.0L164.5,7.0C164.5,3.1,161.4,.0,157.5,.0L7.0,.0C3.1,.0,.0,3.1,.0,7.0L.0,63.0C.0,66.9,3.1,70.0,7.0,70.0L157.5,70.0C161.4,70.0,164.5,66.9,164.5,63.0z" fill-rule="nonzero"/><text xml:space="preserve" style="fill:#191919;font-family:Microsoft YaHei;font-size:10.00pt"><tspan x="68.7" y="32.0">Tree</tspan><tspan x="62.9" y="50.0">parser</tspan></text></g><g transform="translate(3300.00,2819.00)" id="shape163"><path stroke="#323232" fill="#ffffff" stroke-width="1" d="M144.0,63.0L144.0,7.0C144.0,3.1,140.9,.0,137.0,.0L7.0,.0C3.1,.0,.0,3.1,.0,7.0L.0,63.0C.0,66.9,3.1,70.0,7.0,70.0L137.0,70.0C140.9,70.0,144.0,66.9,144.0,63.0z" fill-rule="nonzero"/><text xml:space="preserve" style="fill:#191919;font-family:Microsoft YaHei;font-size:10.00pt"><tspan x="52.1" y="23.0">param</tspan><tspan x="52.8" y="41.0">Parser</tspan><tspan x="39.4" y="59.0">elements[]</tspan></text></g><g transform="translate(3372.00,2652.00)" id="shape164"><path stroke="#191919" fill="none" stroke-width="1" d="M.0,.0L-0.0,161.0"/><path stroke="#191919" fill="#191919" stroke-width="1" d="M3.0,161.0L-0.0,167.0L-3.0,161.0L3.0,161.0" stroke-linecap="round"/></g><g transform="translate(3155.24,2227.00)" id="shape165"><path stroke="#191919" fill="none" stroke-width="1" d="M.0,.0L.0,44.0L-140.0,44.0L-140.0,66.0"/><path stroke="#191919" fill="#191919" stroke-width="1" d="M-137.0,66.0L-140.0,72.0L-143.0,66.0L-137.0,66.0" stroke-linecap="round"/></g><g transform="translate(3155.24,2227.00)" id="shape166"><path stroke="#191919" fill="none" stroke-width="1" d="M.0,.0L.0,44.0L98.0,44.0L98.0,66.0"/><path stroke="#191919" fill="#191919" stroke-width="1" d="M101.0,66.0L98.0,72.0L95.0,66.0L101.0,66.0" stroke-linecap="round"/></g><g transform="translate(3254.11,2369.00)" id="shape167"><path stroke="#191919" fill="none" stroke-width="1" d="M.0,.0L.0,56.0"/><path stroke="#191919" fill="#191919" stroke-width="1" d="M3.0,56.0L.0,62.0L-3.0,56.0L3.0,56.0" stroke-linecap="round"/></g><g transform="translate(3254.11,2501.00)" id="shape168"><path stroke="#191919" fill="none" stroke-width="1" d="M.0,.0L.0,53.0L-98.0,53.0L-98.0,75.0"/><path stroke="#191919" fill="#191919" stroke-width="1" d="M-95.0,75.0L-98.0,81.0L-101.0,75.0L-95.0,75.0" stroke-linecap="round"/></g><g transform="translate(3254.11,2501.00)" id="shape169"><path stroke="#191919" fill="none" stroke-width="1" d="M.0,.0L.0,53.0L117.0,53.0L117.0,75.0"/><path stroke="#191919" fill="#191919" stroke-width="1" d="M120.0,75.0L117.0,81.0L114.0,75.0L120.0,75.0" stroke-linecap="round"/></g><g transform="translate(3286.00,2951.00)" id="shape170"><path stroke="#323232" fill="#ffffff" stroke-width="1" d="M172.0,63.0L172.0,7.0C172.0,3.1,168.9,.0,165.0,.0L7.0,.0C3.1,.0,.0,3.1,.0,7.0L.0,63.0C.0,66.9,3.1,70.0,7.0,70.0L165.0,70.0C168.9,70.0,172.0,66.9,172.0,63.0z" fill-rule="nonzero"/><text xml:space="preserve" style="fill:#191919;font-family:Microsoft YaHei;font-size:10.00pt"><tspan x="15.0" y="41.0">IdToken(null, reserved)</tspan></text></g><g transform="translate(3372.00,2889.00)" id="shape171"><path stroke="#191919" fill="none" stroke-width="1" d="M.0,.0L.0,56.0"/><path stroke="#191919" fill="#191919" stroke-width="1" d="M3.0,56.0L.0,62.0L-3.0,56.0L3.0,56.0" stroke-linecap="round"/></g><g transform="translate(3015.37,2369.00)" id="shape172"><path stroke="#191919" fill="none" stroke-width="1" d="M.0,.0L.0,485.0L278.0,485.0"/><path stroke="#191919" fill="#191919" stroke-width="1" d="M278.0,482.0L284.0,485.0L278.0,488.0L278.0,482.0" stroke-linecap="round"/></g><g transform="translate(1884.00,2034.50)" id="shape173"><path stroke="#323232" fill="#ffffff" stroke-width="1" d="M100.0,53.0L100.0,7.0C100.0,3.1,96.9,.0,93.0,.0L7.0,.0C3.1,.0,.0,3.1,.0,7.0L.0,53.0C.0,56.9,3.1,60.0,7.0,60.0L93.0,60.0C96.9,60.0,100.0,56.9,100.0,53.0z" fill-rule="nonzero"/><text xml:space="preserve" style="fill:#191919;font-family:Microsoft YaHei;font-size:10.00pt"><tspan x="28.2" y="27.0">Repeat</tspan><tspan x="23.3" y="45.0">parsers[]</tspan></text></g><g transform="translate(1884.00,2157.00)" id="shape174"><path stroke="#323232" fill="#ffffff" stroke-width="1" d="M100.0,63.0L100.0,7.0C100.0,3.1,96.9,.0,93.0,.0L7.0,.0C3.1,.0,.0,3.1,.0,7.0L.0,63.0C.0,66.9,3.1,70.0,7.0,70.0L93.0,70.0C96.9,70.0,100.0,66.9,100.0,63.0z" fill-rule="nonzero"/><text xml:space="preserve" style="fill:#191919;font-family:Microsoft YaHei;font-size:10.00pt"><tspan x="30.6" style="font-family:Microsoft YaHei UI;font-size:9.00pt" y="22.0">postfix</tspan><tspan x="30.8" y="40.0">Parser</tspan><tspan x="17.4" y="58.0">elements[]</tspan></text></g><g transform="translate(1606.29,2311.00)" id="shape175"><path stroke="#323232" fill="#ffffff" stroke-width="1" d="M164.5,63.0L164.5,7.0C164.5,3.1,161.4,.0,157.5,.0L7.0,.0C3.1,.0,.0,3.1,.0,7.0L.0,63.0C.0,66.9,3.1,70.0,7.0,70.0L157.5,70.0C161.4,70.0,164.5,66.9,164.5,63.0z" fill-rule="nonzero"/><text xml:space="preserve" style="fill:#191919;font-family:Microsoft YaHei;font-size:10.00pt"><tspan x="69.1" y="32.0">Skip</tspan><tspan x="61.5" y="50.0">tokens</tspan></text></g><g transform="translate(1638.30,2443.00)" id="shape176"><path stroke="#323232" fill="#ffffff" stroke-width="1" d="M100.0,63.0L100.0,7.0C100.0,3.1,96.9,.0,93.0,.0L7.0,.0C3.1,.0,.0,3.1,.0,7.0L.0,63.0C.0,66.9,3.1,70.0,7.0,70.0L93.0,70.0C96.9,70.0,100.0,66.9,100.0,63.0z" fill-rule="nonzero"/><text xml:space="preserve" style="fill:#191919;font-family:Microsoft YaHei;font-size:10.00pt"><tspan x="30.5" y="41.0">“（”</tspan></text></g><g transform="translate(2241.74,2311.00)" id="shape177"><path stroke="#323232" fill="#ffffff" stroke-width="1" d="M164.5,63.0L164.5,7.0C164.5,3.1,161.4,.0,157.5,.0L7.0,.0C3.1,.0,.0,3.1,.0,7.0L.0,63.0C.0,66.9,3.1,70.0,7.0,70.0L157.5,70.0C161.4,70.0,164.5,66.9,164.5,63.0z" fill-rule="nonzero"/><text xml:space="preserve" style="fill:#191919;font-family:Microsoft YaHei;font-size:10.00pt"><tspan x="69.1" y="32.0">Skip</tspan><tspan x="61.5" y="50.0">tokens</tspan></text></g><g transform="translate(2273.75,2443.00)" id="shape178"><path stroke="#323232" fill="#ffffff" stroke-width="1" d="M100.0,63.0L100.0,7.0C100.0,3.1,96.9,.0,93.0,.0L7.0,.0C3.1,.0,.0,3.1,.0,7.0L.0,63.0C.0,66.9,3.1,70.0,7.0,70.0L93.0,70.0C96.9,70.0,100.0,66.9,100.0,63.0z" fill-rule="nonzero"/><text xml:space="preserve" style="fill:#191919;font-family:Microsoft YaHei;font-size:10.00pt"><tspan x="30.5" y="41.0">“）”</tspan></text></g><g transform="translate(3295.26,1947.00)" id="shape179"><path stroke="#191919" fill="none" stroke-width="1" d="M.0,.0L.0,166.0L-140.0,166.0L-140.0,188.0"/><path stroke="#191919" fill="#191919" stroke-width="1" d="M-137.0,188.0L-140.0,194.0L-143.0,188.0L-137.0,188.0" stroke-linecap="round"/></g><g transform="translate(1884.00,2311.00)" id="shape180"><path stroke="#323232" fill="#ffffff" stroke-width="1" d="M100.0,63.0L100.0,7.0C100.0,3.1,96.9,.0,93.0,.0L7.0,.0C3.1,.0,.0,3.1,.0,7.0L.0,63.0C.0,66.9,3.1,70.0,7.0,70.0L93.0,70.0C96.9,70.0,100.0,66.9,100.0,63.0z" fill-rule="nonzero"/><text xml:space="preserve" style="fill:#191919;font-family:Microsoft YaHei;font-size:10.00pt"><tspan x="28.7" y="32.0">OrTree</tspan><tspan x="23.3" y="50.0">parsers[]</tspan></text></g><g transform="translate(1855.50,2435.00)" id="shape181"><path stroke="#323232" fill="#ffffff" stroke-width="1" d="M157.0,79.0L157.0,7.0C157.0,3.1,153.9,.0,150.0,.0L7.0,.0C3.1,.0,.0,3.1,.0,7.0L.0,79.0C.0,82.9,3.1,86.0,7.0,86.0L150.0,86.0C153.9,86.0,157.0,82.9,157.0,79.0z" fill-rule="nonzero"/><text xml:space="preserve" style="fill:#191919;font-family:Microsoft YaHei;font-size:10.00pt"><tspan x="66.3" style="font-family:Microsoft YaHei UI;font-size:9.00pt" y="30.0">args</tspan><tspan x="20.6" y="48.0">Parser(Arguments)</tspan><tspan x="45.9" y="66.0">elements[]</tspan></text></g><g transform="translate(1934.00,2381.00)" id="shape182"><path stroke="#191919" fill="none" stroke-width="1" d="M.0,.0L.0,48.0"/><path stroke="#191919" fill="#191919" stroke-width="1" d="M3.0,48.0L.0,54.0L-3.0,48.0L3.0,48.0" stroke-linecap="round"/></g><g transform="translate(1934.00,2094.50)" id="shape183"><path stroke="#191919" fill="none" stroke-width="1" d="M.0,.0L.0,57.0"/><path stroke="#191919" fill="#191919" stroke-width="1" d="M3.0,57.0L.0,63.0L-3.0,57.0L3.0,57.0" stroke-linecap="round"/></g><g transform="translate(2324.00,2381.00)" id="shape184"><path stroke="#191919" fill="none" stroke-width="1" d="M.0,.0L.0,56.0"/><path stroke="#191919" fill="#191919" stroke-width="1" d="M3.0,56.0L.0,62.0L-3.0,56.0L3.0,56.0" stroke-linecap="round"/></g><g transform="translate(1688.55,2381.00)" id="shape185"><path stroke="#191919" fill="none" stroke-width="1" d="M.0,.0L.0,56.0"/><path stroke="#191919" fill="#191919" stroke-width="1" d="M3.0,56.0L.0,62.0L-3.0,56.0L3.0,56.0" stroke-linecap="round"/></g><g transform="translate(1934.00,2227.00)" id="shape186"><path stroke="#191919" fill="none" stroke-width="1" d="M.0,.0L.0,56.0L-246.0,56.0L-246.0,78.0"/><path stroke="#191919" fill="#191919" stroke-width="1" d="M-243.0,78.0L-246.0,84.0L-249.0,78.0L-243.0,78.0" stroke-linecap="round"/></g><g transform="translate(1934.00,2227.00)" id="shape187"><path stroke="#191919" fill="none" stroke-width="1" d="M.0,.0L.0,78.0"/><path stroke="#191919" fill="#191919" stroke-width="1" d="M3.0,78.0L.0,84.0L-3.0,78.0L3.0,78.0" stroke-linecap="round"/></g><g transform="translate(1934.00,2227.00)" id="shape188"><path stroke="#191919" fill="none" stroke-width="1" d="M.0,.0L.0,56.0L38.0,56.0C38.0,52.7,40.7,50.0,44.0,50.0C47.3,50.0,50.0,52.7,50.0,56.0L389.0,56.0L389.0,78.0"/><path stroke="#191919" fill="#191919" stroke-width="1" d="M392.0,78.0L389.0,84.0L386.0,78.0L392.0,78.0" stroke-linecap="round"/></g><g transform="translate(1058.90,1958.50)" id="shape189"><path stroke="#191919" fill="none" stroke-width="1" d="M.0,.0L.0,48.0L262.5,48.0C262.5,44.7,265.2,41.9,268.5,41.9C271.9,41.9,274.6,44.7,274.6,48.0L876.0,48.0L876.0,70.0"/><path stroke="#191919" fill="#191919" stroke-width="1" d="M879.0,70.0L876.0,76.0L873.0,70.0L879.0,70.0" stroke-linecap="round"/></g><g transform="translate(1783.36,2611.00)" id="shape190"><path stroke="#323232" fill="#ffffff" stroke-width="1" d="M164.5,63.0L164.5,7.0C164.5,3.1,161.4,.0,157.5,.0L7.0,.0C3.1,.0,.0,3.1,.0,7.0L.0,63.0C.0,66.9,3.1,70.0,7.0,70.0L157.5,70.0C161.4,70.0,164.5,66.9,164.5,63.0z" fill-rule="nonzero"/><text xml:space="preserve" style="fill:#191919;font-family:Microsoft YaHei;font-size:10.00pt"><tspan x="68.7" y="32.0">Tree</tspan><tspan x="62.9" y="50.0">parser</tspan></text></g><g transform="translate(1984.63,2611.00)" id="shape191"><path stroke="#323232" fill="#ffffff" stroke-width="1" d="M100.0,63.0L100.0,7.0C100.0,3.1,96.9,.0,93.0,.0L7.0,.0C3.1,.0,.0,3.1,.0,7.0L.0,63.0C.0,66.9,3.1,70.0,7.0,70.0L93.0,70.0C96.9,70.0,100.0,66.9,100.0,63.0z" fill-rule="nonzero"/><text xml:space="preserve" style="fill:#191919;font-family:Microsoft YaHei;font-size:10.00pt"><tspan x="28.2" y="32.0">Repeat</tspan><tspan x="23.3" y="50.0">parsers[]</tspan></text></g><g transform="translate(1933.48,2759.00)" id="shape192"><path stroke="#323232" fill="#ffffff" stroke-width="1" d="M164.5,63.0L164.5,7.0C164.5,3.1,161.4,.0,157.5,.0L7.0,.0C3.1,.0,.0,3.1,.0,7.0L.0,63.0C.0,66.9,3.1,70.0,7.0,70.0L157.5,70.0C161.4,70.0,164.5,66.9,164.5,63.0z" fill-rule="nonzero"/><text xml:space="preserve" style="fill:#191919;font-family:Microsoft YaHei;font-size:10.00pt"><tspan x="69.1" y="32.0">Skip</tspan><tspan x="61.5" y="50.0">tokens</tspan></text></g><g transform="translate(1965.49,2891.00)" id="shape193"><path stroke="#323232" fill="#ffffff" stroke-width="1" d="M100.0,63.0L100.0,7.0C100.0,3.1,96.9,.0,93.0,.0L7.0,.0C3.1,.0,.0,3.1,.0,7.0L.0,63.0C.0,66.9,3.1,70.0,7.0,70.0L93.0,70.0C96.9,70.0,100.0,66.9,100.0,63.0z" fill-rule="nonzero"/><text xml:space="preserve" style="fill:#191919;font-family:Microsoft YaHei;font-size:10.00pt"><tspan x="35.4" y="41.0">“,”</tspan></text></g><g transform="translate(1934.00,2521.00)" id="shape194"><path stroke="#191919" fill="none" stroke-width="1" d="M.0,.0L.0,62.0L-69.0,62.0L-69.0,84.0"/><path stroke="#191919" fill="#191919" stroke-width="1" d="M-66.0,84.0L-69.0,90.0L-72.0,84.0L-66.0,84.0" stroke-linecap="round"/></g><g transform="translate(1934.00,2521.00)" id="shape195"><path stroke="#191919" fill="none" stroke-width="1" d="M.0,.0L.0,62.0L100.0,62.0L100.0,84.0"/><path stroke="#191919" fill="#191919" stroke-width="1" d="M103.0,84.0L100.0,90.0L97.0,84.0L103.0,84.0" stroke-linecap="round"/></g><g transform="translate(2034.00,2681.00)" id="shape196"><path stroke="#191919" fill="none" stroke-width="1" d="M.0,.0L.0,50.0L-19.0,50.0L-19.0,72.0"/><path stroke="#191919" fill="#191919" stroke-width="1" d="M-16.0,72.0L-19.0,78.0L-22.0,72.0L-16.0,72.0" stroke-linecap="round"/></g><g transform="translate(2015.00,2829.00)" id="shape197"><path stroke="#191919" fill="none" stroke-width="1" d="M.0,.0L.0,56.0"/><path stroke="#191919" fill="#191919" stroke-width="1" d="M3.0,56.0L.0,62.0L-3.0,56.0L3.0,56.0" stroke-linecap="round"/></g><g transform="translate(1783.36,2646.00)" id="shape198"><path stroke="#191919" fill="none" stroke-width="1" d="M.0,.0L-456.0,.0L-456.0,-1195.0L-570.0,-1195.0L-570.0,-1537.0L-579.1,-1537.0C-579.1,-1540.3,-581.8,-1543.0,-585.1,-1543.0C-588.4,-1543.0,-591.1,-1540.3,-591.1,-1537.0L-607.0,-1537.0"/><path stroke="#191919" fill="#191919" stroke-width="1" d="M-607.0,-1534.0L-613.0,-1537.0L-607.0,-1540.0L-607.0,-1534.0" stroke-linecap="round"/></g><g transform="translate(1965.49,2926.00)" id="shape199"><path stroke="#191919" fill="none" stroke-width="1" d="M.0,.0L-638.0,.0L-638.0,-1475.0L-752.0,-1475.0L-752.0,-1817.0L-761.2,-1817.0C-761.2,-1820.3,-763.9,-1823.0,-767.2,-1823.0C-770.5,-1823.0,-773.2,-1820.3,-773.2,-1817.0L-789.0,-1817.0"/><path stroke="#191919" fill="#191919" stroke-width="1" d="M-789.0,-1814.0L-795.0,-1817.0L-789.0,-1820.0L-789.0,-1814.0" stroke-linecap="round"/></g><g transform="translate(3319.13,2141.00)" id="shape200"><path stroke="#323232" fill="#ffffff" stroke-width="1" d="M165.7,79.0L165.7,7.0C165.7,3.1,162.6,.0,158.7,.0L7.0,.0C3.1,.0,.0,3.1,.0,7.0L.0,79.0C.0,82.9,3.1,86.0,7.0,86.0L158.7,86.0C162.6,86.0,165.7,82.9,165.7,79.0z" fill-rule="nonzero"/><text xml:space="preserve" style="fill:#191919;font-family:Microsoft YaHei;font-size:10.00pt"><tspan x="61.7" style="font-family:Microsoft YaHei UI;font-size:9.00pt" y="30.0">params</tspan><tspan x="16.9" y="48.0">Parser(ParameterList)</tspan><tspan x="50.2" y="66.0">elements[]</tspan></text></g><g transform="translate(3295.26,1947.00)" id="shape201"><path stroke="#191919" fill="none" stroke-width="1" d="M.0,.0L.0,166.0L106.0,166.0L106.0,188.0"/><path stroke="#191919" fill="#191919" stroke-width="1" d="M109.0,188.0L106.0,194.0L103.0,188.0L109.0,188.0" stroke-linecap="round"/></g><g transform="translate(2064.62,2443.00)" id="shape202"><path stroke="#323232" fill="#ffffff" stroke-width="1" d="M157.0,79.0L157.0,7.0C157.0,3.1,153.9,.0,150.0,.0L7.0,.0C3.1,.0,.0,3.1,.0,7.0L.0,79.0C.0,82.9,3.1,86.0,7.0,86.0L150.0,86.0C153.9,86.0,157.0,82.9,157.0,79.0z" fill-rule="nonzero"/><text xml:space="preserve" style="fill:#191919;font-family:Microsoft YaHei;font-size:10.00pt"><tspan x="66.3" style="font-family:Microsoft YaHei UI;font-size:9.00pt" y="30.0">args</tspan><tspan x="20.6" y="48.0">Parser(Arguments)</tspan><tspan x="45.9" y="66.0">elements[]</tspan></text></g><g transform="translate(1934.00,2381.00)" id="shape203"><path stroke="#191919" fill="none" stroke-width="1" d="M.0,.0L.0,34.0L38.0,34.0C38.0,30.7,40.7,28.0,44.0,28.0C47.3,28.0,50.0,30.7,50.0,34.0L208.0,34.0L208.0,56.0"/><path stroke="#191919" fill="#191919" stroke-width="1" d="M211.0,56.0L208.0,62.0L205.0,56.0L211.0,56.0" stroke-linecap="round"/></g><g transform="translate(3583.74,919.00)" id="shape204"><path stroke="#323232" fill="#ffffff" stroke-width="1" d="M164.5,63.0L164.5,7.0C164.5,3.1,161.4,.0,157.5,.0L7.0,.0C3.1,.0,.0,3.1,.0,7.0L.0,63.0C.0,66.9,3.1,70.0,7.0,70.0L157.5,70.0C161.4,70.0,164.5,66.9,164.5,63.0z" fill-rule="nonzero"/><text xml:space="preserve" style="fill:#191919;font-family:Microsoft YaHei;font-size:10.00pt"><tspan x="60.5" y="32.0">Repeat</tspan><tspan x="62.9" y="50.0">parser</tspan></text></g><g transform="translate(3491.50,827.00)" id="shape205"><path stroke="#191919" fill="none" stroke-width="1" d="M.0,.0L.0,64.0L174.0,64.0L174.0,86.0"/><path stroke="#191919" fill="#191919" stroke-width="1" d="M177.0,86.0L174.0,92.0L171.0,86.0L177.0,86.0" stroke-linecap="round"/></g><g transform="translate(3666.00,989.00)" id="shape206"><path stroke="#191919" fill="none" stroke-width="1" d="M.0,.0L.0,28.0L-257.4,28.0C-257.4,24.7,-260.1,22.0,-263.4,22.0C-266.7,22.0,-269.4,24.7,-269.4,28.0L-506.2,28.0C-506.2,24.7,-508.9,22.0,-512.2,22.0C-515.5,22.0,-518.2,24.7,-518.2,28.0L-744.7,28.0C-744.7,24.7,-747.4,22.0,-750.7,22.0C-754.0,22.0,-756.7,24.7,-756.7,28.0L-983.3,28.0C-983.3,24.7,-985.9,22.0,-989.3,22.0C-992.6,22.0,-995.3,24.7,-995.3,28.0L-1184.0,28.0C-1184.0,24.7,-1186.7,22.0,-1190.0,22.0C-1193.3,22.0,-1196.0,24.7,-1196.0,28.0L-1396.7,28.0C-1396.7,24.7,-1399.4,22.0,-1402.7,22.0C-1406.0,22.0,-1408.7,24.7,-1408.7,28.0L-1619.7,28.0C-1619.7,24.7,-1622.4,22.0,-1625.7,22.0C-1629.1,22.0,-1631.7,24.7,-1631.7,28.0L-1688.0,28.0L-1688.0,1489.0L-1659.5,1489.0"/><path stroke="#191919" fill="#191919" stroke-width="1" d="M-1659.5,1486.0L-1653.5,1489.0L-1659.5,1492.0L-1659.5,1486.0" stroke-linecap="round"/></g><g transform="matrix(0.00,1.00,-1.00,0.00,1749.2,625.4)" id="shape207"><path stroke="#191919" fill="#ffffff" stroke-width="1" d="M48.0,251.3L151.0,189.2M.0,.0L48.0,.0L48.0,502.7L.0,502.7L.0,.0z" fill-rule="nonzero"/><path stroke="#191919" fill="#191919" stroke-width="1" d="M154.4,187.1C155.6,189.0,155.0,191.4,153.1,192.6C151.2,193.7,148.7,193.1,147.6,191.2C146.4,189.3,147.0,186.9,148.9,185.7C150.8,184.6,153.3,185.2,154.4,187.1" stroke-linecap="round"/><text xml:space="preserve" transform="matrix(0.00,-1.00,1.00,0.00,-227.3,275.3)" style="fill:#454545;font-family:Microsoft YaHei;font-size:18.00pt"><tspan x="-153.7" y="261.3">这条分支表示一个if/if else代码块</tspan></text></g><g transform="matrix(0.00,1.00,-1.00,0.00,3393.4,629.0)" id="shape208"><path stroke="#191919" fill="#ffffff" stroke-width="1" d="M40.0,316.3L135.0,391.3M.0,.0L80.0,.0L80.0,316.3L.0,316.3L.0,.0z" fill-rule="nonzero"/><path stroke="#191919" fill="#191919" stroke-width="1" d="M138.1,393.8C136.8,395.5,134.3,395.8,132.5,394.4C130.8,393.1,130.5,390.6,131.9,388.8C133.2,387.1,135.7,386.8,137.5,388.2C139.2,389.5,139.5,392.1,138.1,393.8" stroke-linecap="round"/><text xml:space="preserve" transform="matrix(0.00,-1.00,1.00,0.00,-118.2,198.2)" style="fill:#454545;font-family:Microsoft YaHei;font-size:18.00pt"><tspan x="-98.0" y="152.2">这个分支表示一个while代</tspan><tspan x="16.0" y="184.2">码块</tspan></text></g><g transform="matrix(0.00,1.00,-1.00,0.00,4006.0,621.0)" id="shape209"><path stroke="#191919" fill="#ffffff" stroke-width="1" d="M40.0,325.3L140.7,406.4M.0,.0L80.0,.0L80.0,325.3L.0,325.3L.0,.0z" fill-rule="nonzero"/><path stroke="#191919" fill="#191919" stroke-width="1" d="M143.8,408.9C142.5,410.6,139.9,410.9,138.2,409.5C136.5,408.1,136.2,405.6,137.6,403.9C139.0,402.2,141.5,401.9,143.2,403.3C145.0,404.6,145.2,407.2,143.8,408.9" stroke-linecap="round"/><text xml:space="preserve" transform="matrix(0.00,-1.00,1.00,0.00,-122.7,202.7)" style="fill:#454545;font-family:Microsoft YaHei;font-size:18.00pt"><tspan x="-104.0" y="156.7">这个分支表示一个普通的计</tspan><tspan x="-92.0" y="188.7">算或是赋值或是方法调用</tspan></text></g><g transform="matrix(0.00,1.00,-1.00,0.00,3670.3,1299.0)" id="shape210"><path stroke="#191919" fill="#ffffff" stroke-width="1" d="M24.0,325.3L126.3,427.6M.0,.0L48.0,.0L48.0,325.3L.0,325.3L.0,.0z" fill-rule="nonzero"/><path stroke="#191919" fill="#191919" stroke-width="1" d="M129.1,430.4C127.5,432.0,125.0,432.0,123.4,430.4C121.9,428.8,121.9,426.3,123.4,424.7C125.0,423.2,127.5,423.2,129.1,424.7C130.6,426.3,130.6,428.8,129.1,430.4" stroke-linecap="round"/><text xml:space="preserve" transform="matrix(0.00,-1.00,1.00,0.00,-138.7,186.7)" style="fill:#454545;font-family:Microsoft YaHei;font-size:18.00pt"><tspan x="-24.0" y="172.7">方法定义</tspan></text></g><g transform="translate(2566.04,476.00)" id="shape211"><path stroke="#191919" fill="none" stroke-width="1" d="M.0,.0L.0,28.0L238.0,28.0L238.0,47.0"/><path stroke="#191919" fill="#191919" stroke-width="1" d="M241.0,47.0L238.0,53.0L235.0,47.0L241.0,47.0" stroke-linecap="round"/></g><g transform="translate(2566.04,476.00)" id="shape212"><path stroke="#191919" fill="none" stroke-width="1" d="M.0,.0L.0,28.0L-90.0,28.0L-90.0,715.0L-40.0,715.0C-40.0,711.7,-37.4,709.0,-34.0,709.0C-30.7,709.0,-28.0,711.7,-28.0,715.0L146.0,715.0L146.0,921.0L609.0,921.0L609.0,943.3"/><path stroke="#191919" fill="#191919" stroke-width="1" d="M612.0,943.3L609.0,949.3L606.0,943.3L612.0,943.3" stroke-linecap="round"/></g><g transform="translate(3605.00,1741.00)" id="shape213"><path stroke="#191919" fill="none" stroke-width="1" d="M.0,.0L28.0,.0L28.0,-222.0L-424.0,-222.0C-424.0,-225.3,-426.7,-228.0,-430.0,-228.0C-433.3,-228.0,-436.0,-225.3,-436.0,-222.0L-1558.7,-222.0C-1558.7,-225.3,-1561.4,-228.0,-1564.7,-228.0C-1568.1,-228.0,-1570.7,-225.3,-1570.7,-222.0L-1621.0,-222.0C-1621.0,-225.3,-1623.7,-228.0,-1627.0,-228.0C-1630.3,-228.0,-1633.0,-225.3,-1633.0,-222.0L-1873.0,-222.0L-1873.0,-597.0L-1877.0,-597.0"/><path stroke="#191919" fill="#191919" stroke-width="1" d="M-1877.0,-594.0L-1883.0,-597.0L-1877.0,-600.0L-1877.0,-594.0" stroke-linecap="round"/></g><g transform="translate(1121.00,1012.00)" id="shape214"><path stroke="#191919" fill="none" stroke-width="1" d="M.0,.0L.0,56.0"/><path stroke="#191919" fill="#191919" stroke-width="1" d="M3.0,56.0L.0,62.0L-3.0,56.0L3.0,56.0" stroke-linecap="round"/></g></g></svg>