<svg xmlns:xlink="http://www.w3.org/1999/xlink" height="3185" xmlns="http://www.w3.org/2000/svg" viewBox="0 0 5622 3185" xmlns:ev="http://www.w3.org/2001/xml-events" width="5622"><defs/><g id="page1" transform="translate(5.5,5.5)"><rect x="0" height="3175" y="0" width="5613" fill="#ffffff"/><g id="shape1" transform="translate(3876.52,157.00)"><path fill-rule="nonzero" stroke-width="1" stroke="#323232" d="M100.0,63.0L100.0,7.0C100.0,3.1,96.9,.0,93.0,.0L7.0,.0C3.1,.0,.0,3.1,.0,7.0L.0,63.0C.0,66.9,3.1,70.0,7.0,70.0L93.0,70.0C96.9,70.0,100.0,66.9,100.0,63.0z" fill="#ffffff"/><text xml:space="preserve" style="fill:#191919;font-family:Microsoft YaHei;font-size:10.00pt"><tspan x="22.9" y="23.0">program </tspan><tspan x="30.8" y="41.0">Parser</tspan><tspan x="17.4" y="59.0">elements[]</tspan></text></g><g id="shape2" transform="translate(3638.56,416.00)"><path fill-rule="nonzero" stroke-width="1" stroke="#323232" d="M100.0,53.0L100.0,7.0C100.0,3.1,96.9,.0,93.0,.0L7.0,.0C3.1,.0,.0,3.1,.0,7.0L.0,53.0C.0,56.9,3.1,60.0,7.0,60.0L93.0,60.0C96.9,60.0,100.0,56.9,100.0,53.0z" fill="#ffffff"/><text xml:space="preserve" style="fill:#191919;font-family:Microsoft YaHei;font-size:10.00pt"><tspan x="28.7" y="27.0">OrTree</tspan><tspan x="23.3" y="45.0">parsers[]</tspan></text></g><g id="shape3" transform="translate(3835.52,529.00)"><path fill-rule="nonzero" stroke-width="1" stroke="#323232" d="M182.0,53.0L182.0,7.0C182.0,3.1,178.9,.0,175.0,.0L7.0,.0C3.1,.0,.0,3.1,.0,7.0L.0,53.0C.0,56.9,3.1,60.0,7.0,60.0L175.0,60.0C178.9,60.0,182.0,56.9,182.0,53.0z" fill="#ffffff"/><text xml:space="preserve" style="fill:#191919;font-family:Microsoft YaHei;font-size:10.00pt"><tspan x="19.9" y="36.0">Parser(NullStmnt.class)</tspan></text></g><g id="shape4" transform="translate(3638.56,529.00)"><path fill-rule="nonzero" stroke-width="1" stroke="#323232" d="M100.0,63.0L100.0,7.0C100.0,3.1,96.9,.0,93.0,.0L7.0,.0C3.1,.0,.0,3.1,.0,7.0L.0,63.0C.0,66.9,3.1,70.0,7.0,70.0L93.0,70.0C96.9,70.0,100.0,66.9,100.0,63.0z" fill="#ffffff"/><text xml:space="preserve" style="fill:#191919;font-family:Microsoft YaHei;font-size:10.00pt"><tspan x="18.7" y="23.0">statement </tspan><tspan x="30.8" y="41.0">Parser</tspan><tspan x="17.4" y="59.0">elements[]</tspan></text></g><g id="shape5" transform="translate(4380.54,411.00)"><path fill-rule="nonzero" stroke-width="1" stroke="#323232" d="M100.0,53.0L100.0,7.0C100.0,3.1,96.9,.0,93.0,.0L7.0,.0C3.1,.0,.0,3.1,.0,7.0L.0,53.0C.0,56.9,3.1,60.0,7.0,60.0L93.0,60.0C96.9,60.0,100.0,56.9,100.0,53.0z" fill="#ffffff"/><text xml:space="preserve" style="fill:#191919;font-family:Microsoft YaHei;font-size:10.00pt"><tspan x="36.8" y="27.0">Skip</tspan><tspan x="29.2" y="45.0">tokens</tspan></text></g><g id="shape6" transform="translate(3926.52,227.00)"><path stroke-width="1" stroke="#191919" d="M.0,.0L.0,161.0L-238.0,161.0L-238.0,183.0" fill="none"/><path stroke-width="1" stroke="#191919" stroke-linecap="round" d="M-235.0,183.0L-238.0,189.0L-241.0,183.0L-235.0,183.0" fill="#191919"/></g><g id="shape7" transform="translate(3926.52,227.00)"><path stroke-width="1" stroke="#191919" d="M.0,.0L.0,160.0L504.0,160.0L504.0,178.0" fill="none"/><path stroke-width="1" stroke="#191919" stroke-linecap="round" d="M507.0,178.0L504.0,184.0L501.0,178.0L507.0,178.0" fill="#191919"/></g><g id="shape8" transform="translate(3688.56,476.00)"><path stroke-width="1" stroke="#191919" d="M.0,.0L.0,47.0" fill="none"/><path stroke-width="1" stroke="#191919" stroke-linecap="round" d="M3.0,47.0L.0,53.0L-3.0,47.0L3.0,47.0" fill="#191919"/></g><g id="shape9" transform="translate(3688.56,476.00)"><path stroke-width="1" stroke="#191919" d="M.0,.0L.0,28.0L238.0,28.0L238.0,47.0" fill="none"/><path stroke-width="1" stroke="#191919" stroke-linecap="round" d="M241.0,47.0L238.0,53.0L235.0,47.0L241.0,47.0" fill="#191919"/></g><g id="shape10" transform="translate(3638.56,661.36)"><path fill-rule="nonzero" stroke-width="1" stroke="#323232" d="M100.0,53.0L100.0,7.0C100.0,3.1,96.9,.0,93.0,.0L7.0,.0C3.1,.0,.0,3.1,.0,7.0L.0,53.0C.0,56.9,3.1,60.0,7.0,60.0L93.0,60.0C96.9,60.0,100.0,56.9,100.0,53.0z" fill="#ffffff"/><text xml:space="preserve" style="fill:#191919;font-family:Microsoft YaHei;font-size:10.00pt"><tspan x="28.7" y="27.0">OrTree</tspan><tspan x="23.3" y="45.0">parsers[]</tspan></text></g><g id="shape11" transform="translate(3688.56,599.00)"><path stroke-width="1" stroke="#191919" d="M.0,.0L.0,56.0" fill="none"/><path stroke-width="1" stroke="#191919" stroke-linecap="round" d="M3.0,56.0L.0,62.0L-3.0,56.0L3.0,56.0" fill="#191919"/></g><g id="shape12" transform="translate(2679.75,775.00)"><path fill-rule="nonzero" stroke-width="1" stroke="#323232" d="M164.5,63.0L164.5,7.0C164.5,3.1,161.4,.0,157.5,.0L7.0,.0C3.1,.0,.0,3.1,.0,7.0L.0,63.0C.0,66.9,3.1,70.0,7.0,70.0L157.5,70.0C161.4,70.0,164.5,66.9,164.5,63.0z" fill="#ffffff"/><text xml:space="preserve" style="fill:#191919;font-family:Microsoft YaHei;font-size:10.00pt"><tspan x="19.7" y="32.0">Parser(IfStmnt.class)</tspan><tspan x="49.6" y="50.0">elements[]</tspan></text></g><g id="shape13" transform="translate(3951.04,757.00)"><path fill-rule="nonzero" stroke-width="1" stroke="#323232" d="M173.5,63.0L173.5,7.0C173.5,3.1,170.4,.0,166.5,.0L7.0,.0C3.1,.0,.0,3.1,.0,7.0L.0,63.0C.0,66.9,3.1,70.0,7.0,70.0L166.5,70.0C170.4,70.0,173.5,66.9,173.5,63.0z" fill="#ffffff"/><text xml:space="preserve" style="fill:#191919;font-family:Microsoft YaHei;font-size:10.00pt"><tspan x="10.7" y="32.0">Parser(WhileStmnt.class)</tspan><tspan x="54.1" y="50.0">elements[]</tspan></text></g><g id="shape14" transform="translate(4505.52,757.00)"><path fill-rule="nonzero" stroke-width="1" stroke="#323232" d="M217.0,63.0L217.0,7.0C217.0,3.1,213.9,.0,210.0,.0L7.0,.0C3.1,.0,.0,3.1,.0,7.0L.0,63.0C.0,66.9,3.1,70.0,7.0,70.0L210.0,70.0C213.9,70.0,217.0,66.9,217.0,63.0z" fill="#ffffff"/><text xml:space="preserve" style="fill:#191919;font-family:Microsoft YaHei;font-size:10.00pt"><tspan x="88.1" y="23.0">simple</tspan><tspan x="31.6" y="41.0">Parser(PrimaryExpr.class)</tspan><tspan x="75.9" y="59.0">elements[]</tspan></text></g><g id="shape15" transform="translate(1946.52,942.50)"><path fill-rule="nonzero" stroke-width="1" stroke="#323232" d="M164.5,63.0L164.5,7.0C164.5,3.1,161.4,.0,157.5,.0L7.0,.0C3.1,.0,.0,3.1,.0,7.0L.0,63.0C.0,66.9,3.1,70.0,7.0,70.0L157.5,70.0C161.4,70.0,164.5,66.9,164.5,63.0z" fill="#ffffff"/><text xml:space="preserve" style="fill:#191919;font-family:Microsoft YaHei;font-size:10.00pt"><tspan x="69.1" y="32.0">Skip</tspan><tspan x="61.5" y="50.0">tokens</tspan></text></g><g id="shape16" transform="translate(2161.52,942.50)"><path fill-rule="nonzero" stroke-width="1" stroke="#323232" d="M164.5,63.0L164.5,7.0C164.5,3.1,161.4,.0,157.5,.0L7.0,.0C3.1,.0,.0,3.1,.0,7.0L.0,63.0C.0,66.9,3.1,70.0,7.0,70.0L157.5,70.0C161.4,70.0,164.5,66.9,164.5,63.0z" fill="#ffffff"/><text xml:space="preserve" style="fill:#191919;font-family:Microsoft YaHei;font-size:10.00pt"><tspan x="68.7" y="32.0">Tree</tspan><tspan x="62.9" y="50.0">parser</tspan></text></g><g id="shape17" transform="translate(2192.53,1074.50)"><path fill-rule="nonzero" stroke-width="1" stroke="#323232" d="M100.0,63.0L100.0,7.0C100.0,3.1,96.9,.0,93.0,.0L7.0,.0C3.1,.0,.0,3.1,.0,7.0L.0,63.0C.0,66.9,3.1,70.0,7.0,70.0L93.0,70.0C96.9,70.0,100.0,66.9,100.0,63.0z" fill="#ffffff"/><text xml:space="preserve" style="fill:#191919;font-family:Microsoft YaHei;font-size:10.00pt"><tspan x="36.4" y="23.0">expr</tspan><tspan x="30.8" y="41.0">Parser</tspan><tspan x="17.4" y="59.0">elements[]</tspan></text></g><g id="shape18" transform="translate(3688.56,721.36)"><path stroke-width="1" stroke="#191919" d="M.0,.0L.0,28.0L-84.0,28.0C-84.0,24.7,-86.7,22.0,-90.0,22.0C-93.4,22.0,-96.0,24.7,-96.0,28.0L-519.8,28.0C-519.8,24.7,-522.5,22.0,-525.8,22.0C-529.1,22.0,-531.8,24.7,-531.8,28.0L-927.0,28.0L-927.0,48.0" fill="none"/><path stroke-width="1" stroke="#191919" stroke-linecap="round" d="M-924.0,48.0L-927.0,54.0L-930.0,48.0L-924.0,48.0" fill="#191919"/></g><g id="shape19" transform="translate(2762.01,845.00)"><path stroke-width="1" stroke="#191919" d="M.0,.0L.0,69.0L-733.0,69.0L-733.0,91.0" fill="none"/><path stroke-width="1" stroke="#191919" stroke-linecap="round" d="M-730.0,91.0L-733.0,97.0L-736.0,91.0L-730.0,91.0" fill="#191919"/></g><g id="shape20" transform="translate(2762.01,845.00)"><path stroke-width="1" stroke="#191919" d="M.0,.0L.0,69.0L-518.0,69.0L-518.0,91.0" fill="none"/><path stroke-width="1" stroke="#191919" stroke-linecap="round" d="M-515.0,91.0L-518.0,97.0L-521.0,91.0L-515.0,91.0" fill="#191919"/></g><g id="shape21" transform="translate(3688.56,721.36)"><path stroke-width="1" stroke="#191919" d="M.0,.0L.0,28.0L348.0,28.0L348.0,30.0" fill="none"/><path stroke-width="1" stroke="#191919" stroke-linecap="round" d="M351.0,30.0L348.0,36.0L345.0,30.0L351.0,30.0" fill="#191919"/></g><g id="shape22" transform="translate(3688.56,721.36)"><path stroke-width="1" stroke="#191919" d="M.0,.0L.0,28.0L408.0,28.0L408.0,-120.0L925.0,-120.0L925.0,30.0" fill="none"/><path stroke-width="1" stroke="#191919" stroke-linecap="round" d="M928.0,30.0L925.0,36.0L922.0,30.0L928.0,30.0" fill="#191919"/></g><g id="shape23" transform="translate(2680.27,942.50)"><path fill-rule="nonzero" stroke-width="1" stroke="#323232" d="M164.5,63.0L164.5,7.0C164.5,3.1,161.4,.0,157.5,.0L7.0,.0C3.1,.0,.0,3.1,.0,7.0L.0,63.0C.0,66.9,3.1,70.0,7.0,70.0L157.5,70.0C161.4,70.0,164.5,66.9,164.5,63.0z" fill="#ffffff"/><text xml:space="preserve" style="fill:#191919;font-family:Microsoft YaHei;font-size:10.00pt"><tspan x="68.7" y="32.0">Tree</tspan><tspan x="62.9" y="50.0">parser</tspan></text></g><g id="shape24" transform="translate(2680.75,1100.75)"><path fill-rule="nonzero" stroke-width="1" stroke="#323232" d="M164.5,81.0L164.5,7.0C164.5,3.1,161.4,.0,157.5,.0L7.0,.0C3.1,.0,.0,3.1,.0,7.0L.0,81.0C.0,84.9,3.1,88.0,7.0,88.0L157.5,88.0C161.4,88.0,164.5,84.9,164.5,81.0z" fill="#ffffff"/><text xml:space="preserve" style="fill:#191919;font-family:Microsoft YaHei;font-size:10.00pt"><tspan x="65.5" y="32.0">block</tspan><tspan x="7.2" y="50.0">Parser(BlockStmnt.class)</tspan><tspan x="49.6" y="68.0">elements[]</tspan></text></g><g id="shape25" transform="translate(3303.55,942.75)"><path fill-rule="nonzero" stroke-width="1" stroke="#323232" d="M164.5,63.0L164.5,7.0C164.5,3.1,161.4,.0,157.5,.0L7.0,.0C3.1,.0,.0,3.1,.0,7.0L.0,63.0C.0,66.9,3.1,70.0,7.0,70.0L157.5,70.0C161.4,70.0,164.5,66.9,164.5,63.0z" fill="#ffffff"/><text xml:space="preserve" style="fill:#191919;font-family:Microsoft YaHei;font-size:10.00pt"><tspan x="60.5" y="32.0">Repeat</tspan><tspan x="62.9" y="50.0">parser</tspan></text></g><g id="shape26" transform="translate(3334.56,1176.75)"><path fill-rule="nonzero" stroke-width="1" stroke="#323232" d="M100.0,63.0L100.0,7.0C100.0,3.1,96.9,.0,93.0,.0L7.0,.0C3.1,.0,.0,3.1,.0,7.0L.0,63.0C.0,66.9,3.1,70.0,7.0,70.0L93.0,70.0C96.9,70.0,100.0,66.9,100.0,63.0z" fill="#ffffff"/><text xml:space="preserve" style="fill:#191919;font-family:Microsoft YaHei;font-size:10.00pt"><tspan x="30.8" y="32.0">Parser</tspan><tspan x="17.4" y="50.0">elements[]</tspan></text></g><g id="shape27" transform="translate(1977.53,1074.50)"><path fill-rule="nonzero" stroke-width="1" stroke="#323232" d="M100.0,63.0L100.0,7.0C100.0,3.1,96.9,.0,93.0,.0L7.0,.0C3.1,.0,.0,3.1,.0,7.0L.0,63.0C.0,66.9,3.1,70.0,7.0,70.0L93.0,70.0C96.9,70.0,100.0,66.9,100.0,63.0z" fill="#ffffff"/><text xml:space="preserve" style="fill:#191919;font-family:Microsoft YaHei;font-size:10.00pt"><tspan x="33.0" y="41.0">“if”</tspan></text></g><g id="shape28" transform="translate(2159.79,1228.00)"><path fill-rule="nonzero" stroke-width="1" stroke="#323232" d="M164.5,63.0L164.5,7.0C164.5,3.1,161.4,.0,157.5,.0L7.0,.0C3.1,.0,.0,3.1,.0,7.0L.0,63.0C.0,66.9,3.1,70.0,7.0,70.0L157.5,70.0C161.4,70.0,164.5,66.9,164.5,63.0z" fill="#ffffff"/><text xml:space="preserve" style="fill:#191919;font-family:Microsoft YaHei;font-size:10.00pt"><tspan x="68.8" y="32.0">Expr</tspan><tspan x="30.9" y="50.0">parser operators</tspan></text></g><g id="shape29" transform="translate(2028.78,1012.50)"><path stroke-width="1" stroke="#191919" d="M.0,.0L.0,56.0" fill="none"/><path stroke-width="1" stroke="#191919" stroke-linecap="round" d="M3.0,56.0L.0,62.0L-3.0,56.0L3.0,56.0" fill="#191919"/></g><g id="shape30" transform="translate(2762.01,845.00)"><path stroke-width="1" stroke="#191919" d="M.0,.0L.0,91.0" fill="none"/><path stroke-width="1" stroke="#191919" stroke-linecap="round" d="M3.0,91.0L.0,97.0L-3.0,91.0L3.0,91.0" fill="#191919"/></g><g id="shape31" transform="translate(2762.01,845.00)"><path stroke-width="1" stroke="#191919" d="M.0,.0L.0,69.0L394.8,69.0C394.8,65.7,397.5,63.0,400.8,63.0C404.1,63.0,406.8,65.7,406.8,69.0L624.0,69.0L624.0,91.0" fill="none"/><path stroke-width="1" stroke="#191919" stroke-linecap="round" d="M627.0,91.0L624.0,97.0L621.0,91.0L627.0,91.0" fill="#191919"/></g><g id="shape32" transform="translate(2762.53,1012.50)"><path stroke-width="1" stroke="#191919" d="M.0,.0L.0,82.0" fill="none"/><path stroke-width="1" stroke="#191919" stroke-linecap="round" d="M3.0,82.0L.0,88.0L-3.0,82.0L3.0,82.0" fill="#191919"/></g><g id="shape33" transform="translate(3385.81,1012.75)"><path stroke-width="1" stroke="#191919" d="M.0,.0L.0,158.0" fill="none"/><path stroke-width="1" stroke="#191919" stroke-linecap="round" d="M3.0,158.0L.0,164.0L-3.0,158.0L3.0,158.0" fill="#191919"/></g><g id="shape34" transform="translate(2242.53,1144.50)"><path stroke-width="1" stroke="#191919" d="M.0,.0L.0,78.0" fill="none"/><path stroke-width="1" stroke="#191919" stroke-linecap="round" d="M3.0,78.0L.0,84.0L-3.0,78.0L3.0,78.0" fill="#191919"/></g><g id="shape35" transform="translate(2191.05,1355.00)"><path fill-rule="nonzero" stroke-width="1" stroke="#323232" d="M100.0,63.0L100.0,7.0C100.0,3.1,96.9,.0,93.0,.0L7.0,.0C3.1,.0,.0,3.1,.0,7.0L.0,63.0C.0,66.9,3.1,70.0,7.0,70.0L93.0,70.0C96.9,70.0,100.0,66.9,100.0,63.0z" fill="#ffffff"/><text xml:space="preserve" style="fill:#191919;font-family:Microsoft YaHei;font-size:10.00pt"><tspan x="31.9" y="23.0">factor</tspan><tspan x="30.8" y="41.0">Parser</tspan><tspan x="17.4" y="59.0">elements[]</tspan></text></g><g id="shape36" transform="translate(1883.54,1747.50)"><path fill-rule="nonzero" stroke-width="1" stroke="#323232" d="M164.5,63.0L164.5,7.0C164.5,3.1,161.4,.0,157.5,.0L7.0,.0C3.1,.0,.0,3.1,.0,7.0L.0,63.0C.0,66.9,3.1,70.0,7.0,70.0L157.5,70.0C161.4,70.0,164.5,66.9,164.5,63.0z" fill="#ffffff"/><text xml:space="preserve" style="fill:#191919;font-family:Microsoft YaHei;font-size:10.00pt"><tspan x="69.1" y="32.0">Skip</tspan><tspan x="61.5" y="50.0">tokens</tspan></text></g><g id="shape37" transform="translate(1915.55,1879.50)"><path fill-rule="nonzero" stroke-width="1" stroke="#323232" d="M100.0,63.0L100.0,7.0C100.0,3.1,96.9,.0,93.0,.0L7.0,.0C3.1,.0,.0,3.1,.0,7.0L.0,63.0C.0,66.9,3.1,70.0,7.0,70.0L93.0,70.0C96.9,70.0,100.0,66.9,100.0,63.0z" fill="#ffffff"/><text xml:space="preserve" style="fill:#191919;font-family:Microsoft YaHei;font-size:10.00pt"><tspan x="34.2" y="41.0">“-”</tspan></text></g><g id="shape38" transform="translate(1965.80,1817.50)"><path stroke-width="1" stroke="#191919" d="M.0,.0L.0,56.0" fill="none"/><path stroke-width="1" stroke="#191919" stroke-linecap="round" d="M3.0,56.0L.0,62.0L-3.0,56.0L3.0,56.0" fill="#191919"/></g><g id="shape39" transform="translate(2191.05,1479.00)"><path fill-rule="nonzero" stroke-width="1" stroke="#323232" d="M100.0,53.0L100.0,7.0C100.0,3.1,96.9,.0,93.0,.0L7.0,.0C3.1,.0,.0,3.1,.0,7.0L.0,53.0C.0,56.9,3.1,60.0,7.0,60.0L93.0,60.0C96.9,60.0,100.0,56.9,100.0,53.0z" fill="#ffffff"/><text xml:space="preserve" style="fill:#191919;font-family:Microsoft YaHei;font-size:10.00pt"><tspan x="28.7" y="27.0">OrTree</tspan><tspan x="23.3" y="45.0">parsers[]</tspan></text></g><g id="shape40" transform="translate(1987.54,1627.50)"><path fill-rule="nonzero" stroke-width="1" stroke="#323232" d="M194.0,63.0L194.0,7.0C194.0,3.1,190.9,.0,187.0,.0L7.0,.0C3.1,.0,.0,3.1,.0,7.0L.0,63.0C.0,66.9,3.1,70.0,7.0,70.0L187.0,70.0C190.9,70.0,194.0,66.9,194.0,63.0z" fill="#ffffff"/><text xml:space="preserve" style="fill:#191919;font-family:Microsoft YaHei;font-size:10.00pt"><tspan x="15.9" y="32.0">Parser(NegativeExpr.class)</tspan><tspan x="64.4" y="50.0">elements[]</tspan></text></g><g id="shape41" transform="translate(2242.05,1298.00)"><path stroke-width="1" stroke="#191919" d="M.0,.0L.0,51.0" fill="none"/><path stroke-width="1" stroke="#191919" stroke-linecap="round" d="M3.0,51.0L.0,57.0L-3.0,51.0L3.0,51.0" fill="#191919"/></g><g id="shape42" transform="translate(2241.05,1425.00)"><path stroke-width="1" stroke="#191919" d="M.0,.0L.0,48.0" fill="none"/><path stroke-width="1" stroke="#191919" stroke-linecap="round" d="M3.0,48.0L.0,54.0L-3.0,48.0L3.0,48.0" fill="#191919"/></g><g id="shape43" transform="translate(2241.05,1539.00)"><path stroke-width="1" stroke="#191919" d="M.0,.0L.0,60.0L-156.0,60.0L-156.0,82.0" fill="none"/><path stroke-width="1" stroke="#191919" stroke-linecap="round" d="M-153.0,82.0L-156.0,88.0L-159.0,82.0L-153.0,82.0" fill="#191919"/></g><g id="shape44" transform="translate(2084.54,1697.50)"><path stroke-width="1" stroke="#191919" d="M.0,.0L.0,28.0L-119.0,28.0L-119.0,44.0" fill="none"/><path stroke-width="1" stroke="#191919" stroke-linecap="round" d="M-116.0,44.0L-119.0,50.0L-122.0,44.0L-116.0,44.0" fill="#191919"/></g><g id="shape45" transform="translate(2090.80,1870.50)"><path fill-rule="nonzero" stroke-width="1" stroke="#323232" d="M181.2,81.0L181.2,7.0C181.2,3.1,178.1,.0,174.2,.0L7.0,.0C3.1,.0,.0,3.1,.0,7.0L.0,81.0C.0,84.9,3.1,88.0,7.0,88.0L174.2,88.0C178.1,88.0,181.2,84.9,181.2,81.0z" fill="#ffffff"/><text xml:space="preserve" style="fill:#191919;font-family:Microsoft YaHei;font-size:10.00pt"><tspan x="66.7" y="32.0">primary</tspan><tspan x="13.7" y="50.0">Parser(PrimaryExpr.class)</tspan><tspan x="58.0" y="68.0">elements[]</tspan></text></g><g id="shape46" transform="translate(2098.54,1747.50)"><path fill-rule="nonzero" stroke-width="1" stroke="#323232" d="M164.5,63.0L164.5,7.0C164.5,3.1,161.4,.0,157.5,.0L7.0,.0C3.1,.0,.0,3.1,.0,7.0L.0,63.0C.0,66.9,3.1,70.0,7.0,70.0L157.5,70.0C161.4,70.0,164.5,66.9,164.5,63.0z" fill="#ffffff"/><text xml:space="preserve" style="fill:#191919;font-family:Microsoft YaHei;font-size:10.00pt"><tspan x="68.7" y="32.0">Tree</tspan><tspan x="62.9" y="50.0">parser</tspan></text></g><g id="shape47" transform="translate(2180.80,1817.50)"><path stroke-width="1" stroke="#191919" d="M.0,.0L.0,47.0" fill="none"/><path stroke-width="1" stroke="#191919" stroke-linecap="round" d="M3.0,47.0L.0,53.0L-3.0,47.0L3.0,47.0" fill="#191919"/></g><g id="shape48" transform="translate(2084.54,1697.50)"><path stroke-width="1" stroke="#191919" d="M.0,.0L.0,28.0L96.0,28.0L96.0,44.0" fill="none"/><path stroke-width="1" stroke="#191919" stroke-linecap="round" d="M99.0,44.0L96.0,50.0L93.0,44.0L99.0,44.0" fill="#191919"/></g><g id="shape49" transform="translate(4323.02,519.00)"><path fill-rule="nonzero" stroke-width="1" stroke="#323232" d="M100.0,63.0L100.0,7.0C100.0,3.1,96.9,.0,93.0,.0L7.0,.0C3.1,.0,.0,3.1,.0,7.0L.0,63.0C.0,66.9,3.1,70.0,7.0,70.0L93.0,70.0C96.9,70.0,100.0,66.9,100.0,63.0z" fill="#ffffff"/><text xml:space="preserve" style="fill:#191919;font-family:Microsoft YaHei;font-size:10.00pt"><tspan x="35.4" y="41.0">“;”</tspan></text></g><g id="shape50" transform="translate(4474.02,519.00)"><path fill-rule="nonzero" stroke-width="1" stroke="#323232" d="M100.0,63.0L100.0,7.0C100.0,3.1,96.9,.0,93.0,.0L7.0,.0C3.1,.0,.0,3.1,.0,7.0L.0,63.0C.0,66.9,3.1,70.0,7.0,70.0L93.0,70.0C96.9,70.0,100.0,66.9,100.0,63.0z" fill="#ffffff"/><text xml:space="preserve" style="fill:#191919;font-family:Microsoft YaHei;font-size:10.00pt"><tspan x="24.8" y="41.0">“EOL”</tspan></text></g><g id="shape51" transform="translate(4430.54,471.00)"><path stroke-width="1" stroke="#191919" d="M.0,.0L.0,28.0L-58.0,28.0L-58.0,42.0" fill="none"/><path stroke-width="1" stroke="#191919" stroke-linecap="round" d="M-55.0,42.0L-58.0,48.0L-61.0,42.0L-55.0,42.0" fill="#191919"/></g><g id="shape52" transform="translate(4430.54,471.00)"><path stroke-width="1" stroke="#191919" d="M.0,.0L.0,28.0L93.0,28.0L93.0,42.0" fill="none"/><path stroke-width="1" stroke="#191919" stroke-linecap="round" d="M96.0,42.0L93.0,48.0L90.0,42.0L96.0,42.0" fill="#191919"/></g><g id="shape53" transform="translate(3270.04,1293.25)"><path fill-rule="nonzero" stroke-width="1" stroke="#323232" d="M164.5,63.0L164.5,7.0C164.5,3.1,161.4,.0,157.5,.0L7.0,.0C3.1,.0,.0,3.1,.0,7.0L.0,63.0C.0,66.9,3.1,70.0,7.0,70.0L157.5,70.0C161.4,70.0,164.5,66.9,164.5,63.0z" fill="#ffffff"/><text xml:space="preserve" style="fill:#191919;font-family:Microsoft YaHei;font-size:10.00pt"><tspan x="69.1" y="32.0">Skip</tspan><tspan x="61.5" y="50.0">tokens</tspan></text></g><g id="shape54" transform="translate(3302.05,1425.25)"><path fill-rule="nonzero" stroke-width="1" stroke="#323232" d="M100.0,63.0L100.0,7.0C100.0,3.1,96.9,.0,93.0,.0L7.0,.0C3.1,.0,.0,3.1,.0,7.0L.0,63.0C.0,66.9,3.1,70.0,7.0,70.0L93.0,70.0C96.9,70.0,100.0,66.9,100.0,63.0z" fill="#ffffff"/><text xml:space="preserve" style="fill:#191919;font-family:Microsoft YaHei;font-size:10.00pt"><tspan x="24.9" y="41.0">“else”</tspan></text></g><g id="shape55" transform="translate(3352.30,1363.25)"><path stroke-width="1" stroke="#191919" d="M.0,.0L.0,56.0" fill="none"/><path stroke-width="1" stroke="#191919" stroke-linecap="round" d="M3.0,56.0L.0,62.0L-3.0,56.0L3.0,56.0" fill="#191919"/></g><g id="shape56" transform="translate(3384.56,1246.75)"><path stroke-width="1" stroke="#191919" d="M.0,.0L.0,28.0L-33.0,28.0L-33.0,41.0" fill="none"/><path stroke-width="1" stroke="#191919" stroke-linecap="round" d="M-30.0,41.0L-33.0,47.0L-36.0,41.0L-30.0,41.0" fill="#191919"/></g><g id="shape57" transform="translate(3513.33,1425.25)"><path fill-rule="nonzero" stroke-width="1" stroke="#323232" d="M100.0,63.0L100.0,7.0C100.0,3.1,96.9,.0,93.0,.0L7.0,.0C3.1,.0,.0,3.1,.0,7.0L.0,63.0C.0,66.9,3.1,70.0,7.0,70.0L93.0,70.0C96.9,70.0,100.0,66.9,100.0,63.0z" fill="#ffffff"/><text xml:space="preserve" style="fill:#191919;font-family:Microsoft YaHei;font-size:10.00pt"><tspan x="33.2" y="23.0">block</tspan><tspan x="30.8" y="41.0">Parser</tspan><tspan x="17.4" y="59.0">elements[]</tspan></text></g><g id="shape58" transform="translate(3481.07,1293.25)"><path fill-rule="nonzero" stroke-width="1" stroke="#323232" d="M164.5,63.0L164.5,7.0C164.5,3.1,161.4,.0,157.5,.0L7.0,.0C3.1,.0,.0,3.1,.0,7.0L.0,63.0C.0,66.9,3.1,70.0,7.0,70.0L157.5,70.0C161.4,70.0,164.5,66.9,164.5,63.0z" fill="#ffffff"/><text xml:space="preserve" style="fill:#191919;font-family:Microsoft YaHei;font-size:10.00pt"><tspan x="68.7" y="32.0">Tree</tspan><tspan x="62.9" y="50.0">parser</tspan></text></g><g id="shape59" transform="translate(3384.56,1246.75)"><path stroke-width="1" stroke="#191919" d="M.0,.0L.0,28.0L178.0,28.0L178.0,41.0" fill="none"/><path stroke-width="1" stroke="#191919" stroke-linecap="round" d="M181.0,41.0L178.0,47.0L175.0,41.0L181.0,41.0" fill="#191919"/></g><g id="shape60" transform="translate(3563.33,1363.25)"><path stroke-width="1" stroke="#191919" d="M.0,.0L.0,56.0" fill="none"/><path stroke-width="1" stroke="#191919" stroke-linecap="round" d="M3.0,56.0L.0,62.0L-3.0,56.0L3.0,56.0" fill="#191919"/></g><g id="shape61" transform="translate(2130.80,2011.50)"><path fill-rule="nonzero" stroke-width="1" stroke="#323232" d="M100.0,53.0L100.0,7.0C100.0,3.1,96.9,.0,93.0,.0L7.0,.0C3.1,.0,.0,3.1,.0,7.0L.0,53.0C.0,56.9,3.1,60.0,7.0,60.0L93.0,60.0C96.9,60.0,100.0,56.9,100.0,53.0z" fill="#ffffff"/><text xml:space="preserve" style="fill:#191919;font-family:Microsoft YaHei;font-size:10.00pt"><tspan x="28.7" y="27.0">OrTree</tspan><tspan x="23.3" y="45.0">parsers[]</tspan></text></g><g id="shape62" transform="translate(2181.42,1958.50)"><path stroke-width="1" stroke="#191919" d="M.0,.0L.0,47.0" fill="none"/><path stroke-width="1" stroke="#191919" stroke-linecap="round" d="M3.0,47.0L.0,53.0L-3.0,47.0L3.0,47.0" fill="#191919"/></g><g id="shape63" transform="translate(1624.52,2134.00)"><path fill-rule="nonzero" stroke-width="1" stroke="#323232" d="M100.0,63.0L100.0,7.0C100.0,3.1,96.9,.0,93.0,.0L7.0,.0C3.1,.0,.0,3.1,.0,7.0L.0,63.0C.0,66.9,3.1,70.0,7.0,70.0L93.0,70.0C96.9,70.0,100.0,66.9,100.0,63.0z" fill="#ffffff"/><text xml:space="preserve" style="fill:#191919;font-family:Microsoft YaHei;font-size:10.00pt"><tspan x="30.8" y="32.0">Parser</tspan><tspan x="17.4" y="50.0">elements[]</tspan></text></g><g id="shape64" transform="translate(2071.92,2135.00)"><path fill-rule="nonzero" stroke-width="1" stroke="#323232" d="M100.0,63.0L100.0,7.0C100.0,3.1,96.9,.0,93.0,.0L7.0,.0C3.1,.0,.0,3.1,.0,7.0L.0,63.0C.0,66.9,3.1,70.0,7.0,70.0L93.0,70.0C96.9,70.0,100.0,66.9,100.0,63.0z" fill="#ffffff"/><text xml:space="preserve" style="fill:#191919;font-family:Microsoft YaHei;font-size:10.00pt"><tspan x="30.8" y="32.0">Parser</tspan><tspan x="17.4" y="50.0">elements[]</tspan></text></g><g id="shape65" transform="translate(2285.52,2134.00)"><path fill-rule="nonzero" stroke-width="1" stroke="#323232" d="M100.0,63.0L100.0,7.0C100.0,3.1,96.9,.0,93.0,.0L7.0,.0C3.1,.0,.0,3.1,.0,7.0L.0,63.0C.0,66.9,3.1,70.0,7.0,70.0L93.0,70.0C96.9,70.0,100.0,66.9,100.0,63.0z" fill="#ffffff"/><text xml:space="preserve" style="fill:#191919;font-family:Microsoft YaHei;font-size:10.00pt"><tspan x="30.8" y="32.0">Parser</tspan><tspan x="17.4" y="50.0">elements[]</tspan></text></g><g id="shape66" transform="translate(2499.12,2134.00)"><path fill-rule="nonzero" stroke-width="1" stroke="#323232" d="M100.0,63.0L100.0,7.0C100.0,3.1,96.9,.0,93.0,.0L7.0,.0C3.1,.0,.0,3.1,.0,7.0L.0,63.0C.0,66.9,3.1,70.0,7.0,70.0L93.0,70.0C96.9,70.0,100.0,66.9,100.0,63.0z" fill="#ffffff"/><text xml:space="preserve" style="fill:#191919;font-family:Microsoft YaHei;font-size:10.00pt"><tspan x="30.8" y="32.0">Parser</tspan><tspan x="17.4" y="50.0">elements[]</tspan></text></g><g id="shape67" transform="translate(2180.80,2071.50)"><path stroke-width="1" stroke="#191919" d="M.0,.0L.0,35.0L-506.0,35.0L-506.0,57.0" fill="none"/><path stroke-width="1" stroke="#191919" stroke-linecap="round" d="M-503.0,57.0L-506.0,63.0L-509.0,57.0L-503.0,57.0" fill="#191919"/></g><g id="shape68" transform="translate(2180.80,2071.50)"><path stroke-width="1" stroke="#191919" d="M.0,.0L.0,36.0L-59.0,36.0L-59.0,58.0" fill="none"/><path stroke-width="1" stroke="#191919" stroke-linecap="round" d="M-56.0,58.0L-59.0,64.0L-62.0,58.0L-56.0,58.0" fill="#191919"/></g><g id="shape69" transform="translate(2180.80,2071.50)"><path stroke-width="1" stroke="#191919" d="M.0,.0L.0,35.0L155.0,35.0L155.0,57.0" fill="none"/><path stroke-width="1" stroke="#191919" stroke-linecap="round" d="M158.0,57.0L155.0,63.0L152.0,57.0L158.0,57.0" fill="#191919"/></g><g id="shape70" transform="translate(2180.80,2071.50)"><path stroke-width="1" stroke="#191919" d="M.0,.0L.0,35.0L263.1,35.0C263.1,31.7,265.8,28.9,269.1,28.9C272.5,28.9,275.2,31.7,275.2,35.0L368.0,35.0L368.0,57.0" fill="none"/><path stroke-width="1" stroke="#191919" stroke-linecap="round" d="M371.0,57.0L368.0,63.0L365.0,57.0L371.0,57.0" fill="#191919"/></g><g id="shape71" transform="translate(1400.01,2330.00)"><path fill-rule="nonzero" stroke-width="1" stroke="#323232" d="M164.5,63.0L164.5,7.0C164.5,3.1,161.4,.0,157.5,.0L7.0,.0C3.1,.0,.0,3.1,.0,7.0L.0,63.0C.0,66.9,3.1,70.0,7.0,70.0L157.5,70.0C161.4,70.0,164.5,66.9,164.5,63.0z" fill="#ffffff"/><text xml:space="preserve" style="fill:#191919;font-family:Microsoft YaHei;font-size:10.00pt"><tspan x="69.1" y="32.0">Skip</tspan><tspan x="61.5" y="50.0">tokens</tspan></text></g><g id="shape72" transform="translate(1432.02,2462.00)"><path fill-rule="nonzero" stroke-width="1" stroke="#323232" d="M100.0,63.0L100.0,7.0C100.0,3.1,96.9,.0,93.0,.0L7.0,.0C3.1,.0,.0,3.1,.0,7.0L.0,63.0C.0,66.9,3.1,70.0,7.0,70.0L93.0,70.0C96.9,70.0,100.0,66.9,100.0,63.0z" fill="#ffffff"/><text xml:space="preserve" style="fill:#191919;font-family:Microsoft YaHei;font-size:10.00pt"><tspan x="30.5" y="41.0">“（”</tspan></text></g><g id="shape73" transform="translate(1482.27,2400.00)"><path stroke-width="1" stroke="#191919" d="M.0,.0L.0,56.0" fill="none"/><path stroke-width="1" stroke="#191919" stroke-linecap="round" d="M3.0,56.0L.0,62.0L-3.0,56.0L3.0,56.0" fill="#191919"/></g><g id="shape74" transform="translate(1674.52,2204.00)"><path stroke-width="1" stroke="#191919" d="M.0,.0L.0,98.0L-193.0,98.0L-193.0,120.0" fill="none"/><path stroke-width="1" stroke="#191919" stroke-linecap="round" d="M-190.0,120.0L-193.0,126.0L-196.0,120.0L-190.0,120.0" fill="#191919"/></g><g id="shape75" transform="translate(1593.63,2330.00)"><path fill-rule="nonzero" stroke-width="1" stroke="#323232" d="M164.5,63.0L164.5,7.0C164.5,3.1,161.4,.0,157.5,.0L7.0,.0C3.1,.0,.0,3.1,.0,7.0L.0,63.0C.0,66.9,3.1,70.0,7.0,70.0L157.5,70.0C161.4,70.0,164.5,66.9,164.5,63.0z" fill="#ffffff"/><text xml:space="preserve" style="fill:#191919;font-family:Microsoft YaHei;font-size:10.00pt"><tspan x="68.7" y="32.0">Tree</tspan><tspan x="62.9" y="50.0">parser</tspan></text></g><g id="shape76" transform="translate(1780.51,2330.00)"><path fill-rule="nonzero" stroke-width="1" stroke="#323232" d="M164.5,63.0L164.5,7.0C164.5,3.1,161.4,.0,157.5,.0L7.0,.0C3.1,.0,.0,3.1,.0,7.0L.0,63.0C.0,66.9,3.1,70.0,7.0,70.0L157.5,70.0C161.4,70.0,164.5,66.9,164.5,63.0z" fill="#ffffff"/><text xml:space="preserve" style="fill:#191919;font-family:Microsoft YaHei;font-size:10.00pt"><tspan x="69.1" y="32.0">Skip</tspan><tspan x="61.5" y="50.0">tokens</tspan></text></g><g id="shape77" transform="translate(1812.52,2462.00)"><path fill-rule="nonzero" stroke-width="1" stroke="#323232" d="M100.0,63.0L100.0,7.0C100.0,3.1,96.9,.0,93.0,.0L7.0,.0C3.1,.0,.0,3.1,.0,7.0L.0,63.0C.0,66.9,3.1,70.0,7.0,70.0L93.0,70.0C96.9,70.0,100.0,66.9,100.0,63.0z" fill="#ffffff"/><text xml:space="preserve" style="fill:#191919;font-family:Microsoft YaHei;font-size:10.00pt"><tspan x="30.5" y="41.0">“）”</tspan></text></g><g id="shape78" transform="translate(1862.77,2400.00)"><path stroke-width="1" stroke="#191919" d="M.0,.0L.0,56.0" fill="none"/><path stroke-width="1" stroke="#191919" stroke-linecap="round" d="M3.0,56.0L.0,62.0L-3.0,56.0L3.0,56.0" fill="#191919"/></g><g id="shape79" transform="translate(1674.52,2204.00)"><path stroke-width="1" stroke="#191919" d="M.0,.0L.0,120.0" fill="none"/><path stroke-width="1" stroke="#191919" stroke-linecap="round" d="M3.0,120.0L.0,126.0L-3.0,120.0L3.0,120.0" fill="#191919"/></g><g id="shape80" transform="translate(1674.52,2204.00)"><path stroke-width="1" stroke="#191919" d="M.0,.0L.0,98.0L187.0,98.0L187.0,120.0" fill="none"/><path stroke-width="1" stroke="#191919" stroke-linecap="round" d="M190.0,120.0L187.0,126.0L184.0,120.0L190.0,120.0" fill="#191919"/></g><g id="shape81" transform="translate(1675.89,2400.00)"><path stroke-width="1" stroke="#191919" d="M.0,.0L.0,38.0L-187.6,38.0C-187.6,34.7,-190.3,32.0,-193.6,32.0C-196.9,32.0,-199.6,34.7,-199.6,38.0L-289.3,38.0L-289.3,-1290.5L510.6,-1290.5" fill="none"/><path stroke-width="1" stroke="#191919" stroke-linecap="round" d="M510.6,-1293.5L516.6,-1290.5L510.6,-1287.5L510.6,-1293.5" fill="#191919"/></g><g id="shape82" transform="translate(2017.52,2330.00)"><path fill-rule="nonzero" stroke-width="1" stroke="#323232" d="M208.0,63.0L208.0,7.0C208.0,3.1,204.9,.0,201.0,.0L7.0,.0C3.1,.0,.0,3.1,.0,7.0L.0,63.0C.0,66.9,3.1,70.0,7.0,70.0L201.0,70.0C204.9,70.0,208.0,66.9,208.0,63.0z" fill="#ffffff"/><text xml:space="preserve" style="fill:#191919;font-family:Microsoft YaHei;font-size:10.00pt"><tspan x="4.5" y="41.0">NumToken(NumberLiteral.class)</tspan></text></g><g id="shape83" transform="translate(2121.92,2205.00)"><path stroke-width="1" stroke="#191919" d="M.0,.0L.0,119.0" fill="none"/><path stroke-width="1" stroke="#191919" stroke-linecap="round" d="M3.0,119.0L.0,125.0L-3.0,119.0L3.0,119.0" fill="#191919"/></g><g id="shape84" transform="translate(2249.52,2330.00)"><path fill-rule="nonzero" stroke-width="1" stroke="#323232" d="M172.0,63.0L172.0,7.0C172.0,3.1,168.9,.0,165.0,.0L7.0,.0C3.1,.0,.0,3.1,.0,7.0L.0,63.0C.0,66.9,3.1,70.0,7.0,70.0L165.0,70.0C168.9,70.0,172.0,66.9,172.0,63.0z" fill="#ffffff"/><text xml:space="preserve" style="fill:#191919;font-family:Microsoft YaHei;font-size:10.00pt"><tspan x="22.4" y="32.0">IdToken(Name.class, </tspan><tspan x="57.3" y="50.0">reserved)</tspan></text></g><g id="shape85" transform="translate(2335.52,2204.00)"><path stroke-width="1" stroke="#191919" d="M.0,.0L.0,120.0" fill="none"/><path stroke-width="1" stroke="#191919" stroke-linecap="round" d="M3.0,120.0L.0,126.0L-3.0,120.0L3.0,120.0" fill="#191919"/></g><g id="shape86" transform="translate(2454.12,2330.00)"><path fill-rule="nonzero" stroke-width="1" stroke="#323232" d="M190.0,63.0L190.0,7.0C190.0,3.1,186.9,.0,183.0,.0L7.0,.0C3.1,.0,.0,3.1,.0,7.0L.0,63.0C.0,66.9,3.1,70.0,7.0,70.0L183.0,70.0C186.9,70.0,190.0,66.9,190.0,63.0z" fill="#ffffff"/><text xml:space="preserve" style="fill:#191919;font-family:Microsoft YaHei;font-size:10.00pt"><tspan x="9.3" y="41.0">StrToken(StringLiteral.class)</tspan></text></g><g id="shape87" transform="translate(2549.12,2204.00)"><path stroke-width="1" stroke="#191919" d="M.0,.0L.0,120.0" fill="none"/><path stroke-width="1" stroke="#191919" stroke-linecap="round" d="M3.0,120.0L.0,126.0L-3.0,120.0L3.0,120.0" fill="#191919"/></g><g id="shape88" transform="translate(2368.52,1355.00)"><path fill-rule="nonzero" stroke-width="1" stroke="#323232" d="M100.0,63.0L100.0,7.0C100.0,3.1,96.9,.0,93.0,.0L7.0,.0C3.1,.0,.0,3.1,.0,7.0L.0,63.0C.0,66.9,3.1,70.0,7.0,70.0L93.0,70.0C96.9,70.0,100.0,66.9,100.0,63.0z" fill="#ffffff"/><text xml:space="preserve" style="fill:#191919;font-family:Microsoft YaHei;font-size:10.00pt"><tspan x="5.8" y="32.0">+ - * / = == > </tspan><tspan x="37.5" y="50.0">&lt; %</tspan></text></g><g id="shape89" transform="translate(2242.05,1298.00)"><path stroke-width="1" stroke="#191919" d="M.0,.0L.0,28.0L87.8,28.0C87.8,24.7,90.5,21.9,93.9,21.9C97.2,21.9,100.0,24.7,100.0,28.0L177.0,28.0L177.0,51.0" fill="none"/><path stroke-width="1" stroke="#191919" stroke-linecap="round" d="M180.0,51.0L177.0,57.0L174.0,51.0L180.0,51.0" fill="#191919"/></g><g id="shape90" transform="translate(3613.33,1460.25)"><path stroke-width="1" stroke="#191919" d="M.0,.0L41.2,.0L41.2,-416.3L-8.8,-416.3C-8.8,-419.6,-11.5,-422.3,-14.8,-422.3C-18.1,-422.3,-20.8,-419.6,-20.8,-416.3L-221.5,-416.3C-221.5,-419.6,-224.2,-422.3,-227.5,-422.3C-230.8,-422.3,-233.5,-419.6,-233.5,-416.3L-389.2,-416.3L-389.2,-315.5L-444.6,-315.5C-444.6,-318.8,-447.2,-321.5,-450.6,-321.5C-453.9,-321.5,-456.6,-318.8,-456.6,-315.5L-506.8,-315.5C-506.8,-318.8,-509.5,-321.5,-512.8,-321.5C-516.1,-321.5,-518.8,-318.8,-518.8,-315.5L-752.8,-315.5C-752.8,-318.8,-755.5,-321.5,-758.8,-321.5C-762.1,-321.5,-764.8,-318.8,-764.8,-315.5" fill="none"/><path stroke-width="1" stroke="#191919" stroke-linecap="round" d="M-762.1,-312.5L-768.1,-315.5L-762.1,-318.5L-762.1,-312.5" fill="#191919"/></g><g id="shape91" transform="translate(2493.49,1301.00)"><path fill-rule="nonzero" stroke-width="1" stroke="#323232" d="M164.5,63.0L164.5,7.0C164.5,3.1,161.4,.0,157.5,.0L7.0,.0C3.1,.0,.0,3.1,.0,7.0L.0,63.0C.0,66.9,3.1,70.0,7.0,70.0L157.5,70.0C161.4,70.0,164.5,66.9,164.5,63.0z" fill="#ffffff"/><text xml:space="preserve" style="fill:#191919;font-family:Microsoft YaHei;font-size:10.00pt"><tspan x="69.1" y="32.0">Skip</tspan><tspan x="61.5" y="50.0">tokens</tspan></text></g><g id="shape92" transform="translate(2525.50,1433.00)"><path fill-rule="nonzero" stroke-width="1" stroke="#323232" d="M100.0,63.0L100.0,7.0C100.0,3.1,96.9,.0,93.0,.0L7.0,.0C3.1,.0,.0,3.1,.0,7.0L.0,63.0C.0,66.9,3.1,70.0,7.0,70.0L93.0,70.0C96.9,70.0,100.0,66.9,100.0,63.0z" fill="#ffffff"/><text xml:space="preserve" style="fill:#191919;font-family:Microsoft YaHei;font-size:10.00pt"><tspan x="34.8" y="41.0">“{”</tspan></text></g><g id="shape93" transform="translate(2575.75,1371.00)"><path stroke-width="1" stroke="#191919" d="M.0,.0L.0,56.0" fill="none"/><path stroke-width="1" stroke="#191919" stroke-linecap="round" d="M3.0,56.0L.0,62.0L-3.0,56.0L3.0,56.0" fill="#191919"/></g><g id="shape94" transform="translate(2866.01,1301.00)"><path fill-rule="nonzero" stroke-width="1" stroke="#323232" d="M164.5,63.0L164.5,7.0C164.5,3.1,161.4,.0,157.5,.0L7.0,.0C3.1,.0,.0,3.1,.0,7.0L.0,63.0C.0,66.9,3.1,70.0,7.0,70.0L157.5,70.0C161.4,70.0,164.5,66.9,164.5,63.0z" fill="#ffffff"/><text xml:space="preserve" style="fill:#191919;font-family:Microsoft YaHei;font-size:10.00pt"><tspan x="69.1" y="32.0">Skip</tspan><tspan x="61.5" y="50.0">tokens</tspan></text></g><g id="shape95" transform="translate(2898.27,1433.00)"><path fill-rule="nonzero" stroke-width="1" stroke="#323232" d="M100.0,63.0L100.0,7.0C100.0,3.1,96.9,.0,93.0,.0L7.0,.0C3.1,.0,.0,3.1,.0,7.0L.0,63.0C.0,66.9,3.1,70.0,7.0,70.0L93.0,70.0C96.9,70.0,100.0,66.9,100.0,63.0z" fill="#ffffff"/><text xml:space="preserve" style="fill:#191919;font-family:Microsoft YaHei;font-size:10.00pt"><tspan x="34.8" y="41.0">“}”</tspan></text></g><g id="shape96" transform="translate(2948.27,1371.00)"><path stroke-width="1" stroke="#191919" d="M.0,.0L.0,56.0" fill="none"/><path stroke-width="1" stroke="#191919" stroke-linecap="round" d="M3.0,56.0L.0,62.0L-3.0,56.0L3.0,56.0" fill="#191919"/></g><g id="shape97" transform="translate(2679.75,1301.00)"><path fill-rule="nonzero" stroke-width="1" stroke="#323232" d="M164.5,63.0L164.5,7.0C164.5,3.1,161.4,.0,157.5,.0L7.0,.0C3.1,.0,.0,3.1,.0,7.0L.0,63.0C.0,66.9,3.1,70.0,7.0,70.0L157.5,70.0C161.4,70.0,164.5,66.9,164.5,63.0z" fill="#ffffff"/><text xml:space="preserve" style="fill:#191919;font-family:Microsoft YaHei;font-size:10.00pt"><tspan x="60.5" y="32.0">Repeat</tspan><tspan x="62.9" y="50.0">parser</tspan></text></g><g id="shape98" transform="translate(2712.01,1433.00)"><path fill-rule="nonzero" stroke-width="1" stroke="#323232" d="M100.0,63.0L100.0,7.0C100.0,3.1,96.9,.0,93.0,.0L7.0,.0C3.1,.0,.0,3.1,.0,7.0L.0,63.0C.0,66.9,3.1,70.0,7.0,70.0L93.0,70.0C96.9,70.0,100.0,66.9,100.0,63.0z" fill="#ffffff"/><text xml:space="preserve" style="fill:#191919;font-family:Microsoft YaHei;font-size:10.00pt"><tspan x="30.8" y="32.0">Parser</tspan><tspan x="17.4" y="50.0">elements[]</tspan></text></g><g id="shape99" transform="translate(2762.01,1371.00)"><path stroke-width="1" stroke="#191919" d="M.0,.0L.0,56.0" fill="none"/><path stroke-width="1" stroke="#191919" stroke-linecap="round" d="M3.0,56.0L.0,62.0L-3.0,56.0L3.0,56.0" fill="#191919"/></g><g id="shape100" transform="translate(2590.26,1547.00)"><path fill-rule="nonzero" stroke-width="1" stroke="#323232" d="M164.5,63.0L164.5,7.0C164.5,3.1,161.4,.0,157.5,.0L7.0,.0C3.1,.0,.0,3.1,.0,7.0L.0,63.0C.0,66.9,3.1,70.0,7.0,70.0L157.5,70.0C161.4,70.0,164.5,66.9,164.5,63.0z" fill="#ffffff"/><text xml:space="preserve" style="fill:#191919;font-family:Microsoft YaHei;font-size:10.00pt"><tspan x="69.1" y="32.0">Skip</tspan><tspan x="61.5" y="50.0">tokens</tspan></text></g><g id="shape101" transform="translate(2563.76,1679.00)"><path fill-rule="nonzero" stroke-width="1" stroke="#323232" d="M100.0,63.0L100.0,7.0C100.0,3.1,96.9,.0,93.0,.0L7.0,.0C3.1,.0,.0,3.1,.0,7.0L.0,63.0C.0,66.9,3.1,70.0,7.0,70.0L93.0,70.0C96.9,70.0,100.0,66.9,100.0,63.0z" fill="#ffffff"/><text xml:space="preserve" style="fill:#191919;font-family:Microsoft YaHei;font-size:10.00pt"><tspan x="35.4" y="41.0">“;”</tspan></text></g><g id="shape102" transform="translate(2672.52,1617.00)"><path stroke-width="1" stroke="#191919" d="M.0,.0L.0,34.0L-58.0,34.0L-58.0,56.0" fill="none"/><path stroke-width="1" stroke="#191919" stroke-linecap="round" d="M-55.0,56.0L-58.0,62.0L-61.0,56.0L-55.0,56.0" fill="#191919"/></g><g id="shape103" transform="translate(2681.28,1679.00)"><path fill-rule="nonzero" stroke-width="1" stroke="#323232" d="M100.0,63.0L100.0,7.0C100.0,3.1,96.9,.0,93.0,.0L7.0,.0C3.1,.0,.0,3.1,.0,7.0L.0,63.0C.0,66.9,3.1,70.0,7.0,70.0L93.0,70.0C96.9,70.0,100.0,66.9,100.0,63.0z" fill="#ffffff"/><text xml:space="preserve" style="fill:#191919;font-family:Microsoft YaHei;font-size:10.00pt"><tspan x="24.8" y="41.0">“EOL”</tspan></text></g><g id="shape104" transform="translate(2672.52,1617.00)"><path stroke-width="1" stroke="#191919" d="M.0,.0L.0,34.0L59.0,34.0L59.0,56.0" fill="none"/><path stroke-width="1" stroke="#191919" stroke-linecap="round" d="M62.0,56.0L59.0,62.0L56.0,56.0L62.0,56.0" fill="#191919"/></g><g id="shape105" transform="translate(2762.01,1503.00)"><path stroke-width="1" stroke="#191919" d="M.0,.0L.0,28.0L-89.0,28.0L-89.0,38.0" fill="none"/><path stroke-width="1" stroke="#191919" stroke-linecap="round" d="M-86.0,38.0L-89.0,44.0L-92.0,38.0L-86.0,38.0" fill="#191919"/></g><g id="shape106" transform="translate(2797.26,1547.00)"><path fill-rule="nonzero" stroke-width="1" stroke="#323232" d="M164.5,63.0L164.5,7.0C164.5,3.1,161.4,.0,157.5,.0L7.0,.0C3.1,.0,.0,3.1,.0,7.0L.0,63.0C.0,66.9,3.1,70.0,7.0,70.0L157.5,70.0C161.4,70.0,164.5,66.9,164.5,63.0z" fill="#ffffff"/><text xml:space="preserve" style="fill:#191919;font-family:Microsoft YaHei;font-size:10.00pt"><tspan x="60.5" y="32.0">Repeat</tspan><tspan x="62.9" y="50.0">parser</tspan></text></g><g id="shape107" transform="translate(2762.01,1503.00)"><path stroke-width="1" stroke="#191919" d="M.0,.0L.0,28.0L117.0,28.0L117.0,38.0" fill="none"/><path stroke-width="1" stroke="#191919" stroke-linecap="round" d="M120.0,38.0L117.0,44.0L114.0,38.0L120.0,38.0" fill="#191919"/></g><g id="shape108" transform="translate(2961.78,1582.00)"><path stroke-width="1" stroke="#191919" d="M.0,.0L132.7,.0C132.7,-3.3,135.4,-6.0,138.7,-6.0C142.1,-6.0,144.7,-3.3,144.7,.0L201.0,.0L201.0,-1018.0L630.7,-1018.0C630.7,-1021.3,633.4,-1024.0,636.7,-1024.0C640.1,-1024.0,642.7,-1021.3,642.7,-1018.0L670.8,-1018.0" fill="none"/><path stroke-width="1" stroke="#191919" stroke-linecap="round" d="M670.8,-1021.0L676.8,-1018.0L670.8,-1015.0L670.8,-1021.0" fill="#191919"/></g><g id="shape109" transform="translate(3717.00,919.00)"><path fill-rule="nonzero" stroke-width="1" stroke="#323232" d="M164.5,63.0L164.5,7.0C164.5,3.1,161.4,.0,157.5,.0L7.0,.0C3.1,.0,.0,3.1,.0,7.0L.0,63.0C.0,66.9,3.1,70.0,7.0,70.0L157.5,70.0C161.4,70.0,164.5,66.9,164.5,63.0z" fill="#ffffff"/><text xml:space="preserve" style="fill:#191919;font-family:Microsoft YaHei;font-size:10.00pt"><tspan x="69.1" y="32.0">Skip</tspan><tspan x="61.5" y="50.0">tokens</tspan></text></g><g id="shape110" transform="translate(3748.01,1051.00)"><path fill-rule="nonzero" stroke-width="1" stroke="#323232" d="M100.0,63.0L100.0,7.0C100.0,3.1,96.9,.0,93.0,.0L7.0,.0C3.1,.0,.0,3.1,.0,7.0L.0,63.0C.0,66.9,3.1,70.0,7.0,70.0L93.0,70.0C96.9,70.0,100.0,66.9,100.0,63.0z" fill="#ffffff"/><text xml:space="preserve" style="fill:#191919;font-family:Microsoft YaHei;font-size:10.00pt"><tspan x="20.7" y="41.0">“while”</tspan></text></g><g id="shape111" transform="translate(3799.26,989.00)"><path stroke-width="1" stroke="#191919" d="M.0,.0L.0,56.0" fill="none"/><path stroke-width="1" stroke="#191919" stroke-linecap="round" d="M3.0,56.0L.0,62.0L-3.0,56.0L3.0,56.0" fill="#191919"/></g><g id="shape112" transform="translate(2763.01,1188.75)"><path stroke-width="1" stroke="#191919" d="M.0,.0L.0,85.0L-187.0,85.0L-187.0,107.0" fill="none"/><path stroke-width="1" stroke="#191919" stroke-linecap="round" d="M-184.0,107.0L-187.0,113.0L-190.0,107.0L-184.0,107.0" fill="#191919"/></g><g id="shape113" transform="translate(2763.01,1188.75)"><path stroke-width="1" stroke="#191919" d="M.0,.0L.0,107.0" fill="none"/><path stroke-width="1" stroke="#191919" stroke-linecap="round" d="M3.0,107.0L.0,113.0L-3.0,107.0L3.0,107.0" fill="#191919"/></g><g id="shape114" transform="translate(2763.01,1188.75)"><path stroke-width="1" stroke="#191919" d="M.0,.0L.0,85.0L85.5,85.0C85.5,81.7,88.2,79.0,91.5,79.0C94.8,79.0,97.5,81.7,97.5,85.0L185.0,85.0L185.0,107.0" fill="none"/><path stroke-width="1" stroke="#191919" stroke-linecap="round" d="M188.0,107.0L185.0,113.0L182.0,107.0L188.0,107.0" fill="#191919"/></g><g id="shape115" transform="translate(3955.54,919.00)"><path fill-rule="nonzero" stroke-width="1" stroke="#323232" d="M164.5,63.0L164.5,7.0C164.5,3.1,161.4,.0,157.5,.0L7.0,.0C3.1,.0,.0,3.1,.0,7.0L.0,63.0C.0,66.9,3.1,70.0,7.0,70.0L157.5,70.0C161.4,70.0,164.5,66.9,164.5,63.0z" fill="#ffffff"/><text xml:space="preserve" style="fill:#191919;font-family:Microsoft YaHei;font-size:10.00pt"><tspan x="68.7" y="32.0">Tree</tspan><tspan x="62.9" y="50.0">parser</tspan></text></g><g id="shape116" transform="translate(4194.08,919.00)"><path fill-rule="nonzero" stroke-width="1" stroke="#323232" d="M164.5,63.0L164.5,7.0C164.5,3.1,161.4,.0,157.5,.0L7.0,.0C3.1,.0,.0,3.1,.0,7.0L.0,63.0C.0,66.9,3.1,70.0,7.0,70.0L157.5,70.0C161.4,70.0,164.5,66.9,164.5,63.0z" fill="#ffffff"/><text xml:space="preserve" style="fill:#191919;font-family:Microsoft YaHei;font-size:10.00pt"><tspan x="68.7" y="32.0">Tree</tspan><tspan x="62.9" y="50.0">parser</tspan></text></g><g id="shape117" transform="translate(4037.80,827.00)"><path stroke-width="1" stroke="#191919" d="M.0,.0L.0,64.0L-239.0,64.0L-239.0,86.0" fill="none"/><path stroke-width="1" stroke="#191919" stroke-linecap="round" d="M-236.0,86.0L-239.0,92.0L-242.0,86.0L-236.0,86.0" fill="#191919"/></g><g id="shape118" transform="translate(4037.80,827.00)"><path stroke-width="1" stroke="#191919" d="M.0,.0L.0,86.0" fill="none"/><path stroke-width="1" stroke="#191919" stroke-linecap="round" d="M3.0,86.0L.0,92.0L-3.0,86.0L3.0,86.0" fill="#191919"/></g><g id="shape119" transform="translate(4037.80,827.00)"><path stroke-width="1" stroke="#191919" d="M.0,.0L.0,64.0L238.0,64.0L238.0,86.0" fill="none"/><path stroke-width="1" stroke="#191919" stroke-linecap="round" d="M241.0,86.0L238.0,92.0L235.0,86.0L241.0,86.0" fill="#191919"/></g><g id="shape120" transform="translate(4037.80,989.00)"><path stroke-width="1" stroke="#191919" d="M.0,.0L.0,41.0L-232.5,41.0C-232.5,37.7,-235.2,35.0,-238.5,35.0C-241.9,35.0,-244.5,37.7,-244.5,41.0L-433.3,41.0C-433.3,37.7,-436.0,35.0,-439.3,35.0C-442.6,35.0,-445.3,37.7,-445.3,41.0L-646.0,41.0C-646.0,37.7,-648.7,35.0,-652.0,35.0C-655.3,35.0,-658.0,37.7,-658.0,41.0L-869.0,41.0C-869.0,37.7,-871.7,35.0,-875.0,35.0C-878.3,35.0,-881.0,37.7,-881.0,41.0L-931.3,41.0C-931.3,37.7,-934.0,35.0,-937.3,35.0C-940.6,35.0,-943.3,37.7,-943.3,41.0L-1269.3,41.0C-1269.3,37.7,-1272.0,35.0,-1275.3,35.0C-1278.6,35.0,-1281.3,37.7,-1281.3,41.0L-1717.0,41.0L-1717.0,120.5L-1739.3,120.5" fill="none"/><path stroke-width="1" stroke="#191919" stroke-linecap="round" d="M-1739.3,123.5L-1745.3,120.5L-1739.3,117.5L-1739.3,123.5" fill="#191919"/></g><g id="shape121" transform="translate(4276.34,989.00)"><path stroke-width="1" stroke="#191919" d="M.0,.0L.0,155.0L-615.8,155.0C-615.8,151.7,-618.5,149.0,-621.8,149.0C-625.1,149.0,-627.8,151.7,-627.8,155.0L-671.8,155.0C-671.8,151.7,-674.5,149.0,-677.8,149.0C-681.1,149.0,-683.8,151.7,-683.8,155.0L-884.5,155.0C-884.5,151.7,-887.2,149.0,-890.5,149.0C-893.8,149.0,-896.5,151.7,-896.5,155.0L-1046.2,155.0C-1046.2,151.7,-1048.9,149.0,-1052.2,149.0C-1055.5,149.0,-1058.2,151.7,-1058.2,155.0L-1107.6,155.0C-1107.6,151.7,-1110.2,149.0,-1113.6,149.0C-1116.9,149.0,-1119.6,151.7,-1119.6,155.0L-1169.8,155.0C-1169.8,151.7,-1172.5,149.0,-1175.8,149.0C-1179.1,149.0,-1181.8,151.7,-1181.8,155.0L-1425.0,155.0" fill="none"/><path stroke-width="1" stroke="#191919" stroke-linecap="round" d="M-1425.0,158.0L-1431.0,155.0L-1425.0,152.0L-1425.0,158.0" fill="#191919"/></g><g id="shape122" transform="translate(4442.87,919.00)"><path fill-rule="nonzero" stroke-width="1" stroke="#323232" d="M164.5,63.0L164.5,7.0C164.5,3.1,161.4,.0,157.5,.0L7.0,.0C3.1,.0,.0,3.1,.0,7.0L.0,63.0C.0,66.9,3.1,70.0,7.0,70.0L157.5,70.0C161.4,70.0,164.5,66.9,164.5,63.0z" fill="#ffffff"/><text xml:space="preserve" style="fill:#191919;font-family:Microsoft YaHei;font-size:10.00pt"><tspan x="68.7" y="32.0">Tree</tspan><tspan x="62.9" y="50.0">parser</tspan></text></g><g id="shape123" transform="translate(4614.02,827.00)"><path stroke-width="1" stroke="#191919" d="M.0,.0L.0,64.0L-89.0,64.0L-89.0,86.0" fill="none"/><path stroke-width="1" stroke="#191919" stroke-linecap="round" d="M-86.0,86.0L-89.0,92.0L-92.0,86.0L-86.0,86.0" fill="#191919"/></g><g id="shape124" transform="translate(4525.13,989.00)"><path stroke-width="1" stroke="#191919" d="M.0,.0L.0,57.0L-242.8,57.0C-242.8,53.7,-245.5,51.0,-248.8,51.0C-252.1,51.0,-254.8,53.7,-254.8,57.0L-719.9,57.0C-719.9,53.7,-722.6,51.0,-725.9,51.0C-729.2,51.0,-731.9,53.7,-731.9,57.0L-864.6,57.0C-864.6,53.7,-867.3,51.0,-870.6,51.0C-873.9,51.0,-876.6,53.7,-876.6,57.0L-920.6,57.0C-920.6,53.7,-923.3,51.0,-926.6,51.0C-929.9,51.0,-932.6,53.7,-932.6,57.0L-1133.3,57.0C-1133.3,53.7,-1136.0,51.0,-1139.3,51.0C-1142.6,51.0,-1145.3,53.7,-1145.3,57.0L-1295.0,57.0C-1295.0,53.7,-1297.6,51.0,-1301.0,51.0C-1304.3,51.0,-1307.0,53.7,-1307.0,57.0L-1356.4,57.0C-1356.4,53.7,-1359.0,51.0,-1362.4,51.0C-1365.7,51.0,-1368.4,53.7,-1368.4,57.0L-1418.6,57.0C-1418.6,53.7,-1421.3,51.0,-1424.6,51.0C-1427.9,51.0,-1430.6,53.7,-1430.6,57.0L-1756.6,57.0C-1756.6,53.7,-1759.3,51.0,-1762.6,51.0C-1765.9,51.0,-1768.6,53.7,-1768.6,57.0L-2204.0,57.0L-2204.0,120.0L-2226.0,120.0" fill="none"/><path stroke-width="1" stroke="#191919" stroke-linecap="round" d="M-2226.0,123.0L-2232.0,120.0L-2226.0,117.0L-2226.0,123.0" fill="#191919"/></g><g id="shape125" transform="translate(4208.30,1425.25)"><path fill-rule="nonzero" stroke-width="1" stroke="#323232" d="M178.4,79.0L178.4,7.0C178.4,3.1,175.3,.0,171.4,.0L7.0,.0C3.1,.0,.0,3.1,.0,7.0L.0,79.0C.0,82.9,3.1,86.0,7.0,86.0L171.4,86.0C175.3,86.0,178.4,82.9,178.4,79.0z" fill="#ffffff"/><text xml:space="preserve" style="fill:#191919;font-family:Microsoft YaHei;font-size:10.00pt"><tspan x="79.9" y="30.0" style="font-family:Microsoft YaHei UI;font-size:9.00pt">def</tspan><tspan x="36.1" y="48.0">Parser(DefStmnt)</tspan><tspan x="56.6" y="66.0">elements[]</tspan></text></g><g id="shape126" transform="translate(3894.26,1574.00)"><path fill-rule="nonzero" stroke-width="1" stroke="#323232" d="M164.5,63.0L164.5,7.0C164.5,3.1,161.4,.0,157.5,.0L7.0,.0C3.1,.0,.0,3.1,.0,7.0L.0,63.0C.0,66.9,3.1,70.0,7.0,70.0L157.5,70.0C161.4,70.0,164.5,66.9,164.5,63.0z" fill="#ffffff"/><text xml:space="preserve" style="fill:#191919;font-family:Microsoft YaHei;font-size:10.00pt"><tspan x="69.1" y="32.0">Skip</tspan><tspan x="61.5" y="50.0">tokens</tspan></text></g><g id="shape127" transform="translate(3926.27,1706.00)"><path fill-rule="nonzero" stroke-width="1" stroke="#323232" d="M100.0,63.0L100.0,7.0C100.0,3.1,96.9,.0,93.0,.0L7.0,.0C3.1,.0,.0,3.1,.0,7.0L.0,63.0C.0,66.9,3.1,70.0,7.0,70.0L93.0,70.0C96.9,70.0,100.0,66.9,100.0,63.0z" fill="#ffffff"/><text xml:space="preserve" style="fill:#191919;font-family:Microsoft YaHei;font-size:10.00pt"><tspan x="26.9" y="41.0">“def”</tspan></text></g><g id="shape128" transform="translate(3976.52,1644.00)"><path stroke-width="1" stroke="#191919" d="M.0,.0L.0,31.0L-0.3,31.0L-0.3,56.0" fill="none"/><path stroke-width="1" stroke="#191919" stroke-linecap="round" d="M2.8,56.0L-0.3,62.0L-3.3,56.0L2.8,56.0" fill="#191919"/></g><g id="shape129" transform="translate(4335.52,1574.00)"><path fill-rule="nonzero" stroke-width="1" stroke="#323232" d="M164.5,63.0L164.5,7.0C164.5,3.1,161.4,.0,157.5,.0L7.0,.0C3.1,.0,.0,3.1,.0,7.0L.0,63.0C.0,66.9,3.1,70.0,7.0,70.0L157.5,70.0C161.4,70.0,164.5,66.9,164.5,63.0z" fill="#ffffff"/><text xml:space="preserve" style="fill:#191919;font-family:Microsoft YaHei;font-size:10.00pt"><tspan x="68.7" y="32.0">Tree</tspan><tspan x="62.9" y="50.0">parser</tspan></text></g><g id="shape130" transform="translate(4149.30,1574.00)"><path fill-rule="nonzero" stroke-width="1" stroke="#323232" d="M100.0,63.0L100.0,7.0C100.0,3.1,96.9,.0,93.0,.0L7.0,.0C3.1,.0,.0,3.1,.0,7.0L.0,63.0C.0,66.9,3.1,70.0,7.0,70.0L93.0,70.0C96.9,70.0,100.0,66.9,100.0,63.0z" fill="#ffffff"/><text xml:space="preserve" style="fill:#191919;font-family:Microsoft YaHei;font-size:10.00pt"><tspan x="30.8" y="32.0">Parser</tspan><tspan x="17.4" y="50.0">elements[]</tspan></text></g><g id="shape131" transform="translate(4112.52,1706.00)"><path fill-rule="nonzero" stroke-width="1" stroke="#323232" d="M172.0,63.0L172.0,7.0C172.0,3.1,168.9,.0,165.0,.0L7.0,.0C3.1,.0,.0,3.1,.0,7.0L.0,63.0C.0,66.9,3.1,70.0,7.0,70.0L165.0,70.0C168.9,70.0,172.0,66.9,172.0,63.0z" fill="#ffffff"/><text xml:space="preserve" style="fill:#191919;font-family:Microsoft YaHei;font-size:10.00pt"><tspan x="15.0" y="41.0">IdToken(null, reserved)</tspan></text></g><g id="shape132" transform="translate(4199.30,1644.00)"><path stroke-width="1" stroke="#191919" d="M.0,.0L.0,56.0" fill="none"/><path stroke-width="1" stroke="#191919" stroke-linecap="round" d="M3.0,56.0L.0,62.0L-3.0,56.0L3.0,56.0" fill="#191919"/></g><g id="shape133" transform="translate(4351.65,1836.00)"><path fill-rule="nonzero" stroke-width="1" stroke="#323232" d="M132.3,63.0L132.3,7.0C132.3,3.1,129.1,.0,125.3,.0L7.0,.0C3.1,.0,.0,3.1,.0,7.0L.0,63.0C.0,66.9,3.1,70.0,7.0,70.0L125.3,70.0C129.1,70.0,132.3,66.9,132.3,63.0z" fill="#ffffff"/><text xml:space="preserve" style="fill:#191919;font-family:Microsoft YaHei;font-size:10.00pt"><tspan x="35.8" y="23.0">paramList</tspan><tspan x="46.9" y="41.0">Parser</tspan><tspan x="33.5" y="59.0">elements[]</tspan></text></g><g id="shape134" transform="translate(4574.26,1574.00)"><path fill-rule="nonzero" stroke-width="1" stroke="#323232" d="M164.5,63.0L164.5,7.0C164.5,3.1,161.4,.0,157.5,.0L7.0,.0C3.1,.0,.0,3.1,.0,7.0L.0,63.0C.0,66.9,3.1,70.0,7.0,70.0L157.5,70.0C161.4,70.0,164.5,66.9,164.5,63.0z" fill="#ffffff"/><text xml:space="preserve" style="fill:#191919;font-family:Microsoft YaHei;font-size:10.00pt"><tspan x="68.7" y="32.0">Tree</tspan><tspan x="62.9" y="50.0">parser</tspan></text></g><g id="shape135" transform="translate(4584.52,1706.00)"><path fill-rule="nonzero" stroke-width="1" stroke="#323232" d="M144.0,63.0L144.0,7.0C144.0,3.1,140.9,.0,137.0,.0L7.0,.0C3.1,.0,.0,3.1,.0,7.0L.0,63.0C.0,66.9,3.1,70.0,7.0,70.0L137.0,70.0C140.9,70.0,144.0,66.9,144.0,63.0z" fill="#ffffff"/><text xml:space="preserve" style="fill:#191919;font-family:Microsoft YaHei;font-size:10.00pt"><tspan x="55.2" y="23.0">block</tspan><tspan x="52.8" y="41.0">Parser</tspan><tspan x="39.4" y="59.0">elements[]</tspan></text></g><g id="shape136" transform="translate(4417.78,1644.00)"><path stroke-width="1" stroke="#191919" d="M.0,.0L.0,186.0" fill="none"/><path stroke-width="1" stroke="#191919" stroke-linecap="round" d="M3.0,186.0L.0,192.0L-3.0,186.0L3.0,186.0" fill="#191919"/></g><g id="shape137" transform="translate(4656.52,1644.00)"><path stroke-width="1" stroke="#191919" d="M.0,.0L.0,56.0" fill="none"/><path stroke-width="1" stroke="#191919" stroke-linecap="round" d="M3.0,56.0L.0,62.0L-3.0,56.0L3.0,56.0" fill="#191919"/></g><g id="shape138" transform="translate(4297.52,1511.25)"><path stroke-width="1" stroke="#191919" d="M.0,.0L.0,35.0L-99.0,35.0L-99.0,57.0" fill="none"/><path stroke-width="1" stroke="#191919" stroke-linecap="round" d="M-96.0,57.0L-99.0,63.0L-102.0,57.0L-96.0,57.0" fill="#191919"/></g><g id="shape139" transform="translate(4297.52,1511.00)"><path stroke-width="1" stroke="#191919" d="M.0,.0L.0,35.0L120.0,35.0L120.0,57.0" fill="none"/><path stroke-width="1" stroke="#191919" stroke-linecap="round" d="M123.0,57.0L120.0,63.0L117.0,57.0L123.0,57.0" fill="#191919"/></g><g id="shape140" transform="translate(4297.52,1511.00)"><path stroke-width="1" stroke="#191919" d="M.0,.0L.0,35.0L358.0,35.0L358.0,57.0" fill="none"/><path stroke-width="1" stroke="#191919" stroke-linecap="round" d="M361.0,57.0L358.0,63.0L355.0,57.0L361.0,57.0" fill="#191919"/></g><g id="shape141" transform="translate(4297.52,1511.00)"><path stroke-width="1" stroke="#191919" d="M.0,.0L.0,35.0L-322.0,35.0L-322.0,57.0" fill="none"/><path stroke-width="1" stroke="#191919" stroke-linecap="round" d="M-319.0,57.0L-322.0,63.0L-325.0,57.0L-319.0,57.0" fill="#191919"/></g><g id="shape142" transform="translate(4139.13,2011.50)"><path fill-rule="nonzero" stroke-width="1" stroke="#323232" d="M164.5,63.0L164.5,7.0C164.5,3.1,161.4,.0,157.5,.0L7.0,.0C3.1,.0,.0,3.1,.0,7.0L.0,63.0C.0,66.9,3.1,70.0,7.0,70.0L157.5,70.0C161.4,70.0,164.5,66.9,164.5,63.0z" fill="#ffffff"/><text xml:space="preserve" style="fill:#191919;font-family:Microsoft YaHei;font-size:10.00pt"><tspan x="69.1" y="32.0">Skip</tspan><tspan x="61.5" y="50.0">tokens</tspan></text></g><g id="shape143" transform="translate(4171.40,2143.50)"><path fill-rule="nonzero" stroke-width="1" stroke="#323232" d="M100.0,63.0L100.0,7.0C100.0,3.1,96.9,.0,93.0,.0L7.0,.0C3.1,.0,.0,3.1,.0,7.0L.0,63.0C.0,66.9,3.1,70.0,7.0,70.0L93.0,70.0C96.9,70.0,100.0,66.9,100.0,63.0z" fill="#ffffff"/><text xml:space="preserve" style="fill:#191919;font-family:Microsoft YaHei;font-size:10.00pt"><tspan x="34.8" y="41.0">“(”</tspan></text></g><g id="shape144" transform="translate(4221.39,2081.50)"><path stroke-width="1" stroke="#191919" d="M.0,.0L.0,31.0L.0,31.0L.0,56.0" fill="none"/><path stroke-width="1" stroke="#191919" stroke-linecap="round" d="M3.0,56.0L.0,62.0L-3.0,56.0L3.0,56.0" fill="#191919"/></g><g id="shape145" transform="translate(4532.00,2011.50)"><path fill-rule="nonzero" stroke-width="1" stroke="#323232" d="M164.5,63.0L164.5,7.0C164.5,3.1,161.4,.0,157.5,.0L7.0,.0C3.1,.0,.0,3.1,.0,7.0L.0,63.0C.0,66.9,3.1,70.0,7.0,70.0L157.5,70.0C161.4,70.0,164.5,66.9,164.5,63.0z" fill="#ffffff"/><text xml:space="preserve" style="fill:#191919;font-family:Microsoft YaHei;font-size:10.00pt"><tspan x="69.1" y="32.0">Skip</tspan><tspan x="61.5" y="50.0">tokens</tspan></text></g><g id="shape146" transform="translate(4564.01,2143.50)"><path fill-rule="nonzero" stroke-width="1" stroke="#323232" d="M100.0,63.0L100.0,7.0C100.0,3.1,96.9,.0,93.0,.0L7.0,.0C3.1,.0,.0,3.1,.0,7.0L.0,63.0C.0,66.9,3.1,70.0,7.0,70.0L93.0,70.0C96.9,70.0,100.0,66.9,100.0,63.0z" fill="#ffffff"/><text xml:space="preserve" style="fill:#191919;font-family:Microsoft YaHei;font-size:10.00pt"><tspan x="34.8" y="41.0">“)”</tspan></text></g><g id="shape147" transform="translate(4614.26,2081.50)"><path stroke-width="1" stroke="#191919" d="M.0,.0L.0,31.0L-0.3,31.0L-0.3,56.0" fill="none"/><path stroke-width="1" stroke="#191919" stroke-linecap="round" d="M2.8,56.0L-0.3,62.0L-3.3,56.0L2.8,56.0" fill="#191919"/></g><g id="shape148" transform="translate(4367.83,2011.50)"><path fill-rule="nonzero" stroke-width="1" stroke="#323232" d="M100.0,63.0L100.0,7.0C100.0,3.1,96.9,.0,93.0,.0L7.0,.0C3.1,.0,.0,3.1,.0,7.0L.0,63.0C.0,66.9,3.1,70.0,7.0,70.0L93.0,70.0C96.9,70.0,100.0,66.9,100.0,63.0z" fill="#ffffff"/><text xml:space="preserve" style="fill:#191919;font-family:Microsoft YaHei;font-size:10.00pt"><tspan x="28.7" y="32.0">OrTree</tspan><tspan x="23.3" y="50.0">parsers[]</tspan></text></g><g id="shape149" transform="translate(4194.94,2275.50)"><path fill-rule="nonzero" stroke-width="1" stroke="#323232" d="M165.7,79.0L165.7,7.0C165.7,3.1,162.6,.0,158.7,.0L7.0,.0C3.1,.0,.0,3.1,.0,7.0L.0,79.0C.0,82.9,3.1,86.0,7.0,86.0L158.7,86.0C162.6,86.0,165.7,82.9,165.7,79.0z" fill="#ffffff"/><text xml:space="preserve" style="fill:#191919;font-family:Microsoft YaHei;font-size:10.00pt"><tspan x="61.7" y="30.0" style="font-family:Microsoft YaHei UI;font-size:9.00pt">params</tspan><tspan x="16.9" y="48.0">Parser(ParameterList)</tspan><tspan x="50.2" y="66.0">elements[]</tspan></text></g><g id="shape150" transform="translate(4417.78,1906.00)"><path stroke-width="1" stroke="#191919" d="M.0,.0L.0,99.0" fill="none"/><path stroke-width="1" stroke="#191919" stroke-linecap="round" d="M3.0,99.0L.0,105.0L-3.0,99.0L3.0,99.0" fill="#191919"/></g><g id="shape151" transform="translate(4417.78,1906.00)"><path stroke-width="1" stroke="#191919" d="M.0,.0L.0,77.0L-196.0,77.0L-196.0,99.0" fill="none"/><path stroke-width="1" stroke="#191919" stroke-linecap="round" d="M-193.0,99.0L-196.0,105.0L-199.0,99.0L-193.0,99.0" fill="#191919"/></g><g id="shape152" transform="translate(4417.78,1906.00)"><path stroke-width="1" stroke="#191919" d="M.0,.0L.0,77.0L197.0,77.0L197.0,99.0" fill="none"/><path stroke-width="1" stroke="#191919" stroke-linecap="round" d="M200.0,99.0L197.0,105.0L194.0,99.0L200.0,99.0" fill="#191919"/></g><g id="shape153" transform="translate(4055.68,2433.50)"><path fill-rule="nonzero" stroke-width="1" stroke="#323232" d="M164.5,63.0L164.5,7.0C164.5,3.1,161.4,.0,157.5,.0L7.0,.0C3.1,.0,.0,3.1,.0,7.0L.0,63.0C.0,66.9,3.1,70.0,7.0,70.0L157.5,70.0C161.4,70.0,164.5,66.9,164.5,63.0z" fill="#ffffff"/><text xml:space="preserve" style="fill:#191919;font-family:Microsoft YaHei;font-size:10.00pt"><tspan x="68.7" y="32.0">Tree</tspan><tspan x="62.9" y="50.0">parser</tspan></text></g><g id="shape154" transform="translate(4294.42,2433.50)"><path fill-rule="nonzero" stroke-width="1" stroke="#323232" d="M164.5,63.0L164.5,7.0C164.5,3.1,161.4,.0,157.5,.0L7.0,.0C3.1,.0,.0,3.1,.0,7.0L.0,63.0C.0,66.9,3.1,70.0,7.0,70.0L157.5,70.0C161.4,70.0,164.5,66.9,164.5,63.0z" fill="#ffffff"/><text xml:space="preserve" style="fill:#191919;font-family:Microsoft YaHei;font-size:10.00pt"><tspan x="60.5" y="32.0">Repeat</tspan><tspan x="62.9" y="50.0">parser</tspan></text></g><g id="shape155" transform="translate(4304.68,2565.50)"><path fill-rule="nonzero" stroke-width="1" stroke="#323232" d="M144.0,63.0L144.0,7.0C144.0,3.1,140.9,.0,137.0,.0L7.0,.0C3.1,.0,.0,3.1,.0,7.0L.0,63.0C.0,66.9,3.1,70.0,7.0,70.0L137.0,70.0C140.9,70.0,144.0,66.9,144.0,63.0z" fill="#ffffff"/><text xml:space="preserve" style="fill:#191919;font-family:Microsoft YaHei;font-size:10.00pt"><tspan x="52.8" y="32.0">Parser</tspan><tspan x="39.4" y="50.0">elements[]</tspan></text></g><g id="shape156" transform="translate(4197.05,2716.50)"><path fill-rule="nonzero" stroke-width="1" stroke="#323232" d="M164.5,63.0L164.5,7.0C164.5,3.1,161.4,.0,157.5,.0L7.0,.0C3.1,.0,.0,3.1,.0,7.0L.0,63.0C.0,66.9,3.1,70.0,7.0,70.0L157.5,70.0C161.4,70.0,164.5,66.9,164.5,63.0z" fill="#ffffff"/><text xml:space="preserve" style="fill:#191919;font-family:Microsoft YaHei;font-size:10.00pt"><tspan x="69.1" y="32.0">Skip</tspan><tspan x="61.5" y="50.0">tokens</tspan></text></g><g id="shape157" transform="translate(4229.32,2848.50)"><path fill-rule="nonzero" stroke-width="1" stroke="#323232" d="M100.0,63.0L100.0,7.0C100.0,3.1,96.9,.0,93.0,.0L7.0,.0C3.1,.0,.0,3.1,.0,7.0L.0,63.0C.0,66.9,3.1,70.0,7.0,70.0L93.0,70.0C96.9,70.0,100.0,66.9,100.0,63.0z" fill="#ffffff"/><text xml:space="preserve" style="fill:#191919;font-family:Microsoft YaHei;font-size:10.00pt"><tspan x="35.4" y="41.0">“,”</tspan></text></g><g id="shape158" transform="translate(4279.31,2786.50)"><path stroke-width="1" stroke="#191919" d="M.0,.0L.0,31.0L.0,31.0L.0,56.0" fill="none"/><path stroke-width="1" stroke="#191919" stroke-linecap="round" d="M3.0,56.0L.0,62.0L-3.0,56.0L3.0,56.0" fill="#191919"/></g><g id="shape159" transform="translate(4412.31,2716.50)"><path fill-rule="nonzero" stroke-width="1" stroke="#323232" d="M164.5,63.0L164.5,7.0C164.5,3.1,161.4,.0,157.5,.0L7.0,.0C3.1,.0,.0,3.1,.0,7.0L.0,63.0C.0,66.9,3.1,70.0,7.0,70.0L157.5,70.0C161.4,70.0,164.5,66.9,164.5,63.0z" fill="#ffffff"/><text xml:space="preserve" style="fill:#191919;font-family:Microsoft YaHei;font-size:10.00pt"><tspan x="68.7" y="32.0">Tree</tspan><tspan x="62.9" y="50.0">parser</tspan></text></g><g id="shape160" transform="translate(4422.57,2953.50)"><path fill-rule="nonzero" stroke-width="1" stroke="#323232" d="M144.0,63.0L144.0,7.0C144.0,3.1,140.9,.0,137.0,.0L7.0,.0C3.1,.0,.0,3.1,.0,7.0L.0,63.0C.0,66.9,3.1,70.0,7.0,70.0L137.0,70.0C140.9,70.0,144.0,66.9,144.0,63.0z" fill="#ffffff"/><text xml:space="preserve" style="fill:#191919;font-family:Microsoft YaHei;font-size:10.00pt"><tspan x="52.1" y="23.0">param</tspan><tspan x="52.8" y="41.0">Parser</tspan><tspan x="39.4" y="59.0">elements[]</tspan></text></g><g id="shape161" transform="translate(4494.57,2786.50)"><path stroke-width="1" stroke="#191919" d="M.0,.0L.0,161.0" fill="none"/><path stroke-width="1" stroke="#191919" stroke-linecap="round" d="M3.0,161.0L.0,167.0L-3.0,161.0L3.0,161.0" fill="#191919"/></g><g id="shape162" transform="translate(4277.81,2361.50)"><path stroke-width="1" stroke="#191919" d="M.0,.0L.0,44.0L-140.0,44.0L-140.0,66.0" fill="none"/><path stroke-width="1" stroke="#191919" stroke-linecap="round" d="M-137.0,66.0L-140.0,72.0L-143.0,66.0L-137.0,66.0" fill="#191919"/></g><g id="shape163" transform="translate(4277.81,2361.50)"><path stroke-width="1" stroke="#191919" d="M.0,.0L.0,44.0L99.0,44.0L99.0,66.0" fill="none"/><path stroke-width="1" stroke="#191919" stroke-linecap="round" d="M102.0,66.0L99.0,72.0L96.0,66.0L102.0,66.0" fill="#191919"/></g><g id="shape164" transform="translate(4376.68,2503.50)"><path stroke-width="1" stroke="#191919" d="M.0,.0L.0,56.0" fill="none"/><path stroke-width="1" stroke="#191919" stroke-linecap="round" d="M3.0,56.0L.0,62.0L-3.0,56.0L3.0,56.0" fill="#191919"/></g><g id="shape165" transform="translate(4376.68,2635.50)"><path stroke-width="1" stroke="#191919" d="M.0,.0L.0,53.0L-97.0,53.0L-97.0,75.0" fill="none"/><path stroke-width="1" stroke="#191919" stroke-linecap="round" d="M-94.0,75.0L-97.0,81.0L-100.0,75.0L-94.0,75.0" fill="#191919"/></g><g id="shape166" transform="translate(4376.68,2635.50)"><path stroke-width="1" stroke="#191919" d="M.0,.0L.0,53.0L118.0,53.0L118.0,75.0" fill="none"/><path stroke-width="1" stroke="#191919" stroke-linecap="round" d="M121.0,75.0L118.0,81.0L115.0,75.0L121.0,75.0" fill="#191919"/></g><g id="shape167" transform="translate(4408.57,3085.50)"><path fill-rule="nonzero" stroke-width="1" stroke="#323232" d="M172.0,63.0L172.0,7.0C172.0,3.1,168.9,.0,165.0,.0L7.0,.0C3.1,.0,.0,3.1,.0,7.0L.0,63.0C.0,66.9,3.1,70.0,7.0,70.0L165.0,70.0C168.9,70.0,172.0,66.9,172.0,63.0z" fill="#ffffff"/><text xml:space="preserve" style="fill:#191919;font-family:Microsoft YaHei;font-size:10.00pt"><tspan x="15.0" y="41.0">IdToken(null, reserved)</tspan></text></g><g id="shape168" transform="translate(4494.57,3023.50)"><path stroke-width="1" stroke="#191919" d="M.0,.0L.0,56.0" fill="none"/><path stroke-width="1" stroke="#191919" stroke-linecap="round" d="M3.0,56.0L.0,62.0L-3.0,56.0L3.0,56.0" fill="#191919"/></g><g id="shape169" transform="translate(4137.94,2503.50)"><path stroke-width="1" stroke="#191919" d="M.0,.0L.0,485.0L279.0,485.0" fill="none"/><path stroke-width="1" stroke="#191919" stroke-linecap="round" d="M279.0,482.0L285.0,485.0L279.0,488.0L279.0,482.0" fill="#191919"/></g><g id="shape170" transform="translate(3006.52,2034.50)"><path fill-rule="nonzero" stroke-width="1" stroke="#323232" d="M100.0,53.0L100.0,7.0C100.0,3.1,96.9,.0,93.0,.0L7.0,.0C3.1,.0,.0,3.1,.0,7.0L.0,53.0C.0,56.9,3.1,60.0,7.0,60.0L93.0,60.0C96.9,60.0,100.0,56.9,100.0,53.0z" fill="#ffffff"/><text xml:space="preserve" style="fill:#191919;font-family:Microsoft YaHei;font-size:10.00pt"><tspan x="28.2" y="27.0">Repeat</tspan><tspan x="23.3" y="45.0">parsers[]</tspan></text></g><g id="shape171" transform="translate(3006.52,2157.00)"><path fill-rule="nonzero" stroke-width="1" stroke="#323232" d="M100.0,63.0L100.0,7.0C100.0,3.1,96.9,.0,93.0,.0L7.0,.0C3.1,.0,.0,3.1,.0,7.0L.0,63.0C.0,66.9,3.1,70.0,7.0,70.0L93.0,70.0C96.9,70.0,100.0,66.9,100.0,63.0z" fill="#ffffff"/><text xml:space="preserve" style="fill:#191919;font-family:Microsoft YaHei;font-size:10.00pt"><tspan x="30.6" y="22.0" style="font-family:Microsoft YaHei UI;font-size:9.00pt">postfix</tspan><tspan x="30.8" y="40.0">Parser</tspan><tspan x="17.4" y="58.0">elements[]</tspan></text></g><g id="shape172" transform="translate(2728.81,2311.00)"><path fill-rule="nonzero" stroke-width="1" stroke="#323232" d="M164.5,63.0L164.5,7.0C164.5,3.1,161.4,.0,157.5,.0L7.0,.0C3.1,.0,.0,3.1,.0,7.0L.0,63.0C.0,66.9,3.1,70.0,7.0,70.0L157.5,70.0C161.4,70.0,164.5,66.9,164.5,63.0z" fill="#ffffff"/><text xml:space="preserve" style="fill:#191919;font-family:Microsoft YaHei;font-size:10.00pt"><tspan x="69.1" y="32.0">Skip</tspan><tspan x="61.5" y="50.0">tokens</tspan></text></g><g id="shape173" transform="translate(2760.82,2443.00)"><path fill-rule="nonzero" stroke-width="1" stroke="#323232" d="M100.0,63.0L100.0,7.0C100.0,3.1,96.9,.0,93.0,.0L7.0,.0C3.1,.0,.0,3.1,.0,7.0L.0,63.0C.0,66.9,3.1,70.0,7.0,70.0L93.0,70.0C96.9,70.0,100.0,66.9,100.0,63.0z" fill="#ffffff"/><text xml:space="preserve" style="fill:#191919;font-family:Microsoft YaHei;font-size:10.00pt"><tspan x="30.5" y="41.0">“（”</tspan></text></g><g id="shape174" transform="translate(3364.26,2311.00)"><path fill-rule="nonzero" stroke-width="1" stroke="#323232" d="M164.5,63.0L164.5,7.0C164.5,3.1,161.4,.0,157.5,.0L7.0,.0C3.1,.0,.0,3.1,.0,7.0L.0,63.0C.0,66.9,3.1,70.0,7.0,70.0L157.5,70.0C161.4,70.0,164.5,66.9,164.5,63.0z" fill="#ffffff"/><text xml:space="preserve" style="fill:#191919;font-family:Microsoft YaHei;font-size:10.00pt"><tspan x="69.1" y="32.0">Skip</tspan><tspan x="61.5" y="50.0">tokens</tspan></text></g><g id="shape175" transform="translate(3396.27,2443.00)"><path fill-rule="nonzero" stroke-width="1" stroke="#323232" d="M100.0,63.0L100.0,7.0C100.0,3.1,96.9,.0,93.0,.0L7.0,.0C3.1,.0,.0,3.1,.0,7.0L.0,63.0C.0,66.9,3.1,70.0,7.0,70.0L93.0,70.0C96.9,70.0,100.0,66.9,100.0,63.0z" fill="#ffffff"/><text xml:space="preserve" style="fill:#191919;font-family:Microsoft YaHei;font-size:10.00pt"><tspan x="30.5" y="41.0">“）”</tspan></text></g><g id="shape176" transform="translate(4417.83,2081.50)"><path stroke-width="1" stroke="#191919" d="M.0,.0L.0,165.0L-140.0,165.0L-140.0,187.0" fill="none"/><path stroke-width="1" stroke="#191919" stroke-linecap="round" d="M-137.0,187.0L-140.0,193.0L-143.0,187.0L-137.0,187.0" fill="#191919"/></g><g id="shape177" transform="translate(3006.52,2311.00)"><path fill-rule="nonzero" stroke-width="1" stroke="#323232" d="M100.0,63.0L100.0,7.0C100.0,3.1,96.9,.0,93.0,.0L7.0,.0C3.1,.0,.0,3.1,.0,7.0L.0,63.0C.0,66.9,3.1,70.0,7.0,70.0L93.0,70.0C96.9,70.0,100.0,66.9,100.0,63.0z" fill="#ffffff"/><text xml:space="preserve" style="fill:#191919;font-family:Microsoft YaHei;font-size:10.00pt"><tspan x="28.7" y="32.0">OrTree</tspan><tspan x="23.3" y="50.0">parsers[]</tspan></text></g><g id="shape178" transform="translate(2978.02,2435.00)"><path fill-rule="nonzero" stroke-width="1" stroke="#323232" d="M157.0,79.0L157.0,7.0C157.0,3.1,153.9,.0,150.0,.0L7.0,.0C3.1,.0,.0,3.1,.0,7.0L.0,79.0C.0,82.9,3.1,86.0,7.0,86.0L150.0,86.0C153.9,86.0,157.0,82.9,157.0,79.0z" fill="#ffffff"/><text xml:space="preserve" style="fill:#191919;font-family:Microsoft YaHei;font-size:10.00pt"><tspan x="66.3" y="30.0" style="font-family:Microsoft YaHei UI;font-size:9.00pt">args</tspan><tspan x="20.6" y="48.0">Parser(Arguments)</tspan><tspan x="45.9" y="66.0">elements[]</tspan></text></g><g id="shape179" transform="translate(3056.52,2381.00)"><path stroke-width="1" stroke="#191919" d="M.0,.0L.0,48.0" fill="none"/><path stroke-width="1" stroke="#191919" stroke-linecap="round" d="M3.0,48.0L.0,54.0L-3.0,48.0L3.0,48.0" fill="#191919"/></g><g id="shape180" transform="translate(3056.52,2094.50)"><path stroke-width="1" stroke="#191919" d="M.0,.0L.0,57.0" fill="none"/><path stroke-width="1" stroke="#191919" stroke-linecap="round" d="M3.0,57.0L.0,63.0L-3.0,57.0L3.0,57.0" fill="#191919"/></g><g id="shape181" transform="translate(3446.52,2381.00)"><path stroke-width="1" stroke="#191919" d="M.0,.0L.0,56.0" fill="none"/><path stroke-width="1" stroke="#191919" stroke-linecap="round" d="M3.0,56.0L.0,62.0L-3.0,56.0L3.0,56.0" fill="#191919"/></g><g id="shape182" transform="translate(2811.07,2381.00)"><path stroke-width="1" stroke="#191919" d="M.0,.0L.0,56.0" fill="none"/><path stroke-width="1" stroke="#191919" stroke-linecap="round" d="M3.0,56.0L.0,62.0L-3.0,56.0L3.0,56.0" fill="#191919"/></g><g id="shape183" transform="translate(3056.52,2227.00)"><path stroke-width="1" stroke="#191919" d="M.0,.0L.0,56.0L-246.0,56.0L-246.0,78.0" fill="none"/><path stroke-width="1" stroke="#191919" stroke-linecap="round" d="M-243.0,78.0L-246.0,84.0L-249.0,78.0L-243.0,78.0" fill="#191919"/></g><g id="shape184" transform="translate(3056.52,2227.00)"><path stroke-width="1" stroke="#191919" d="M.0,.0L.0,78.0" fill="none"/><path stroke-width="1" stroke="#191919" stroke-linecap="round" d="M3.0,78.0L.0,84.0L-3.0,78.0L3.0,78.0" fill="#191919"/></g><g id="shape185" transform="translate(3056.52,2227.00)"><path stroke-width="1" stroke="#191919" d="M.0,.0L.0,56.0L38.0,56.0C38.0,52.7,40.7,50.0,44.0,50.0C47.3,50.0,50.0,52.7,50.0,56.0L389.0,56.0L389.0,78.0" fill="none"/><path stroke-width="1" stroke="#191919" stroke-linecap="round" d="M392.0,78.0L389.0,84.0L386.0,78.0L392.0,78.0" fill="#191919"/></g><g id="shape186" transform="translate(2181.42,1958.50)"><path stroke-width="1" stroke="#191919" d="M.0,.0L.0,48.0L262.5,48.0C262.5,44.7,265.2,41.9,268.5,41.9C271.9,41.9,274.6,44.7,274.6,48.0L876.0,48.0L876.0,70.0" fill="none"/><path stroke-width="1" stroke="#191919" stroke-linecap="round" d="M879.0,70.0L876.0,76.0L873.0,70.0L879.0,70.0" fill="#191919"/></g><g id="shape187" transform="translate(2905.88,2611.00)"><path fill-rule="nonzero" stroke-width="1" stroke="#323232" d="M164.5,63.0L164.5,7.0C164.5,3.1,161.4,.0,157.5,.0L7.0,.0C3.1,.0,.0,3.1,.0,7.0L.0,63.0C.0,66.9,3.1,70.0,7.0,70.0L157.5,70.0C161.4,70.0,164.5,66.9,164.5,63.0z" fill="#ffffff"/><text xml:space="preserve" style="fill:#191919;font-family:Microsoft YaHei;font-size:10.00pt"><tspan x="68.7" y="32.0">Tree</tspan><tspan x="62.9" y="50.0">parser</tspan></text></g><g id="shape188" transform="translate(3107.15,2611.00)"><path fill-rule="nonzero" stroke-width="1" stroke="#323232" d="M100.0,63.0L100.0,7.0C100.0,3.1,96.9,.0,93.0,.0L7.0,.0C3.1,.0,.0,3.1,.0,7.0L.0,63.0C.0,66.9,3.1,70.0,7.0,70.0L93.0,70.0C96.9,70.0,100.0,66.9,100.0,63.0z" fill="#ffffff"/><text xml:space="preserve" style="fill:#191919;font-family:Microsoft YaHei;font-size:10.00pt"><tspan x="28.2" y="32.0">Repeat</tspan><tspan x="23.3" y="50.0">parsers[]</tspan></text></g><g id="shape189" transform="translate(3056.00,2759.00)"><path fill-rule="nonzero" stroke-width="1" stroke="#323232" d="M164.5,63.0L164.5,7.0C164.5,3.1,161.4,.0,157.5,.0L7.0,.0C3.1,.0,.0,3.1,.0,7.0L.0,63.0C.0,66.9,3.1,70.0,7.0,70.0L157.5,70.0C161.4,70.0,164.5,66.9,164.5,63.0z" fill="#ffffff"/><text xml:space="preserve" style="fill:#191919;font-family:Microsoft YaHei;font-size:10.00pt"><tspan x="69.1" y="32.0">Skip</tspan><tspan x="61.5" y="50.0">tokens</tspan></text></g><g id="shape190" transform="translate(3088.01,2891.00)"><path fill-rule="nonzero" stroke-width="1" stroke="#323232" d="M100.0,63.0L100.0,7.0C100.0,3.1,96.9,.0,93.0,.0L7.0,.0C3.1,.0,.0,3.1,.0,7.0L.0,63.0C.0,66.9,3.1,70.0,7.0,70.0L93.0,70.0C96.9,70.0,100.0,66.9,100.0,63.0z" fill="#ffffff"/><text xml:space="preserve" style="fill:#191919;font-family:Microsoft YaHei;font-size:10.00pt"><tspan x="35.4" y="41.0">“,”</tspan></text></g><g id="shape191" transform="translate(3056.52,2521.00)"><path stroke-width="1" stroke="#191919" d="M.0,.0L.0,62.0L-69.0,62.0L-69.0,84.0" fill="none"/><path stroke-width="1" stroke="#191919" stroke-linecap="round" d="M-66.0,84.0L-69.0,90.0L-72.0,84.0L-66.0,84.0" fill="#191919"/></g><g id="shape192" transform="translate(3056.52,2521.00)"><path stroke-width="1" stroke="#191919" d="M.0,.0L.0,62.0L100.0,62.0L100.0,84.0" fill="none"/><path stroke-width="1" stroke="#191919" stroke-linecap="round" d="M103.0,84.0L100.0,90.0L97.0,84.0L103.0,84.0" fill="#191919"/></g><g id="shape193" transform="translate(3156.52,2681.00)"><path stroke-width="1" stroke="#191919" d="M.0,.0L.0,50.0L-19.0,50.0L-19.0,72.0" fill="none"/><path stroke-width="1" stroke="#191919" stroke-linecap="round" d="M-16.0,72.0L-19.0,78.0L-22.0,72.0L-16.0,72.0" fill="#191919"/></g><g id="shape194" transform="translate(3137.52,2829.00)"><path stroke-width="1" stroke="#191919" d="M.0,.0L.0,56.0" fill="none"/><path stroke-width="1" stroke="#191919" stroke-linecap="round" d="M3.0,56.0L.0,62.0L-3.0,56.0L3.0,56.0" fill="#191919"/></g><g id="shape195" transform="translate(2905.88,2646.00)"><path stroke-width="1" stroke="#191919" d="M.0,.0L-456.0,.0L-456.0,-1195.0L-570.0,-1195.0L-570.0,-1537.0L-579.1,-1537.0C-579.1,-1540.3,-581.8,-1543.0,-585.1,-1543.0C-588.4,-1543.0,-591.1,-1540.3,-591.1,-1537.0L-607.0,-1537.0" fill="none"/><path stroke-width="1" stroke="#191919" stroke-linecap="round" d="M-607.0,-1534.0L-613.0,-1537.0L-607.0,-1540.0L-607.0,-1534.0" fill="#191919"/></g><g id="shape196" transform="translate(3088.01,2926.00)"><path stroke-width="1" stroke="#191919" d="M.0,.0L-638.0,.0L-638.0,-1475.0L-752.0,-1475.0L-752.0,-1817.0L-761.2,-1817.0C-761.2,-1820.3,-763.9,-1823.0,-767.2,-1823.0C-770.5,-1823.0,-773.2,-1820.3,-773.2,-1817.0L-789.0,-1817.0" fill="none"/><path stroke-width="1" stroke="#191919" stroke-linecap="round" d="M-789.0,-1814.0L-795.0,-1817.0L-789.0,-1820.0L-789.0,-1814.0" fill="#191919"/></g><g id="shape197" transform="translate(4441.70,2275.50)"><path fill-rule="nonzero" stroke-width="1" stroke="#323232" d="M165.7,79.0L165.7,7.0C165.7,3.1,162.6,.0,158.7,.0L7.0,.0C3.1,.0,.0,3.1,.0,7.0L.0,79.0C.0,82.9,3.1,86.0,7.0,86.0L158.7,86.0C162.6,86.0,165.7,82.9,165.7,79.0z" fill="#ffffff"/><text xml:space="preserve" style="fill:#191919;font-family:Microsoft YaHei;font-size:10.00pt"><tspan x="61.7" y="30.0" style="font-family:Microsoft YaHei UI;font-size:9.00pt">params</tspan><tspan x="16.9" y="48.0">Parser(ParameterList)</tspan><tspan x="50.2" y="66.0">elements[]</tspan></text></g><g id="shape198" transform="translate(4417.83,2081.50)"><path stroke-width="1" stroke="#191919" d="M.0,.0L.0,165.0L106.0,165.0L106.0,187.0" fill="none"/><path stroke-width="1" stroke="#191919" stroke-linecap="round" d="M109.0,187.0L106.0,193.0L103.0,187.0L109.0,187.0" fill="#191919"/></g><g id="shape199" transform="translate(3187.14,2443.00)"><path fill-rule="nonzero" stroke-width="1" stroke="#323232" d="M157.0,79.0L157.0,7.0C157.0,3.1,153.9,.0,150.0,.0L7.0,.0C3.1,.0,.0,3.1,.0,7.0L.0,79.0C.0,82.9,3.1,86.0,7.0,86.0L150.0,86.0C153.9,86.0,157.0,82.9,157.0,79.0z" fill="#ffffff"/><text xml:space="preserve" style="fill:#191919;font-family:Microsoft YaHei;font-size:10.00pt"><tspan x="66.3" y="30.0" style="font-family:Microsoft YaHei UI;font-size:9.00pt">args</tspan><tspan x="20.6" y="48.0">Parser(Arguments)</tspan><tspan x="45.9" y="66.0">elements[]</tspan></text></g><g id="shape200" transform="translate(3056.52,2381.00)"><path stroke-width="1" stroke="#191919" d="M.0,.0L.0,34.0L38.0,34.0C38.0,30.7,40.7,28.0,44.0,28.0C47.3,28.0,50.0,30.7,50.0,34.0L208.0,34.0L208.0,56.0" fill="none"/><path stroke-width="1" stroke="#191919" stroke-linecap="round" d="M211.0,56.0L208.0,62.0L205.0,56.0L211.0,56.0" fill="#191919"/></g><g id="shape201" transform="translate(4706.26,919.00)"><path fill-rule="nonzero" stroke-width="1" stroke="#323232" d="M164.5,63.0L164.5,7.0C164.5,3.1,161.4,.0,157.5,.0L7.0,.0C3.1,.0,.0,3.1,.0,7.0L.0,63.0C.0,66.9,3.1,70.0,7.0,70.0L157.5,70.0C161.4,70.0,164.5,66.9,164.5,63.0z" fill="#ffffff"/><text xml:space="preserve" style="fill:#191919;font-family:Microsoft YaHei;font-size:10.00pt"><tspan x="60.5" y="32.0">Repeat</tspan><tspan x="62.9" y="50.0">parser</tspan></text></g><g id="shape202" transform="translate(4614.02,827.00)"><path stroke-width="1" stroke="#191919" d="M.0,.0L.0,64.0L174.0,64.0L174.0,86.0" fill="none"/><path stroke-width="1" stroke="#191919" stroke-linecap="round" d="M177.0,86.0L174.0,92.0L171.0,86.0L177.0,86.0" fill="#191919"/></g><g id="shape203" transform="translate(4788.52,989.00)"><path stroke-width="1" stroke="#191919" d="M.0,.0L.0,28.0L-257.4,28.0C-257.4,24.7,-260.1,22.0,-263.4,22.0C-266.7,22.0,-269.4,24.7,-269.4,28.0L-506.2,28.0C-506.2,24.7,-508.9,22.0,-512.2,22.0C-515.5,22.0,-518.2,24.7,-518.2,28.0L-744.7,28.0C-744.7,24.7,-747.4,22.0,-750.7,22.0C-754.0,22.0,-756.7,24.7,-756.7,28.0L-983.3,28.0C-983.3,24.7,-985.9,22.0,-989.3,22.0C-992.6,22.0,-995.3,24.7,-995.3,28.0L-1184.0,28.0C-1184.0,24.7,-1186.7,22.0,-1190.0,22.0C-1193.3,22.0,-1196.0,24.7,-1196.0,28.0L-1396.7,28.0C-1396.7,24.7,-1399.4,22.0,-1402.7,22.0C-1406.0,22.0,-1408.7,24.7,-1408.7,28.0L-1619.7,28.0C-1619.7,24.7,-1622.4,22.0,-1625.7,22.0C-1629.1,22.0,-1631.7,24.7,-1631.7,28.0L-1688.0,28.0L-1688.0,1489.0L-1659.5,1489.0" fill="none"/><path stroke-width="1" stroke="#191919" stroke-linecap="round" d="M-1659.5,1486.0L-1653.5,1489.0L-1659.5,1492.0L-1659.5,1486.0" fill="#191919"/></g><g id="shape204" transform="matrix(0.00,1.00,-1.00,0.00,2871.8,625.4)"><path fill-rule="nonzero" stroke-width="1" stroke="#191919" d="M48.0,251.3L151.0,189.2M.0,.0L48.0,.0L48.0,502.7L.0,502.7L.0,.0z" fill="#ffffff"/><path stroke-width="1" stroke="#191919" stroke-linecap="round" d="M154.4,187.1C155.6,189.0,155.0,191.4,153.1,192.6C151.2,193.7,148.7,193.1,147.6,191.2C146.4,189.3,147.0,186.9,148.9,185.7C150.8,184.6,153.3,185.2,154.4,187.1" fill="#191919"/><text xml:space="preserve" style="fill:#454545;font-family:Microsoft YaHei;font-size:18.00pt" transform="matrix(0.00,-1.00,1.00,0.00,-227.3,275.3)"><tspan x="-153.7" y="261.3">这条分支表示一个if/if else代码块</tspan></text></g><g id="shape205" transform="matrix(0.00,1.00,-1.00,0.00,4515.9,629.0)"><path fill-rule="nonzero" stroke-width="1" stroke="#191919" d="M40.0,316.3L135.0,391.3M.0,.0L80.0,.0L80.0,316.3L.0,316.3L.0,.0z" fill="#ffffff"/><path stroke-width="1" stroke="#191919" stroke-linecap="round" d="M138.1,393.8C136.8,395.5,134.3,395.8,132.5,394.4C130.8,393.1,130.5,390.6,131.9,388.8C133.2,387.1,135.7,386.8,137.5,388.2C139.2,389.5,139.5,392.1,138.1,393.8" fill="#191919"/><text xml:space="preserve" style="fill:#454545;font-family:Microsoft YaHei;font-size:18.00pt" transform="matrix(0.00,-1.00,1.00,0.00,-118.2,198.2)"><tspan x="-98.0" y="152.2">这个分支表示一个while代</tspan><tspan x="16.0" y="184.2">码块</tspan></text></g><g id="shape206" transform="matrix(0.00,1.00,-1.00,0.00,5128.5,621.0)"><path fill-rule="nonzero" stroke-width="1" stroke="#191919" d="M40.0,325.3L140.7,406.4M.0,.0L80.0,.0L80.0,325.3L.0,325.3L.0,.0z" fill="#ffffff"/><path stroke-width="1" stroke="#191919" stroke-linecap="round" d="M143.8,408.9C142.5,410.6,139.9,410.9,138.2,409.5C136.5,408.1,136.2,405.6,137.6,403.9C139.0,402.2,141.5,401.9,143.2,403.3C145.0,404.6,145.2,407.2,143.8,408.9" fill="#191919"/><text xml:space="preserve" style="fill:#454545;font-family:Microsoft YaHei;font-size:18.00pt" transform="matrix(0.00,-1.00,1.00,0.00,-122.7,202.7)"><tspan x="-104.0" y="156.7">这个分支表示一个普通的计</tspan><tspan x="-92.0" y="188.7">算或是赋值或是方法调用</tspan></text></g><g id="shape207" transform="matrix(0.00,1.00,-1.00,0.00,4792.8,1299.0)"><path fill-rule="nonzero" stroke-width="1" stroke="#191919" d="M24.0,325.3L126.3,427.6M.0,.0L48.0,.0L48.0,325.3L.0,325.3L.0,.0z" fill="#ffffff"/><path stroke-width="1" stroke="#191919" stroke-linecap="round" d="M129.1,430.4C127.5,432.0,125.0,432.0,123.4,430.4C121.9,428.8,121.9,426.3,123.4,424.7C125.0,423.2,127.5,423.2,129.1,424.7C130.6,426.3,130.6,428.8,129.1,430.4" fill="#191919"/><text xml:space="preserve" style="fill:#454545;font-family:Microsoft YaHei;font-size:18.00pt" transform="matrix(0.00,-1.00,1.00,0.00,-138.7,186.7)"><tspan x="-24.0" y="172.7">方法定义</tspan></text></g><g id="shape208" transform="translate(3688.56,476.00)"><path stroke-width="1" stroke="#191919" d="M.0,.0L.0,28.0L238.0,28.0L238.0,47.0" fill="none"/><path stroke-width="1" stroke="#191919" stroke-linecap="round" d="M241.0,47.0L238.0,53.0L235.0,47.0L241.0,47.0" fill="#191919"/></g><g id="shape209" transform="translate(3688.56,476.00)"><path stroke-width="1" stroke="#191919" d="M.0,.0L.0,28.0L-90.0,28.0L-90.0,715.0L-40.0,715.0C-40.0,711.7,-37.4,709.0,-34.0,709.0C-30.7,709.0,-28.0,711.7,-28.0,715.0L146.0,715.0L146.0,921.0L609.0,921.0L609.0,943.3" fill="none"/><path stroke-width="1" stroke="#191919" stroke-linecap="round" d="M612.0,943.3L609.0,949.3L606.0,943.3L612.0,943.3" fill="#191919"/></g><g id="shape210" transform="translate(4727.52,1741.00)"><path stroke-width="1" stroke="#191919" d="M.0,.0L28.0,.0L28.0,-222.0L-424.0,-222.0C-424.0,-225.3,-426.7,-228.0,-430.0,-228.0C-433.3,-228.0,-436.0,-225.3,-436.0,-222.0L-1558.7,-222.0C-1558.7,-225.3,-1561.4,-228.0,-1564.7,-228.0C-1568.1,-228.0,-1570.7,-225.3,-1570.7,-222.0L-1621.0,-222.0C-1621.0,-225.3,-1623.7,-228.0,-1627.0,-228.0C-1630.3,-228.0,-1633.0,-225.3,-1633.0,-222.0L-1873.0,-222.0L-1873.0,-597.0L-1877.0,-597.0" fill="none"/><path stroke-width="1" stroke="#191919" stroke-linecap="round" d="M-1877.0,-594.0L-1883.0,-597.0L-1877.0,-600.0L-1877.0,-594.0" fill="#191919"/></g><g id="shape211" transform="translate(2243.52,1012.00)"><path stroke-width="1" stroke="#191919" d="M.0,.0L.0,56.0" fill="none"/><path stroke-width="1" stroke="#191919" stroke-linecap="round" d="M3.0,56.0L.0,62.0L-3.0,56.0L3.0,56.0" fill="#191919"/></g><g id="shape212" transform="translate(2240.52,1539.00)"><path stroke-width="1" stroke="#191919" d="M.0,.0L.0,186.0L50.0,186.0L50.0,243.0L28.0,243.0" fill="none"/><path stroke-width="1" stroke="#191919" stroke-linecap="round" d="M28.0,246.0L22.0,243.0L28.0,240.0L28.0,246.0" fill="#191919"/></g><g id="shape213" transform="translate(1035.76,2135.00)"><path fill-rule="nonzero" stroke-width="1" stroke="#323232" d="M123.0,63.0L123.0,7.0C123.0,3.1,119.9,.0,116.0,.0L7.0,.0C3.1,.0,.0,3.1,.0,7.0L.0,63.0C.0,66.9,3.1,70.0,7.0,70.0L116.0,70.0C119.9,70.0,123.0,66.9,123.0,63.0z" fill="#ffffff"/><text xml:space="preserve" style="fill:#191919;font-family:Microsoft YaHei;font-size:10.00pt"><tspan x="10.4" y="32.0">Parser(Fun.class)</tspan><tspan x="28.9" y="50.0">elements[]</tspan></text></g><g id="shape214" transform="translate(829.25,2319.00)"><path fill-rule="nonzero" stroke-width="1" stroke="#323232" d="M164.5,63.0L164.5,7.0C164.5,3.1,161.4,.0,157.5,.0L7.0,.0C3.1,.0,.0,3.1,.0,7.0L.0,63.0C.0,66.9,3.1,70.0,7.0,70.0L157.5,70.0C161.4,70.0,164.5,66.9,164.5,63.0z" fill="#ffffff"/><text xml:space="preserve" style="fill:#191919;font-family:Microsoft YaHei;font-size:10.00pt"><tspan x="69.1" y="32.0">Skip</tspan><tspan x="61.5" y="50.0">tokens</tspan></text></g><g id="shape215" transform="translate(861.26,2451.00)"><path fill-rule="nonzero" stroke-width="1" stroke="#323232" d="M100.0,63.0L100.0,7.0C100.0,3.1,96.9,.0,93.0,.0L7.0,.0C3.1,.0,.0,3.1,.0,7.0L.0,63.0C.0,66.9,3.1,70.0,7.0,70.0L93.0,70.0C96.9,70.0,100.0,66.9,100.0,63.0z" fill="#ffffff"/><text xml:space="preserve" style="fill:#191919;font-family:Microsoft YaHei;font-size:10.00pt"><tspan x="26.8" y="41.0">“fun”</tspan></text></g><g id="shape216" transform="translate(1015.00,2319.00)"><path fill-rule="nonzero" stroke-width="1" stroke="#323232" d="M164.5,63.0L164.5,7.0C164.5,3.1,161.4,.0,157.5,.0L7.0,.0C3.1,.0,.0,3.1,.0,7.0L.0,63.0C.0,66.9,3.1,70.0,7.0,70.0L157.5,70.0C161.4,70.0,164.5,66.9,164.5,63.0z" fill="#ffffff"/><text xml:space="preserve" style="fill:#191919;font-family:Microsoft YaHei;font-size:10.00pt"><tspan x="68.7" y="32.0">Tree</tspan><tspan x="62.9" y="50.0">parser</tspan></text></g><g id="shape217" transform="translate(1207.51,2319.00)"><path fill-rule="nonzero" stroke-width="1" stroke="#323232" d="M164.5,63.0L164.5,7.0C164.5,3.1,161.4,.0,157.5,.0L7.0,.0C3.1,.0,.0,3.1,.0,7.0L.0,63.0C.0,66.9,3.1,70.0,7.0,70.0L157.5,70.0C161.4,70.0,164.5,66.9,164.5,63.0z" fill="#ffffff"/><text xml:space="preserve" style="fill:#191919;font-family:Microsoft YaHei;font-size:10.00pt"><tspan x="68.7" y="32.0">Tree</tspan><tspan x="62.9" y="50.0">parser</tspan></text></g><g id="shape218" transform="translate(1097.00,2205.00)"><path stroke-width="1" stroke="#191919" d="M.0,.0L.0,86.0L-186.0,86.0L-186.0,108.0" fill="none"/><path stroke-width="1" stroke="#191919" stroke-linecap="round" d="M-183.0,108.0L-186.0,114.0L-189.0,108.0L-183.0,108.0" fill="#191919"/></g><g id="shape219" transform="translate(911.00,2389.00)"><path stroke-width="1" stroke="#191919" d="M.0,.0L.0,56.0" fill="none"/><path stroke-width="1" stroke="#191919" stroke-linecap="round" d="M3.0,56.0L.0,62.0L-3.0,56.0L3.0,56.0" fill="#191919"/></g><g id="shape220" transform="translate(1097.00,2205.00)"><path stroke-width="1" stroke="#191919" d="M.0,.0L.0,108.0" fill="none"/><path stroke-width="1" stroke="#191919" stroke-linecap="round" d="M3.0,108.0L.0,114.0L-3.0,108.0L3.0,108.0" fill="#191919"/></g><g id="shape221" transform="translate(1097.00,2205.00)"><path stroke-width="1" stroke="#191919" d="M.0,.0L.0,86.0L192.0,86.0L192.0,108.0" fill="none"/><path stroke-width="1" stroke="#191919" stroke-linecap="round" d="M195.0,108.0L192.0,114.0L189.0,108.0L195.0,108.0" fill="#191919"/></g><g id="shape222" transform="translate(1097.26,2389.00)"><path stroke-width="1" stroke="#191919" d="M.0,.0L.0,654.0L2784.3,654.0L2784.3,-518.0L3248.4,-518.0" fill="none"/><path stroke-width="1" stroke="#191919" stroke-linecap="round" d="M3248.4,-521.0L3254.4,-518.0L3248.4,-515.0L3248.4,-521.0" fill="#191919"/></g><g id="shape223" transform="translate(1289.76,2319.00)"><path stroke-width="1" stroke="#191919" d="M.0,.0L.0,-1147.0L90.9,-1147.0C90.9,-1150.3,93.6,-1153.0,96.9,-1153.0C100.2,-1153.0,102.9,-1150.3,102.9,-1147.0L946.8,-1147.0C946.8,-1150.3,949.5,-1153.0,952.8,-1153.0C956.1,-1153.0,958.8,-1150.3,958.8,-1147.0L1040.1,-1147.0C1040.1,-1150.3,1042.8,-1153.1,1046.2,-1153.1C1049.5,-1153.1,1052.2,-1150.3,1052.2,-1147.0L1217.1,-1147.0L1217.1,-1174.3L1385.0,-1174.3" fill="none"/><path stroke-width="1" stroke="#191919" stroke-linecap="round" d="M1385.0,-1177.3L1391.0,-1174.3L1385.0,-1171.3L1385.0,-1177.3" fill="#191919"/></g></g></svg>